<?xml version="1.0" standalone="no"?>
<!DOCTYPE svg PUBLIC "-//W3C//DTD SVG 1.1//EN" "http://www.w3.org/Graphics/SVG/1.1/DTD/svg11.dtd" >
<svg xmlns="http://www.w3.org/2000/svg" width="100%" height="100%">
<metadata>
Created by FontXChange 20110222 at Wed Oct  5 20:36:34 2016
 By Moein
Copyright (c) 2015 by www.fontiran.com (Moslem Ebrahimi). All rights reserved.
</metadata>
<defs>
<font id="IRANSans-Regular" horiz-adv-x="0" >
  <font-face 
    font-family="IRANSans"
    font-weight="400"
    font-stretch="normal"
    units-per-em="2300"
    panose-1="2 4 5 3 5 2 1 2 2 3"
    ascent="1840"
    descent="-460"
    x-height="1201"
    cap-height="1654"
    bbox="-1183 -1315 4383 2406"
    underline-thickness="100"
    underline-position="-550"
    unicode-range="U+000D-FEFC"
  />
<missing-glyph horiz-adv-x="1229" 
d="M102 -362v1806h1024v-1806h-1024zM217 -248h795v1577h-795v-1577z" />
    <glyph glyph-name="uniFEFB" unicode="&#xfedf;&#xfe8e;" horiz-adv-x="1187" arabic-form="isolated" 
d="M1105 589q1 -5 1 -15v-14q0 -55 -11.5 -116.5t-33.5 -118.5q-48 -128 -122 -195q-63 -58 -150 -100.5t-191 -66.5l1 1q-112 -23 -215 -23q-65 0 -128 9q15 80 28 154q37 -6 98 -6q93 0 201 24q-39 208 -158 466q-92 200 -222 415q-78 128 -152 236l130 91q51 -75 94 -143
q79 -125 148 -246q235 -415 310 -766q46 29 87 77t72 106q27 52 42 104t15 98l-1 19l-50 455l-51 455l33 3l47 5l48 5l30 3l10 -66l12 -93q14 -104 23 -176q19 -157 39 -377q6 -63 16 -203v-1z" />
    <glyph glyph-name="uniFEFC" unicode="&#xfee0;&#xfe8e;" horiz-adv-x="1461" arabic-form="final" 
d="M1317 214q42 -24 73 -29.5t34 -6.5h4q1 -1 3 -1l30 -1h9q32 0 55.5 -23t23.5 -55q0 -33 -23 -55.5t-56 -22.5h-49q-14 0 -42 4q-35 3 -76.5 21t-85.5 53q-46 36 -87 101q-81 -90 -179 -145t-225 -86l1 1q-112 -23 -215 -23q-65 0 -128 9q15 80 28 154q37 -6 98 -6
q93 0 201 24q-37 202 -160 470q-89 192 -223 415q-62 104 -133 208l-15 23l129 92q51 -75 94 -143q79 -125 148 -246q236 -420 310 -764q91 51 144 123q57 76 57 161q0 9 -2 31v-1q-13 197 -29 383l-9 107l-22 249l-14 137l-9 96l-3 24l158 17l6 -53q12 -116 31 -333
q25 -288 39 -480l16 -237q7 -76 22 -112q20 -49 71 -79v-1z" />
    <glyph glyph-name="uniFEF7" unicode="&#xfedf;&#xfe84;" horiz-adv-x="1247" arabic-form="isolated" 
d="M1105 589q1 -5 1 -15v-14q0 -55 -11.5 -116.5t-33.5 -118.5q-48 -128 -122 -195q-63 -58 -150 -100.5t-191 -66.5l1 1q-112 -23 -215 -23q-65 0 -128 9q15 80 28 154q37 -6 98 -6q93 0 201 24q-39 208 -158 466q-92 200 -222 415q-78 128 -152 236l130 91q51 -75 94 -143
q79 -125 148 -246q235 -415 310 -766q46 29 87 77t72 106q27 52 42 104t15 98l-1 19l-50 455l-51 455l33 3l47 5l48 5l30 3l10 -66l12 -93q14 -104 23 -176q19 -157 39 -377q6 -63 16 -203v-1zM281 1853q-10 1 -32 5q-30 6 -63 6q-42 0 -73 -15h1q-39 -15 -63 -49.5
t-24 -73.5q0 -25 10 -45q16 -39 59 -68t93 -29q28 0 51 9l-1 -1q38 11 91 42q44 24 58 37l53 -69q-51 -35 -201 -118l-59 -33l-244 -135l-21 39l-21 38l210 117q-53 23 -92.5 59t-58.5 78q-14 37 -14 79q0 67 39 123q41 58 102 82q52 20 105 20q35 0 68.5 -5.5t52.5 -12.5z
" />
    <glyph glyph-name="uniFEF8" unicode="&#xfee0;&#xfe84;" horiz-adv-x="1470" arabic-form="final" 
d="M1317 214q42 -24 73 -29.5t34 -6.5h4q1 -1 3 -1l30 -1h9q32 0 55.5 -23t23.5 -55q0 -33 -23 -55.5t-56 -22.5h-49q-14 0 -42 4q-35 3 -76.5 21t-85.5 53q-46 36 -87 101q-81 -90 -179 -145t-225 -86l1 1q-112 -23 -215 -23q-65 0 -128 9q15 80 28 154q37 -6 98 -6
q93 0 201 24q-37 202 -160 470q-89 192 -223 415q-62 104 -133 208l-15 23l129 92q51 -75 94 -143q79 -125 148 -246q236 -420 310 -764q91 51 144 123q57 76 57 161q0 9 -2 31v-1q-13 197 -29 383l-9 107l-22 249l-14 137l-9 96l-3 24l158 17l6 -53q12 -116 31 -333
q25 -288 39 -480l16 -237q7 -76 22 -112q20 -49 71 -79v-1zM379 1884q-10 1 -32 5q-30 6 -63 6q-42 0 -73 -15h1q-39 -15 -63 -49.5t-24 -73.5q0 -25 10 -45q16 -39 59 -68t93 -29q28 0 51 9l-1 -1q38 11 91 42q44 24 58 37l53 -69q-51 -35 -201 -118l-59 -33l-244 -135
l-21 39l-21 38l210 117q-53 23 -92.5 59t-58.5 78q-14 37 -14 79q0 67 39 123q41 58 102 82q52 20 105 20q35 0 68.5 -5.5t52.5 -12.5z" />
    <glyph glyph-name="uniFEF9" unicode="&#xfedf;&#xfe88;" horiz-adv-x="1247" arabic-form="isolated" 
d="M1105 589q1 -5 1 -15v-14q0 -55 -11.5 -116.5t-33.5 -118.5q-48 -128 -122 -195q-63 -58 -150 -100.5t-191 -66.5l1 1q-112 -23 -215 -23q-65 0 -128 9q15 80 28 154q37 -6 98 -6q93 0 201 24q-39 208 -158 466q-92 200 -222 415q-78 128 -152 236l130 91q51 -75 94 -143
q79 -125 148 -246q235 -415 310 -766q46 29 87 77t72 106q27 52 42 104t15 98l-1 19l-50 455l-51 455l33 3l47 5l48 5l30 3l10 -66l12 -93q14 -104 23 -176q19 -157 39 -377q6 -63 16 -203v-1zM782 -258q-10 1 -32 5q-30 6 -63 6q-42 0 -73 -15h1q-39 -15 -63 -49.5
t-24 -73.5q0 -25 10 -45q16 -39 59 -68t93 -29q28 0 51 9l-1 -1q38 11 91 42q44 24 58 37l53 -69q-51 -35 -201 -118l-59 -33l-244 -135l-21 39l-21 38l210 117q-53 23 -92.5 59t-58.5 78q-14 37 -14 79q0 67 39 123q41 58 102 82q52 20 105 20q35 0 68.5 -5.5t52.5 -12.5z
" />
    <glyph glyph-name="uniFEFA" unicode="&#xfee0;&#xfe88;" horiz-adv-x="1470" arabic-form="final" 
d="M1317 214q42 -24 73 -29.5t34 -6.5h4q1 -1 3 -1l30 -1h9q32 0 55.5 -23t23.5 -55q0 -33 -23 -55.5t-56 -22.5h-49q-14 0 -42 4q-35 3 -76.5 21t-85.5 53q-46 36 -87 101q-81 -90 -179 -145t-225 -86l1 1q-112 -23 -215 -23q-65 0 -128 9q15 80 28 154q37 -6 98 -6
q93 0 201 24q-37 202 -160 470q-89 192 -223 415q-62 104 -133 208l-15 23l129 92q51 -75 94 -143q79 -125 148 -246q236 -420 310 -764q91 51 144 123q57 76 57 161q0 9 -2 31v-1q-13 197 -29 383l-9 107l-22 249l-14 137l-9 96l-3 24l158 17l6 -53q12 -116 31 -333
q25 -288 39 -480l16 -237q7 -76 22 -112q20 -49 71 -79v-1zM934 -216q-10 1 -32 5q-30 6 -63 6q-42 0 -73 -15h1q-39 -15 -63 -49.5t-24 -73.5q0 -25 10 -45q16 -39 59 -68t93 -29q28 0 51 9l-1 -1q38 11 91 42q44 24 58 37l53 -69q-51 -35 -201 -118l-59 -33l-244 -135
l-21 39l-21 38l210 117q-53 23 -92.5 59t-58.5 78q-14 37 -14 79q0 67 39 123q41 58 102 82q52 20 105 20q35 0 68.5 -5.5t52.5 -12.5z" />
    <glyph glyph-name="uniFEF5" unicode="&#xfedf;&#xfe82;" horiz-adv-x="1350" arabic-form="isolated" 
d="M1105 589q1 -5 1 -15v-14q0 -55 -11.5 -116.5t-33.5 -118.5q-48 -128 -122 -195q-63 -58 -150 -100.5t-191 -66.5l1 1q-112 -23 -215 -23q-65 0 -128 9q15 80 28 154q37 -6 98 -6q93 0 201 24q-39 208 -158 466q-92 200 -222 415q-78 128 -152 236l130 91q51 -75 94 -143
q79 -125 148 -246q235 -415 310 -766q46 29 87 77t72 106q27 52 42 104t15 98l-1 19l-50 455l-51 455l33 3l47 5l48 5l30 3l10 -66l12 -93q14 -104 23 -176q19 -157 39 -377q6 -63 16 -203v-1zM6 1365q2 4 13 35t27 58h-1q30 47 70 77t85 38q13 3 41 3q38 0 71.5 -9
t70.5 -25q43 -16 65.5 -22.5t52.5 -6.5q40 0 86 35q23 18 38.5 36.5t17.5 20.5q15 -9 50 -32q26 -18 48 -32q-8 -14 -28.5 -38t-48.5 -46q-81 -64 -162 -64q-38 0 -70 8t-76 23h1l-16 6q-35 13 -56.5 19.5t-43.5 6.5q-7 0 -23 -2h1q-18 -2 -34.5 -16t-29.5 -34
q-23 -34 -37 -74z" />
    <glyph glyph-name="uniFEF6" unicode="&#xfee0;&#xfe82;" horiz-adv-x="1470" arabic-form="final" 
d="M1317 214q42 -24 73 -29.5t34 -6.5h4q1 -1 3 -1l30 -1h9q32 0 55.5 -23t23.5 -55q0 -33 -23 -55.5t-56 -22.5h-49q-14 0 -42 4q-35 3 -76.5 21t-85.5 53q-46 36 -87 101q-81 -90 -179 -145t-225 -86l1 1q-112 -23 -215 -23q-65 0 -128 9q15 80 28 154q37 -6 98 -6
q93 0 201 24q-37 202 -160 470q-89 192 -223 415q-62 104 -133 208l-15 23l129 92q51 -75 94 -143q79 -125 148 -246q236 -420 310 -764q91 51 144 123q57 76 57 161q0 9 -2 31v-1q-13 197 -29 383l-9 107l-22 249l-14 137l-9 96l-3 24l158 17l6 -53q12 -116 31 -333
q25 -288 39 -480l16 -237q7 -76 22 -112q20 -49 71 -79v-1zM40 1364q2 4 13 35t27 58h-1q30 47 70 77t85 38q13 3 41 3q38 0 71.5 -9t70.5 -25q43 -16 65.5 -22.5t52.5 -6.5q40 0 86 35q23 18 38.5 36.5t17.5 20.5q15 -9 50 -32q26 -18 48 -32q-8 -14 -28.5 -38t-48.5 -46
q-81 -64 -162 -64q-38 0 -70 8t-76 23h1l-16 6q-35 13 -56.5 19.5t-43.5 6.5q-7 0 -23 -2h1q-18 -2 -34.5 -16t-29.5 -34q-23 -34 -37 -74z" />
    <glyph glyph-name="uni06440671.isol" unicode="&#xfedf;&#xfb51;" horiz-adv-x="1247" 
d="M1105 589q1 -5 1 -15v-14q0 -55 -11.5 -116.5t-33.5 -118.5q-48 -128 -122 -195q-63 -58 -150 -100.5t-191 -66.5l1 1q-112 -23 -215 -23q-65 0 -128 9q15 80 28 154q37 -6 98 -6q93 0 201 24q-39 208 -158 466q-92 200 -222 415q-78 128 -152 236l130 91q51 -75 94 -143
q79 -125 148 -246q235 -415 310 -766q46 29 87 77t72 106q27 52 42 104t15 98l-1 19l-50 455l-51 455l33 3l47 5l48 5l30 3l10 -66l12 -93q14 -104 23 -176q19 -157 39 -377q6 -63 16 -203v-1zM508 1443q32 0 65 3q82 9 119 41q26 23 29 57q0 23 -18 41q-24 25 -59 25
q-9 0 -23 -2q-60 -12 -103 -55q-46 -46 -75 -107q28 -3 65 -3zM169 1477q51 25 98 35q12 3 23 3q22 0 48 -12q23 -11 42 -34q43 83 94 132q30 28 65 46.5t70 23.5q17 4 37 4q63 0 104 -44q36 -39 36 -80l-1 -12q-2 -62 -53 -104q-39 -32 -106 -46q-53 -12 -118 -12
q-31 0 -56 2.5t-29 2.5q-45 5 -75 30q-14 9 -27 28q-12 9 -32 9q-24 0 -51 -12q-21 -9 -51 -28z" />
    <glyph glyph-name="uni06440671.fina" unicode="&#xfee0;&#xfb51;" horiz-adv-x="1470" 
d="M1317 214q42 -24 73 -29.5t34 -6.5h4q1 -1 3 -1l30 -1h9q32 0 55.5 -23t23.5 -55q0 -33 -23 -55.5t-56 -22.5h-49q-14 0 -42 4q-35 3 -76.5 21t-85.5 53q-46 36 -87 101q-81 -90 -179 -145t-225 -86l1 1q-112 -23 -215 -23q-65 0 -128 9q15 80 28 154q37 -6 98 -6
q93 0 201 24q-37 202 -160 470q-89 192 -223 415q-62 104 -133 208l-15 23l129 92q51 -75 94 -143q79 -125 148 -246q236 -420 310 -764q91 51 144 123q57 76 57 161q0 9 -2 31v-1q-13 197 -29 383l-9 107l-22 249l-14 137l-9 96l-3 24l158 17l6 -53q12 -116 31 -333
q25 -288 39 -480l16 -237q7 -76 22 -112q20 -49 71 -79v-1zM635 1419q32 0 65 3q82 9 119 41q26 23 29 57q0 23 -18 41q-24 25 -59 25q-9 0 -23 -2q-60 -12 -103 -55q-46 -46 -75 -107q28 -3 65 -3zM296 1453q51 25 98 35q12 3 23 3q22 0 48 -12q23 -11 42 -34q43 83 94 132
q30 28 65 46.5t70 23.5q17 4 37 4q63 0 104 -44q36 -39 36 -80l-1 -12q-2 -62 -53 -104q-39 -32 -106 -46q-53 -12 -118 -12q-31 0 -56 2.5t-29 2.5q-45 5 -75 30q-14 9 -27 28q-12 9 -32 9q-24 0 -51 -12q-21 -9 -51 -28z" />
    <glyph glyph-name="uniFDF2" unicode="&#xfedf;&#xfee0;&#x651;&#xfeea;" horiz-adv-x="2000" arabic-form="isolated" 
d="M1079 17q-18 -2 -30 -2q-10 0 -32 2h-10l-17 3q-49 7 -80 29q-78 38 -131 125q-142 -20 -230 -20q-249 0 -343 118q-50 59 -50 142q0 55 20 97v1q49 98 145 184q69 63 176 121q67 37 149 68l-14 152q-2 14 -2 15l33 3l47 5l77 7q26 -308 53 -507q25 -186 49 -252
q24 -65 59.5 -100t78.5 -37q12 -1 35 -1h32h28q17 0 24 1q49 3 84 29t53 67l-1 -2q7 13 7 70q0 89 -10 268l-31 504l158 17q6 -91 20 -244q11 -119 15 -192l10 -140l10 -133l6 -93q0 -29 8 -57.5t34 -59.5q33 -37 82 -38q72 -2 118 10t67 43l-1 -2q19 24 25.5 53.5t6.5 68.5
l-18 228q-29 357 -55 658q44 9 78 18l76 17q34 -447 51 -698q16 -245 16 -281q0 -82 -65 -177q-61 -88 -250 -84q-10 -2 -14 -2h-13q-35 0 -68 11q-16 1 -33 7q-68 30 -115 73l-26 -19l-27 -21q-49 -31 -104.5 -42t-116.5 -11h-44zM473 617q-104 -73 -153 -170
q-5 -13 -4 -34q0 -28 15 -44q12 -12 37 -26q23 -14 55 -20t73 -9q38 -2 60 -2q62 0 168 12q-9 44 -23 163q-16 122 -28 234q-114 -42 -200 -104zM1121 1304v-1q-33 45 -33 128q0 29 2.5 56t5.5 40q22 -4 31 -7q10 -4 28 -7l-2 -23q-3 -39 -3 -42v-1q-2 -34 3.5 -61.5
t15.5 -42.5q7 -7 12.5 -10t18.5 -3q27 0 53 31q17 20 33 63q13 37 17 62l6 37l17 -1l16 1q20 0 31 -1q0 -23 9 -64q6 -34 19 -65q13 -35 35 -51q11 -9 25 -9q21 0 34 10q6 7 15 29q8 21 8 65q0 37 -18 89q-13 36 -32 71l53 30q21 -35 35 -74q24 -70 24 -116q0 -94 -43 -137
q-29 -29 -76 -29q-25 0 -48.5 12.5t-42.5 34.5q-13 18 -34 66q-32 -66 -70 -93q-32 -23 -66 -23q-46 0 -79 36zM1278 1662q16 63 16 136q0 77 -16 137l60 17q15 -67 15 -140q0 -82 -17 -166z" />
    <glyph glyph-name="uniFDFC" unicode="&#x631;&#xfef3;&#xfe8e;&#x644;" horiz-adv-x="3142" arabic-form="isolated" 
d="M1246 414q0 -5 5 -137q0 -26 2 -94l5 -192q0 -76 -8 -140.5t-30 -125.5q-31 -87 -91 -157.5t-140 -119.5q-78 -49 -170 -74.5t-185 -25.5q-89 0 -172.5 24t-152.5 71q-109 79 -172 186q-68 117 -68 239q0 137 25 248q30 131 99 228q9 -8 58 -49q23 -21 57 -48
q-49 -73 -70 -164q-17 -72 -17 -190q0 -54 6.5 -97.5t31.5 -88.5q57 -105 178 -162q58 -28 119 -38q40 -7 77 -7q104 0 202 43q100 42 166 116q61 71 86 166q18 70 18 181q0 123 -5 321l-13 356l-14 292l-19 447q5 0 8 1l21 1l45 4l83 6l14 -352l3 -114q0 -57 3 -114
q5 -70 6 -146q1 -73 6 -216zM2418 381q0 -74 -26 -144t-76 -122q-65 -58 -174 -85q-85 -21 -198 -21h-37h-11q-69 0 -134 18t-114 53q-98 69 -114 193v-1q-3 35 -3 68l1 123q2 70 4 105q2 70 2 105v72v47q-1 13 -1 31v23q0 80 -10 220q-10 145 -20 232l-10 78q-5 29 -8 29
l160 30q3 -52 11 -131l5 -58q16 -170 25 -337q5 -98 5 -183q0 -76 -3 -157q-5 -102 -13 -194q0 -77 21 -124q26 -59 91 -77q12 -9 57 -9q12 -1 38 -1q20 0 35 -3q69 0 122 4.5t98 20.5q118 42 125 166q5 99 -34 229q-28 87 -89 215q1 4 8 7q3 2 19 9q19 6 40 15q38 16 70 30
q45 -92 77 -177q38 -109 51 -191q10 -53 10 -108zM2770 413q-22 83 -56 183l147 45q11 -41 37 -123q46 -141 67 -253q11 -69 11 -136q0 -36 -4 -67q-17 -152 -113 -291q-85 -124 -226 -233q-119 -93 -272 -172l-2 4l-64 134q125 63 232 146q112 86 194 193q98 141 98 290
q0 39 -7 93q-14 75 -42 187zM1942 -275l-141 -141l-143 142l141 142zM2285 -277l-140 -141l-143 143l141 141z" />
    <glyph glyph-name="tooman" unicode="&#xfe97;&#xfeee;&#xfee3;&#xfe8e;&#x646;" horiz-adv-x="4519" 
d="M-36 153.5q23 22.5 55 22.5h103h23q7 -1 22 -1q112 0 175 24q79 30 114 107v-1q16 32 16 88q0 92 -44 235q-14 42 -42 111q-12 30 -21 50l-17 37l142 71l16 -36q25 -56 47 -114l24 -71q52 -160 52 -281q0 -90 -28 -153q-36 -74 -97 -126t-143 -75q-46 -13 -91.5 -17
t-104.5 -4h-146q-32 0 -55 22.5t-23 55.5t23 55.5zM4028 1221l-146 -146l-148 147l146 147zM4383 1219l-145 -146l-148 148l146 146zM3092 -525q147 32 269 90.5t213 134.5q86 73 137.5 155.5t63.5 164.5h-77q-92 0 -157 5q-207 14 -306 135v-1q-61 78 -61 200q0 85 35 187
q29 88 82 161q46 57 103 88.5t115 31.5q133 0 246 -122v1q81 -90 131 -232q49 -144 53 -298h94q33 0 56.5 -23t23.5 -56q0 -32 -23.5 -54.5t-56.5 -22.5h-107q-28 -142 -102.5 -260.5t-185.5 -210.5q-106 -88 -236.5 -146t-272.5 -82zM3438 641q-36 -29 -66 -77
q-29 -47 -47 -101t-18 -101q0 -32 9.5 -59t25.5 -47v1q30 -38 102 -58q53 -16 107 -18q55 -3 118 -3q55 0 112 5q-6 132 -48 248q-38 103 -96 168q-30 32 -55 48q-36 23 -73 23q-35 0 -71 -29zM1927.5 152q22.5 22 55.5 24h-1q84 0 146 27t110 77q40 42 69.5 92.5
t74.5 139.5q36 75 58.5 115t50.5 74q85 103 203 103q142 0 236 -114q36 -44 59.5 -103t32.5 -126q5 -42 5 -76q0 -99 -31 -176q-27 -66 -72 -110.5t-102 -59.5q-34 -9 -76 -9q-160 0 -377 159l-12 -11l-7 -7q-148 -151 -367 -151q-33 0 -55.5 23t-22.5 55t22.5 54zM2460 319
q77 -58 174 -98q84 -35 140 -35q23 0 39 5h-1q28 11 47.5 47.5t25.5 86.5q3 23 3 45q0 88 -35 159q-25 50 -64.5 81t-94.5 36q-24 2 -44 -9.5t-40 -37.5q-18 -23 -36.5 -57.5t-51.5 -98.5zM1791 44.5q-75 24.5 -126 75.5q-53 53 -71 138q-10 47 -10 122q4 160 4 285
q0 175 -2 268q-3 131 -10 283q-8 132 -21 216l156 28q15 -86 23 -231q8 -176 9 -299q2 -196 2 -285l-1 -160q-1 -44 -1 -130q0 -46 7 -74.5t29 -49.5q25 -25 72 -39.5t112 -15.5h9q32 0 55.5 -23t23.5 -55q0 -33 -23 -55.5t-56 -22.5q-106 0 -181 24.5zM474 -415
q-118 42 -202 120q-84 79 -127.5 192.5t-43.5 258.5q0 144 50 311q45 149 113 262l128 -94q-19 -30 -42 -81.5t-42 -113.5q-48 -155 -48 -290q0 -113 35 -197q46 -111 143 -173q126 -81 331 -81q126 0 226 34.5t170 100.5q72 68 109.5 163.5t37.5 214.5q0 150 -59 318
q-22 62 -47.5 113t-46.5 84l139 89q29 -45 61 -115q48 -104 75 -210q37 -146 37 -274q0 -156 -53.5 -284t-151.5 -218q-93 -84 -218.5 -130t-271.5 -46l-35 1q-149 3 -267 45zM933 785l-147 -147l-148 148l147 147z" />
    <glyph glyph-name="yeye" unicode="&#xfef4;&#xfef4;" horiz-adv-x="1756" 
d="M-58.5 153.5q22.5 22.5 55.5 22.5h76q209 0 312 44q128 55 128 190q0 64 -9 115q-7 43 -28 124q21 5 76 22q35 11 73 21q21 -75 31 -148l8 -67q7 -80 21 -155q17 -89 78 -126q35 -20 92 -20q33 0 56.5 -22.5t23.5 -55.5t-23 -55.5t-55 -22.5q-91 0 -161 40
q-67 36 -112 98q-70 -69 -223 -106q-134 -32 -288 -32h-76q-33 0 -55.5 22.5t-22.5 55.5t22.5 55.5zM832.5 153.5q22.5 22.5 55.5 22.5h76q209 0 312 44q128 55 128 190q0 64 -9 115q-7 43 -28 124q21 5 76 22q35 11 73 21q21 -75 31 -148l8 -67q7 -80 21 -155
q17 -89 78 -126q35 -20 92 -20q33 0 56.5 -22.5t23.5 -55.5t-23 -55.5t-55 -22.5q-91 0 -161 40q-67 36 -112 98q-70 -69 -223 -106q-134 -32 -288 -32h-76q-33 0 -55.5 22.5t-22.5 55.5t22.5 55.5zM357 -473l-148 -148l-150 149l148 149zM751 -474l-148 -149l-150 150
l148 148zM1247 -343l-148 -148l-150 149l148 149zM1641 -344l-148 -149l-150 150l148 148z" />
    <glyph glyph-name="yeye1" unicode="&#xfef3;&#xfef4;" horiz-adv-x="1717" 
d="M-58.5 153.5q22.5 22.5 55.5 22.5h76q209 0 312 44q128 55 128 190q0 64 -9 115q-7 43 -28 124q21 5 76 22q35 11 73 21q21 -75 31 -148l8 -67q7 -80 21 -155q17 -89 78 -126q35 -20 92 -20q33 0 56.5 -22.5t23.5 -55.5t-23 -55.5t-55 -22.5q-91 0 -161 40
q-67 36 -112 98q-70 -69 -223 -106q-134 -32 -288 -32h-76q-33 0 -55.5 22.5t-22.5 55.5t22.5 55.5zM357 -488l-148 -148l-150 149l148 149zM751 -489l-148 -149l-150 150l148 148zM827 153.5q23 22.5 55 22.5h111q75 0 136.5 3.5t117.5 14.5q148 28 185 112v-1q16 32 16 88
q0 44 -12.5 100t-37.5 135q-14 42 -42 111q-12 30 -21 50l-17 37l142 71l16 -36q25 -56 47 -114l24 -71q52 -160 52 -281q0 -90 -28 -153q-36 -74 -97 -126t-143 -75q-39 -12 -151 -18q-58 -3 -144 -3h-154q-32 0 -55 22.5t-23 55.5t23 55.5zM1208 -344l-148 -148l-150 149
l148 149zM1602 -345l-148 -149l-150 150l148 148z" />
    <glyph glyph-name="uniFE8E" unicode="&#x627;" horiz-adv-x="591" arabic-form="final" 
d="M400 44.5q-75 24.5 -126 75.5q-53 53 -71 138q-10 47 -10 122v18q2 17 3 90q1 48 1 177q0 61 -2 173q0 162 -8 343q-9 198 -23 281l156 28q17 -100 25 -280q7 -194 7 -348q2 -154 2 -217q0 -143 -2 -223v-26v-18q-1 -58 5 -90.5t31 -56.5q25 -25 72 -39.5t112 -15.5h9
q32 0 55.5 -23t23.5 -55q0 -33 -23 -55.5t-56 -22.5q-106 0 -181 24.5z" />
    <glyph glyph-name="uniFEA3" unicode="&#x62d;" horiz-adv-x="1548" arabic-form="initial" 
d="M-57.5 153.5q23.5 22.5 56.5 22.5h198q245 0 547 100q235 78 521 223l-298 124l-48 22q-90 43 -132 59q-91 35 -153 35q-69 0 -135 -49q-50 -36 -100 -103q-22 -30 -56 -88l-134 80q33 67 90 136q74 90 159 135.5t176 45.5q82 0 194 -40q59 -21 176 -76l30 -14
q52 -24 106 -51q95 -48 189 -91q61 -28 111 -46q5 -26 16 -79l4 -21l12 -57q-70 -30 -97 -42l-42 -21l-58 -30q-271 -133 -500 -207q-311 -101 -578 -101h-198q-33 0 -56.5 23t-23.5 55q0 33 23.5 55.5z" />
    <glyph glyph-name="uniFEA4" unicode="&#x62d;" horiz-adv-x="1667" arabic-form="medial" 
d="M-56 152.5q23 23.5 56 23.5h183q245 0 505 91q106 37 211.5 85t237.5 114l60 30q-40 13 -86.5 34.5t-115.5 55.5q-49 23 -112 54q-119 57 -222 84q-54 14 -100 14q-97 0 -189 -96q-33 -35 -59.5 -73.5t-42.5 -69.5l-130 88q73 135 167 213q117 97 254 97q117 0 277 -67
q61 -25 139 -65q174 -91 275 -133q72 -30 135 -43l9 -42l8 -37q6 -35 16 -77l-27 -12q-18 -8 -49 -23l-55 -27q23 -82 101 -130q62 -40 146 -54q59 -11 117 -11h6h8q33 0 56 -23.5t23 -55.5q0 -33 -23 -55t-56 -22h-14q-189 0 -323 74q-132 73 -185 206q-250 -127 -450 -193
q-266 -88 -512 -88l-183 1q-33 0 -56 22t-23 55q0 32 23 55.5z" />
    <glyph glyph-name="uniFEA2" unicode="&#x62d;" horiz-adv-x="1600" arabic-form="final" 
d="M1120.5 -568q125.5 40 247.5 124l90 -129q-296 -199 -643 -199q-151 0 -282.5 40.5t-229.5 118.5q-102 80 -157.5 193.5t-55.5 254.5v21q0 14 1 22q6 101 46 194.5t110 175.5q70 81 168.5 146t218.5 111q235 88 529 88h35q-46 24 -142 98l-24 18q-121 91 -197 133
q-114 63 -214 63q-95 0 -190 -78q-62 -50 -135 -151l-21 14q-15 9 -31 20l-18 12q-3 2 -28 19l-31 19q80 128 181 206q126 97 257 97q150 0 301 -78q61 -32 118 -72.5t140 -104.5l23 -18q76 -60 127 -97.5t105 -68.5l-51 -159l-154 -10q-1 -5 -1 -15v-14q0 -38 9 -73
q12 -45 37 -77q26 -31 58 -50.5t74 -30.5q39 -11 89.5 -15t121.5 -4q32 0 55.5 -23.5t23.5 -56.5q0 -32 -23 -54t-56 -22q-171 0 -286 40.5t-182 120.5q-33 46 -53.5 104t-23.5 120l-1 13q0 7 2 25q-165 -16 -310 -66t-255 -128q-111 -80 -176 -179t-74 -209
q-1 -154 88 -264q79 -100 225 -154q136 -51 297 -51q142 0 267.5 40z" />
    <glyph glyph-name="uniFEAE" unicode="&#x631;" horiz-adv-x="816" arabic-form="final" 
d="M605 69q0 -160 -92 -312q-82 -136 -233 -265q-133 -113 -306 -202q-25 52 -35 71q-22 43 -35 69q146 76 264 171q130 104 201 216q79 125 79 253q0 14 -2 40q-11 87 -50 236l-9 31q-8 34 -23 84l-29 94l150 46q78 -229 154 -324q40 -52 84.5 -76.5t96.5 -24.5h5
q33 0 56 -23.5t23 -55.5q0 -33 -23 -55t-56 -22q-47 0 -86 13q-69 21 -134 89v-53z" />
    <glyph glyph-name="uniFEB3" unicode="&#x633;" horiz-adv-x="1609" arabic-form="initial" 
d="M-51 150q21 23 51 26q112 4 195 86q69 69 118 190q42 102 63 212l157 -31l-19 -64q-26 -83 -38 -161q-7 -39 -7 -79q0 -72 26 -111q32 -51 102 -51q99 0 171 97q58 77 100 215q30 98 48 215l78 -15l45 -9q8 -1 29 -5v-1q-14 -81 -22 -131q-15 -99 -15 -155q0 -97 33 -148
q41 -66 134 -66q85 0 129 57q40 52 40 139q0 100 -47 243q-38 114 -83 205l139 74q3 -7 31.5 -66t57.5 -143q61 -183 61 -310q0 -166 -90 -259q-94 -96 -271 -96q-72 0 -149 48q-73 46 -120 117q-68 -78 -144.5 -121.5t-154.5 -43.5q-74 0 -145 42q-78 47 -112 124
q-71 -76 -145 -112q-86 -42 -194 -43q-31 2 -52 24t-21 54q0 30 21 53z" />
    <glyph glyph-name="uniFEB4" unicode="&#x633;" horiz-adv-x="1851" arabic-form="medial" 
d="M-57 151q24 23 56 25h8q81 0 163 84q54 55 116 169q41 77 69 157q20 59 35 108v2q69 -18 152 -42l-2 -6l1 1q-22 -87 -33 -167q-8 -70 -8 -113q0 -98 33 -153v1q20 -35 59 -39q12 -4 27 -4q42 0 82 30q48 35 92.5 111.5t79.5 184.5v-1q29 85 53 207l155 -29
q-16 -87 -21 -182q-1 -7 -1 -23v-23q0 -78 14 -136t40 -90q15 -20 38.5 -32t62.5 -12q62 0 99 43v-1q36 39 58 114.5t28 177.5q2 54 2 77q0 18 -2 56l-4 56l159 14q4 -70 15 -136.5t36 -145.5q84 -258 240 -258h8q33 0 55.5 -22.5t22.5 -55.5q0 -32 -22.5 -55t-55.5 -23h-8
q-75 0 -142.5 32t-120.5 93q-31 34 -73 104q-42 -93 -78 -132q-85 -97 -217 -97q-69 0 -126 26t-97 77q-28 33 -60 111q-74 -112 -138 -158q-88 -59 -177 -59q-101 0 -163 59q-55 51 -100 161q-51 -69 -87 -102q-118 -115 -259 -115h-9q-32 0 -55.5 23t-23.5 55q0 30 24 53z
M1081 677v1v-1z" />
    <glyph glyph-name="uniFEB2" unicode="&#x633;" horiz-adv-x="2889" arabic-form="final" 
d="M2891 176q32 0 55.5 -23t23.5 -56q0 -32 -23.5 -54.5t-55.5 -22.5h-9h-11q-157 0 -264 125q-26 26 -72 107q-39 -90 -78 -136q-91 -97 -216 -97q-55 0 -117 38q-67 41 -113 108q-116 -134 -299 -146q-76 -4 -156 29q-32 13 -63 32l2 -52q1 -15 1 -43q0 -179 -92 -322
q-48 -75 -118.5 -134t-157.5 -98q-162 -75 -352 -75l-34 1q-124 0 -231.5 37.5t-189.5 107.5q-72 67 -120 159q-51 95 -64 196q-9 60 -9 117q0 152 50 312q24 82 54.5 149t59.5 112l65 -48l19 -15q28 -22 43 -32q-19 -30 -42 -81.5t-42 -113.5q-48 -156 -48 -290
q0 -44 5 -79t16 -74q24 -85 86 -157q73 -86 210 -122q70 -19 169 -19q218 10 352.5 88.5t182.5 223.5q37 114 37 255q0 113 -25.5 225t-81.5 239q18 12 39 22.5t28 14.5l32 16q11 5 33 19q2 -2 8 -17q0 -1 16 -39l30 -76q27 -76 48.5 -125.5t49.5 -87.5q71 -96 184 -96
q100 0 153 68q43 56 61 163q8 46 10.5 101.5t3.5 66.5q0 23 1 35v15l164 -11l-7 -152q0 -119 27 -192q36 -99 126 -99q31 0 51 11.5t43 37.5v-1q37 40 62 116.5t30 176.5l1 34q0 29 -3 59l-8 96l164 11q5 -62 13 -122q10 -74 27 -152q42 -129 105 -196.5t141 -67.5h20z" />
    <glyph glyph-name="uniFEBB" unicode="&#x635;" horiz-adv-x="1871" arabic-form="initial" 
d="M946 151q44 0 89 3q168 10 297 46q143 38 206 96q46 41 69.5 89t23.5 97q0 80 -56 141q-90 75 -192 77q-88 0 -192 -56q-77 -41 -178 -130v1q-85 -80 -170 -191q-76 -98 -104 -155q95 -18 207 -18zM-56 153.5q23 22.5 56 22.5q115 0 185 36q48 23 81 67q33 46 51 104.5
t38 157.5q4 14 7 35q13 63 25 106l151 -45q-4 -11 -7 -29q-12 -56 -18 -111q-4 -25 -2 -42q0 -133 82 -238q31 69 112 183q88 123 199 228q117 111 248 171q122 57 244 57q24 0 36 -1q148 -13 257 -123q45 -58 69.5 -125.5t24.5 -136.5q0 -83 -36.5 -160t-108.5 -136
q-122 -100 -315 -147q-162 -39 -341 -39q-124 0 -197 5.5t-134 24.5q-68 21 -126.5 65t-120.5 121q-68 -93 -165 -138t-230 -46h-9q-33 0 -56 22.5t-23 55.5t23 55.5z" />
    <glyph glyph-name="uniFEBC" unicode="&#x635;" horiz-adv-x="1933" arabic-form="medial" 
d="M-56 153q23 23 55 23h9q121 3 170 26q47 23 88 76q33 45 55 108.5t45 165.5l15 66q11 48 16 64l149 -46q-18 -65 -25.5 -102t-7.5 -87q0 -73 13 -119q20 -76 76 -114q37 79 112 184q89 127 193 228q88 82 192 139q108 59 211 79h-1q57 11 107 11q56 0 114 -14
q109 -28 184 -109q95 -95 88 -262q-6 -76 -44 -152t-104 -142h279q33 0 56.5 -23t23.5 -56t-23.5 -55t-56.5 -22l-252 -1q-112 0 -176.5 7t-104.5 25q-227 -62 -414 -62q-79 0 -177 13q-140 18 -233 61q-124 56 -161 149q-79 -106 -173 -147q-93 -45 -243 -45
q-33 0 -55.5 22t-22.5 55t23 56zM882 157q43 -4 95 -4q172 0 313 32q166 38 259 112h-1q98 78 98 199q0 42 -12.5 76t-30.5 51q-58 56 -128 69q-23 4 -52 4q-33 0 -84 -7q-81 -12 -165 -59.5t-158 -118.5v1q-88 -83 -163 -188q-67 -92 -97 -154q45 -6 126 -13z" />
    <glyph glyph-name="uniFEBA" unicode="&#x635;" horiz-adv-x="2868" arabic-form="final" 
d="M2073 142q105 0 207 24q111 26 184 71q44 23 75.5 68.5t43.5 99.5q6 29 6 58q0 83 -49 136q-56 57 -127 73q-29 7 -65 7q-31 0 -75 -7q-77 -12 -161 -64q-70 -43 -148 -116q-74 -70 -141 -155q-61 -79 -93 -137q157 -58 343 -58zM2697 51q-77 27 -119 69
q-111 -70 -251 -105q-110 -27 -219 -29q-8 -1 -23 -1h-24q-101 0 -197 16t-174 45q-99 36 -216 120q3 -51 4 -66l2 -36q1 -12 1 -29v-27q0 -9 -2 -27q-10 -135 -60 -248q-63 -131 -157 -213q-89 -73 -206.5 -111.5t-254.5 -38.5q-54 0 -98 4q-201 20 -320 94
q-117 69 -176 184.5t-59 268.5q0 126 37 272q22 90 61 188q32 81 56 121l135 -87q-46 -95 -78 -195q-54 -166 -54 -296q0 -113 40 -194q44 -89 134.5 -137.5t235.5 -61.5q40 -3 81 -3q228 0 364 112q80 69 123 176q31 79 38 177q2 34 2 53q0 138 -51 327q-28 99 -70 211
l147 58q63 -145 149 -271q37 -54 97 -98q35 67 107 162q71 94 155 172q89 87 187.5 144t200.5 77h-1q46 10 99 10q65 0 123 -16q114 -32 185 -113q47 -56 72 -121.5t25 -135.5q0 -112 -62 -217q13 -19 70 -38q56 -21 104 -21h8q33 0 56 -23t23 -56q0 -32 -23 -54.5
t-56 -22.5q-83 0 -171 31z" />
    <glyph glyph-name="uniFEC3" unicode="&#x637;" horiz-adv-x="1509" arabic-form="initial" 
d="M402 176h129q92 0 165.5 5t146.5 22q188 43 335 164q58 51 86 104q25 52 25 99q0 17 -3 33q-8 43 -36.5 75t-70.5 51q-53 23 -119 23q-30 0 -53 -4q-219 -48 -489 -343v1q-17 -19 -48 -58q-18 -22 -49 -64l-81 -107q11 -1 62 -1zM-58.5 153q23.5 23 55.5 23h9h153l11 18
q11 18 13 22l-1 -1q29 51 57.5 95t75.5 102q24 140 24 410q0 227 -23 459l-21 215l163 29q44 -347 44 -714v-44q-1 -17 -1 -54q-1 -19 -1 -54q-1 -17 -1 -45q267 248 484 290q48 8 88 8q48 0 98 -11q93 -22 165 -89q95 -102 95 -229q0 -88 -41 -178q-40 -88 -101 -153
q-156 -139 -358 -193q-144 -40 -331 -40l-592 1h-9q-33 0 -56 22.5t-23 55.5q0 32 23.5 55z" />
    <glyph glyph-name="uniFEC4" unicode="&#x637;" horiz-adv-x="1583" arabic-form="medial" 
d="M484 175h45q15 -1 45 -1q96 0 171 6.5t145 25.5q79 21 152 59.5t144 101.5q41 41 68 106q28 66 26 127q-15 85 -100 125q-53 25 -125 25q-13 0 -37 -2q-57 -10 -134 -46.5t-160 -100.5q-211 -161 -376 -425zM-63.5 153.5q22.5 22.5 55.5 22.5h8h156q35 56 85 125
q43 58 76 97l4 7q13 17 21 87q6 66 6 167q0 127 -8 293q-8 159 -20 304q-13 158 -24 233l155 28q58 -389 58 -797v-108q276 258 484 289q37 5 66 5q59 0 116.5 -15t105.5 -43q66 -38 107.5 -99.5t49.5 -141.5q1 -8 1 -25q0 -87 -40 -175q-39 -84 -98 -149l-22 -21l-28 -28
l-35 -33h373q33 0 55.5 -22t22.5 -55q0 -32 -22.5 -55t-55.5 -23h-40q-56 -2 -114 -2h-94q-111 0 -187 7q-111 10 -195 37q-90 -26 -173.5 -34.5t-180.5 -8.5h-613q-33 0 -55.5 22.5t-22.5 55.5t22.5 55.5z" />
    <glyph glyph-name="uniFEC2" unicode="&#x637;" horiz-adv-x="1867" arabic-form="final" 
d="M948 20q-14 -1 -41 -1h-40q-59 0 -126 4h-4q-304 17 -608 132l19 48l10 27q12 35 27 72q108 -42 256 -79q67 98 134 181l25 36q12 85 12 159q0 44 -1 66q-2 42 -2 68q0 106 -14 294q-11 142 -29 316q-9 81 -22 175l155 35q4 -27 14 -120l10 -91l20 -196l3 -35l5 -52
l4 -47q1 -16 2 -27t2 -19q3 -32 5 -77q0 -28 1 -43q0 -34 1 -59l4 -167q267 255 483 287q40 7 68 7q66 0 131 -21t118 -60q58 -44 92 -105.5t34 -134.5q0 -50 -15 -107t-44 -112q-33 -63 -79 -115t-101 -81l403 -2h8q33 0 55.5 -22.5t22.5 -55.5q0 -32 -22.5 -55t-55.5 -23
h-920zM930 178q147 7 258 45q148 50 264 156q43 48 66 103q23 54 23 105q0 86 -79 132q-30 17 -66 26t-73 9q-25 0 -46 -3q-105 -17 -229 -103t-261 -238l-175 -222z" />
    <glyph glyph-name="uniFECB" unicode="&#x639;" horiz-adv-x="1072" arabic-form="initial" 
d="M875 634q-75 62 -184 105q-54 20 -108 20q-119 0 -190 -78q-32 -35 -48.5 -81.5t-16.5 -96.5q0 -65 29 -121t80 -95q45 -36 101.5 -55t119.5 -19q19 0 29 1q82 5 175 20q47 7 109 19l19 -152q-143 -36 -290 -54q-207 -25 -482 -25l-218 -2q-33 0 -56.5 22.5t-23.5 55.5
t23.5 55.5t56.5 22.5l335 4q-87 79 -125 157.5t-38 165.5q0 83 30.5 157.5t86.5 132.5t131.5 90t162.5 32q131 0 256 -67q76 -41 133 -95z" />
    <glyph glyph-name="uniFECC" unicode="&#x639;" horiz-adv-x="1138" arabic-form="medial" 
d="M1201.5 152.5q23.5 -23.5 23.5 -56.5q0 -32 -23.5 -54.5t-55.5 -22.5q-327 0 -543 126q-129 -61 -293 -94q-160 -32 -309 -32q-32 0 -55.5 22.5t-23.5 54.5q0 33 23.5 56.5t55.5 23.5q103 0 234 21q131 20 218 55q-67 62 -124.5 125.5t-138.5 160.5l-79 93l10 123
q85 74 206 118q85 30 190 43q52 5 89 5q74 0 145 -13.5t132 -38.5q86 -39 126 -98q16 -23 23 -46.5t7 -41.5q1 -5 1 -15q0 -42 -23 -95.5t-63 -111.5q-43 -61 -97.5 -118.5t-109.5 -99.5q85 -32 188.5 -49t210.5 -17q32 0 55.5 -23.5zM729 433q60 66 106 140t46 111
q-60 39 -133 59t-152 20q-77 0 -158 -22t-157 -66q118 -141 167 -194q82 -90 157 -150q55 28 124 102z" />
    <glyph glyph-name="uniFECA" unicode="&#x639;" horiz-adv-x="1355" arabic-form="final" 
d="M801 -615q85 0 164 13q158 25 284 105l42 -69q27 -48 39 -67q-88 -54 -189.5 -89t-208.5 -47q-55 -7 -117 -7q-164 0 -307 53q-103 38 -188 103t-146 156q-29 49 -44 113t-15 133q0 73 15.5 141t44.5 120h-1q58 104 177 194q108 81 245 138q-74 67 -132 126t-132 139
l-17 18q-3 26 -10 109q53 78 167 135q80 40 172 61l-1 -1q108 24 209 24q112 0 195 -28q96 -29 147.5 -86.5t51.5 -134.5q0 -81 -39 -154.5t-109 -132.5q-75 -60 -195 -115q124 -76 235.5 -117.5t216.5 -41.5q32 -1 54.5 -24t22.5 -55q0 -33 -22 -55t-55 -23q-151 0 -314 68
q-136 56 -309 176q-94 -38 -172 -79t-139 -93q-150 -130 -150 -297q0 -100 70 -193q61 -82 157 -141q89 -54 168 -67q70 -8 135 -8zM610 579q80 -80 146 -134q170 70 245 130q42 34 63.5 72t23.5 84q0 26 -28 49q-21 16 -58 29q-60 20 -149 20q-95 0 -201 -30
q-108 -32 -179 -80q71 -76 137 -140z" />
    <glyph glyph-name="uniFEDB" unicode="&#x643;" horiz-adv-x="942" arabic-form="initial" 
d="M-63.5 153.5q24.5 22.5 63.5 22.5h56h49q85 0 144.5 2.5t113.5 12.5q140 26 193 105q43 64 43 149q0 95 -44 171q-45 76 -132 177q-84 97 -194 198q-53 49 -109 94q4 38 11 92l10 90l396 170l396 169l11 -26l21 -47q11 -24 31 -72l-728 -306q78 -66 135.5 -118
t108.5 -110q128 -142 186 -273q52 -118 52 -225q0 -110 -57 -215h1q-85 -150 -288 -188q-38 -7 -83 -7l-323 1q-38 0 -63 22t-25 55q0 34 24.5 56.5z" />
    <glyph glyph-name="uniFEDC" unicode="&#x643;" horiz-adv-x="1188" arabic-form="medial" 
d="M-65.5 153q23.5 23 55.5 23h9h330q42 0 84.5 17.5t79.5 48.5q36 30 59.5 67.5t28.5 75.5q6 108 -72 250q-67 119 -182 250q-96 106 -203 190q4 50 12 100l12 99l854 368l11 -26l21 -47q11 -24 31 -72l-807 -339q168 -139 280 -293q44 -62 78 -121t86 -157
q66 -126 105 -190q64 -107 140 -159q83 -58 197 -62h43q33 0 55.5 -23t22.5 -55q0 -33 -22.5 -55.5t-55.5 -22.5h-8q-68 0 -121.5 8t-105.5 26h1q-64 23 -127 76.5t-119 125.5q-49 -90 -97 -134h1q-58 -52 -132.5 -75t-163.5 -27h-325q-33 0 -56 22.5t-23 55.5q0 32 23.5 55
z" />
    <glyph glyph-name="uniFEDA" unicode="&#x643;" horiz-adv-x="2060" arabic-form="final" 
d="M1948 205q42 -28 112 -29q32 0 55 -23t23 -55t-23 -55t-55 -23q-100 3 -177 45v-1q-83 47 -141 162q-96 -96 -223 -148q-112 -41 -255.5 -63.5t-310.5 -22.5q-173 2 -317.5 23.5t-250.5 59.5q-203 80 -269 219q-40 76 -40 169q0 88 38 189q31 78 75 148l126 -94
q-21 -37 -33 -60t-23 -54q-25 -66 -25 -128q0 -51 22 -98q56 -101 238 -156q190 -59 459 -59q325 0 507 72q60 25 92.5 43t55.5 45q26 30 40.5 76t20.5 118q3 47 3 104q0 122 -15 323q-5 136 -17 327q-9 135 -16 198l156 16l6 -60q6 -58 20 -276l3 -66q3 -48 7 -134
q6 -103 10 -149l5 -69l3 -82l3 -81q5 -101 18 -169t36 -112q21 -46 57 -70zM1125 901q-10 1 -32 5q-30 6 -63 6q-42 0 -73 -15h1q-39 -15 -63 -49.5t-24 -73.5q0 -25 10 -45q16 -39 59 -68t93 -29q29 0 51 9l-1 -1q38 11 91 42q44 24 58 37l53 -69q-51 -35 -201 -118
l-59 -33l-244 -135l-21 39l-21 38l210 117q-53 23 -92.5 59t-58.5 78q-14 37 -14 79q0 67 39 123q41 58 102 82q52 20 105 20q35 0 68.5 -5.5t52.5 -12.5z" />
    <glyph glyph-name="uniFEDF" unicode="&#x644;" horiz-adv-x="547" arabic-form="initial" 
d="M-55 153.5q23 22.5 55 22.5h9h47q121 0 175 54q58 58 57 220l-17 491q-5 136 -17 327q-9 135 -16 198l156 16l6 -60q6 -58 20 -276l3 -66q3 -48 7 -134l7 -211l3 -64l1 -35l4 -134q0 -36 1 -53q2 -94 -15 -166q-23 -99 -86 -164q-99 -99 -289 -99h-47h-9q-32 0 -55 23
t-23 55q0 33 23 55.5z" />
    <glyph glyph-name="uniFEE0" unicode="&#x644;" horiz-adv-x="661" arabic-form="medial" 
d="M-55 153q23 23 55 23h9h86q60 1 92 9q32 6 48 21q30 24 45 80q10 36 16 106q0 49 1 88l1 83l3 226q1 62 1 189q0 202 -2 294q-3 118 -12 229q31 3 79 11l76 10q8 -69 15 -253q4 -133 4 -314q0 -109 -2 -303l-1 -58q-2 -67 -4 -205q0 -32 6 -60q6 -38 28 -73
q26 -39 60 -57q44 -23 113 -23q33 0 56.5 -23t23.5 -55q0 -33 -23.5 -55.5t-56.5 -22.5q-89 -1 -164 33q-68 30 -114 80q-27 -30 -51 -50q-48 -39 -110 -52q-45 -11 -105 -11h-109h-9q-32 0 -55 22.5t-23 55.5q0 32 23 55z" />
    <glyph glyph-name="uniFEDE" unicode="&#x644;" horiz-adv-x="1490" arabic-form="final" 
d="M317 332q-52 -99 -81 -246q-15 -76 -15 -168q0 -129 73 -227q59 -81 159 -129q85 -41 157 -41q117 0 218 32q129 40 201 125q88 103 88 268q0 119 -7 385q-5 172 -16 480l-12 294l-6 142l-7 159l-4 95q55 2 79 4l77 4l15 -360q4 -118 7 -168l15 -375l6 -190
q4 -65 31 -120q25 -52 67 -82q54 -38 126 -38q33 0 56 -23.5t23 -55.5q0 -33 -23 -55t-56 -22q-65 0 -114.5 14.5t-102.5 44.5q0 -20 1 -32l1 -73v-28q0 -225 -112 -367q-95 -119 -260 -172q-130 -42 -291 -42q-140 0 -257 57q-130 63 -205 181q-83 131 -83 315
q0 197 47 349q19 62 37 96q23 42 29 51z" />
    <glyph glyph-name="uniFEE3" unicode="&#x645;" horiz-adv-x="1138" arabic-form="initial" 
d="M-54.5 152q22.5 22 55.5 24h-1q84 0 146 27t110 77q40 42 69.5 92.5t74.5 139.5q36 75 58.5 115t50.5 74q85 103 203 103q141 0 236 -114q36 -44 59.5 -103t32.5 -126q5 -42 5 -76q0 -99 -31 -176q-27 -66 -72 -110.5t-102 -59.5q-34 -9 -76 -9q-160 0 -377 159l-12 -11
l-7 -7q-148 -151 -367 -151q-33 0 -55.5 23t-22.5 55t22.5 54zM478 319q77 -58 174 -98q84 -35 140 -35q23 0 39 5h-1q28 11 47.5 47.5t25.5 86.5q3 23 3 45q0 88 -35 159q-25 50 -64.5 81t-94.5 36q-24 2 -44 -9.5t-40 -37.5q-18 -23 -36.5 -57.5t-51.5 -98.5z" />
    <glyph glyph-name="uniFEE4" unicode="&#x645;" horiz-adv-x="1150" arabic-form="medial" 
d="M876 352v0v1q-1 12 -1 34l-1 2v10q-6 62 -34.5 119t-71.5 92t-90 35q-45 0 -79.5 -43.5t-69.5 -113.5l-21 -43l-20 -43q-16 -29 -20 -35l-10 -15l-9 -15l-8 -15l14 -9l1 -1l2 -1q3 -3 6 -4q6 -5 20 -13q29 -18 65 -39q101 -58 165 -70q20 -3 37 -3q52 0 83 31
q43 43 42 139zM1199 155q23 -23 23 -56t-23 -56t-56 -23q-109 0 -180 92l-15 19l-14 -19q-68 -89 -163 -89q-10 0 -28 2q-119 16 -261 86q-58 30 -85 47q-20 11 -24 14l-7 5l-1 1h-1l-16 11l-10 -16h-1l-1 -2l-3 -5l-15 -17q-63 -70 -162 -104q-72 -25 -157 -25
q-33 0 -56 23t-23 56t23 56t56 23q137 0 244 126q37 45 76 111q19 33 28 54l13 25l5 12l6 12l18 38l2 3l23 46l25 44q26 43 58 78q74 78 181 78q84 0 154 -47t116.5 -128.5t62.5 -183.5q4 -27 4 -62q0 -21 -1 -32v-1l1 -2q9 -77 49 -125q37 -46 79 -46q33 0 56 -23z" />
    <glyph glyph-name="uniFEE2" unicode="&#x645;" horiz-adv-x="1225" arabic-form="final" 
d="M898 216q22 26 35 68.5t13 87.5v12v1l-1 14q-7 66 -32 122t-66 90t-93 34h-8q-63 -3 -108 -64t-83 -148q-19 -46 -36 -99l-5 -15l15 -7v-1h2l5 -3l20 -9q23 -11 71 -31q112 -48 212 -76q8 -2 12 -2q25 0 47 26zM1270 155q23 -23 23 -56t-23 -56t-56 -23q-111 0 -180 83
l-15 18l-14 -19q-60 -78 -135 -78q-30 0 -57 10q-75 26 -329 119l-140 52q-10 3 -43 16l-12 4l-3 2h-2l-26 10l35 -959l-36 -3l-45 -2q-49 -4 -80 -4q-2 24 -2 47l-3 73l-9 206l-23 542q-5 130 45 191t132 61q37 0 74 -10l16 -5l6 16q72 190 167 302.5t214 112.5
q84 0 154 -47t116.5 -128.5t62.5 -183.5q4 -25 4 -61q0 -21 -1 -32v-1l1 -2q6 -52 26 -91t47.5 -60t54.5 -21q33 0 56 -23z" />
    <glyph glyph-name="uniFEEB" unicode="&#x647;" horiz-adv-x="1473" arabic-form="initial" 
d="M-58 153.5q24 22.5 58 22.5h9q130 0 214 6q80 6 143 16q-86 84 -129 166t-43 159q0 55 16 112.5t47 109.5q34 55 85 97t118 64l-107 41l77 144l118 -45q34 -14 51 -20q111 -45 162 -63q208 -91 340 -165q161 -91 217 -168q88 -121 88 -248q0 -95 -50.5 -175t-148.5 -133
l1 1q-51 -30 -145 -45q-81 -13 -161 -13q-93 0 -174 13.5t-162 47.5q-98 -30 -258 -45q-142 -13 -299 -13h-9q-34 0 -58 23t-24 56q0 32 24 54.5zM938 571q0 -90 -51 -200q-53 -110 -138 -188q70 -14 134 -14h48q154 0 246 67q40 30 61 71t21 87q0 40 -23 87.5t-67 94.5
q-101 106 -258 169q18 -45 23 -84t4 -78v-12zM642 801q-14 5 -25 3q-64 -6 -117 -33t-90 -69q-31 -35 -47.5 -76.5t-16.5 -84.5q0 -17 3 -34q11 -74 70 -146q55 -67 134 -112q107 46 166 144q26 43 40 91.5t14 94.5q0 84 -36 148q-38 67 -94 74h-1z" />
    <glyph glyph-name="uniFEEC" unicode="&#x647;" horiz-adv-x="1005" arabic-form="medial" 
d="M510 725q-27 -3 -55 -26.5t-54 -61.5q-49 -73 -82 -184q-34 -110 -34 -199q0 -26 5 -64q27 -4 47 -4q62 0 114.5 28.5t90.5 77.5q36 47 55.5 105.5t19.5 116.5q0 65 -23 118.5t-70 88.5zM-56.5 153q22.5 23 55.5 23h133l-1 28q0 115 38 255q22 81 55 156t74 134
q95 134 214 145q57 0 104 -37.5t82 -103.5q32 -61 49 -135.5t17 -144.5q0 -93 -28 -150q-41 -119 -158 -197q-104 -69 -253 -95q35 -90 91 -177q77 -120 152 -164q-1 11 -1 32q0 109 56 210q30 53 72.5 98t94.5 78q51 33 106 50.5t109 17.5q33 0 56 -23t23 -55
q0 -33 -23 -55.5t-56 -22.5h-9q-61 -3 -115.5 -31.5t-96.5 -77.5q-43 -48 -66.5 -107t-23.5 -120q0 -108 75 -191l-104 -125q-189 117 -319 290q-114 150 -170 323l-14 39h-163q-33 0 -55.5 22.5t-22.5 55.5q0 32 22.5 55z" />
    <glyph glyph-name="uniFEEA" unicode="&#x647;" horiz-adv-x="1090" arabic-form="final" 
d="M200 278q-48 59 -48 147q0 63 18 101q49 101 143 182q79 68 178 119q52 27 97.5 44.5t51.5 19.5l-15 145l157 34l4 -35q2 -27 6 -63l8 -76q4 -39 13 -117q0 -7 2 -21l4 -34v1q23 -201 52 -346q12 -55 17 -70l10 -29v1q24 -59 71 -83q43 -22 121 -22q33 0 56 -22.5
t23 -55.5q0 -32 -23.5 -55t-55.5 -23q-114 0 -187 35h1q-76 35 -131 126q-135 -21 -229 -21q-250 0 -344 118zM634 720l-59 -26q-76 -33 -144 -77q-79 -52 -110 -111q-18 -31 -18 -67q0 -67 74 -99q57 -26 161 -26q83 0 181 18q-24 116 -59 398z" />
    <glyph glyph-name="uniFEEE" unicode="&#x648;" horiz-adv-x="1043" arabic-form="final" 
d="M102 -525q147 32 269 90.5t213 134.5q86 73 137.5 155.5t63.5 164.5h-77q-92 0 -157 5q-207 14 -306 135v-1q-61 78 -61 200q0 85 35 187q29 88 82 161q46 57 103 88.5t115 31.5q133 0 246 -122v1q81 -90 131 -232q49 -144 53 -298h94q33 0 56.5 -23t23.5 -56
q0 -32 -23.5 -54.5t-56.5 -22.5h-107q-28 -142 -102.5 -260.5t-185.5 -210.5q-106 -88 -236.5 -146t-272.5 -82zM448 641q-36 -29 -66 -77q-29 -47 -47 -101t-18 -101q0 -32 9.5 -59t25.5 -47v1q30 -38 102 -58q53 -16 107 -18q55 -3 118 -3q55 0 112 5q-6 132 -48 248
q-38 103 -96 168q-30 32 -55 48q-36 23 -73 23q-35 0 -71 -29z" />
    <glyph glyph-name="uniFEF0" unicode="&#x649;" horiz-adv-x="1715" arabic-form="final" 
d="M479 -590q-188 54 -268 190q-93 135 -93 351v24q0 15 1 24q14 266 161 627l74 -30l71 -29q-72 -181 -110.5 -340.5t-38.5 -279.5q0 -161 65 -259q53 -76 148 -116q76 -33 179 -42q60 -5 162 -5q35 0 90.5 5.5t114.5 16.5q155 29 251 81q123 67 123 162q0 15 -12 34.5
t-37 40.5q-65 52 -170 90q-69 23 -136 41q-56 15 -98 23h-3l11 158l752 -1q33 0 56 -22.5t23 -55.5t-23 -55.5t-56 -22.5h-295q80 -65 118 -133q27 -48 27 -97q-1 -149 -135 -254q-106 -84 -296 -131q-148 -37 -305 -37q-208 0 -351 42z" />
    <glyph glyph-name="uni066E.init" unicode="&#x66e;" horiz-adv-x="700" 
d="M-62 153.5q23 22.5 55 22.5h103h23q7 -1 22 -1q112 0 175 24q79 30 114 107v-1q16 32 16 88q0 92 -44 235q-14 42 -42 111q-12 30 -21 50l-17 37l142 71l16 -36q25 -56 47 -114l24 -71q52 -160 52 -281q0 -90 -28 -153q-36 -74 -97 -126t-143 -75q-46 -13 -91.5 -17
t-104.5 -4h-146q-32 0 -55 22.5t-23 55.5t23 55.5z" />
    <glyph glyph-name="uni066E.medi" unicode="&#x66e;" horiz-adv-x="705" 
d="M-51.5 153q22.5 23 55.5 23h17q177 0 261.5 63t84.5 193q0 53 -10 106q-12 62 -29 126q21 5 76 22q35 11 73 21q46 -170 50 -291q3 -65 10 -106.5t24 -69.5q19 -32 53.5 -48t89.5 -16q32 0 55.5 -23t23.5 -55q0 -33 -23 -55.5t-55 -22.5q-90 0 -160 38q-62 32 -112 96
q-70 -67 -171 -100.5t-241 -33.5h-17q-33 0 -55.5 22.5t-22.5 55.5q0 32 22.5 55z" />
    <glyph glyph-name="uni066E.fina" unicode="&#x66e;" horiz-adv-x="2316" 
d="M1938 177q-38 45 -69 133q-281 -293 -841 -293q-305 2 -497.5 71t-278.5 214q-64 105 -64 243q0 73 18 143q28 112 66 191l70 -39q32 -19 69 -39l-18 -40q-26 -53 -42 -127q-9 -37 -9 -77q0 -91 42 -165q65 -104 231 -159q168 -57 413 -57q225 0 384 40.5t263 125.5
l-1 -1q84 67 136 165q42 78 71 180q45 -11 77 -21q35 -11 75 -21q-9 -33 -19 -80q-11 -57 -11 -96q0 -46 14 -104q13 -52 46 -91l-1 1q78 -98 254 -98q33 0 56 -22.5t23 -55.5t-23 -55.5t-56 -22.5h-8q-250 3 -369 156z" />
    <glyph glyph-name="uni066F.init" unicode="&#x66f;" horiz-adv-x="895" 
d="M384 933q-26 -14 -51 -40q-29 -30 -50 -72t-30 -94v1q-4 -26 -4 -41q0 -18 2 -27q5 -41 24 -61h-1q22 -28 78 -47q52 -19 114 -24q34 -2 50 -2h46q65 0 109 4q-7 106 -44 205q-36 94 -91 153v-1q-22 24 -46 40q-30 20 -62 20q-18 0 -44 -14zM-57.5 153.5
q23.5 22.5 56.5 22.5q143 0 249 10t184 32q79 22 134 59t94 91h-154q-103 0 -191 34q-91 35 -139 93q-34 28 -49 110q-8 43 -8 83q0 29 5 61q25 143 103 245q42 55 93.5 83t107.5 28q123 0 225 -111q78 -85 123 -215q44 -132 44 -268q0 -189 -113 -305q-102 -103 -292 -148
q-164 -40 -401 -38h-17q-32 0 -55 23t-23 55q0 33 23.5 55.5z" />
    <glyph glyph-name="uni066F.medi" unicode="&#x66f;" horiz-adv-x="1019" 
d="M440 744q-37 -17 -68 -49q-35 -36 -55.5 -86.5t-20.5 -113.5q0 -27 15.5 -59.5t43.5 -65.5q64 -74 164 -119q81 36 131 112q45 69 45 143q0 47 -16.5 93t-44.5 83q-27 37 -60.5 58t-65.5 21q-31 0 -68 -17zM-55.5 154q22.5 22 55.5 22q75 0 156 6q83 5 153 15
q-73 64 -116 147q-39 77 -39 148q0 75 26.5 150t73.5 136q49 63 114.5 100t140.5 40q77 -5 139.5 -38.5t106.5 -88.5q42 -54 64 -121.5t22 -139.5q0 -83 -34 -166.5t-101 -156.5q75 -15 157.5 -23t154.5 -8q34 0 56.5 -22t22.5 -56q0 -33 -22.5 -55.5t-56.5 -22.5h-9
q-74 0 -130 5q-88 6 -128 13q-127 20 -228 54q-93 -35 -229 -54q-132 -18 -286 -18h-8q-33 0 -55.5 22.5t-22.5 55.5q0 34 22.5 56z" />
    <glyph glyph-name="uni066F.fina" unicode="&#x66f;" horiz-adv-x="1570" 
d="M928 607l1 1q-32 -40 -56.5 -92.5t-35.5 -110.5q-4 -25 -4 -52q0 -64 29 -99q29 -36 99 -56q34 -10 102 -18q85 -4 169 -4h62q-6 135 -48 252q-38 104 -96 170q-29 31 -54 47q-36 23 -74 23q-45 0 -94 -61zM1232 17q-76 0 -178 6q-101 8 -179.5 43t-126.5 92
q-30 41 -47 91.5t-17 104.5q0 31 8 81q13 80 41.5 148.5t70.5 120.5q96 122 218 122q134 0 245 -122q83 -90 131 -230q47 -136 53 -296q54 -2 120 -2q33 0 56 -22.5t23 -55.5q0 -32 -23.5 -55t-55.5 -23h-9h-122q-1 -7 -9 -47.5t-21 -83.5q-27 -88 -59 -151
q-78 -151 -208 -244h1q-162 -111 -387 -111q-192 0 -339 75q-149 75 -233 213q-86 146 -86 332q0 20 2 58q10 106 46.5 226t95.5 236l140 -74q-126 -244 -126 -447q0 -140 62.5 -245t174.5 -160q110 -55 263 -55q152 0 266 68t185 195q47 88 73 212h-49z" />
    <glyph glyph-name="uniFBA8" unicode="&#x6c1;" horiz-adv-x="728" arabic-form="initial" 
d="M-55 153.5q23 22.5 55 22.5h58h23q7 -1 22 -1q112 0 175 24q79 30 114 107v-1q16 32 16 88q0 92 -44 235q-14 42 -42 111q-12 30 -21 50l-17 37l141 74q18 -38 38 -87q30 -73 50 -137q52 -160 52 -281q0 -90 -28 -153q-36 -74 -97 -126t-143 -75q-46 -13 -91.5 -17
t-104.5 -4h-92h-9q-32 0 -55 22.5t-23 55.5t23 55.5zM496 -453q-28 3 -55.5 16.5t-49.5 35.5q-50 50 -51 109q1 78 45 164q35 70 123 188l79 -52q-52 -77 -82 -132q-42 -77 -42 -114q0 -33 25.5 -55t90.5 -46z" />
    <glyph glyph-name="uniFBA9" unicode="&#x6c1;" horiz-adv-x="1000" arabic-form="medial" 
d="M337 272q-14 -73 -14 -166q0 -233 164 -421q20 106 49 190q35 100 78 159q39 54 102.5 89t147.5 47q42 6 88 6h27q11 -1 24 -1h5v-155l-2 1h-2q-4 1 -23 1h-28q-63 0 -113 -14q-70 -21 -100 -63q-57 -84 -83 -198q-24 -99 -24 -198l-64 -36q-27 -14 -64 -36
q-159 101 -245 255h1q-73 129 -91 318q-37 -12 -88 -20q-55 -9 -90 -10v155q40 1 83 10q41 8 57 23l-1 -1q14 11 22 27t20 47l3 7q4 10 6 20q1 5 7 17zM880 -701q-28 3 -55.5 16.5t-49.5 35.5q-50 50 -51 109q1 78 45 164q35 70 123 188l79 -52q-52 -77 -82 -132
q-42 -77 -42 -114q0 -33 25.5 -55t90.5 -46z" />
    <glyph glyph-name="uniFBAF" unicode="&#x6d2;" horiz-adv-x="1499" arabic-form="final" 
d="M523 -439q-157 18 -278 68q-60 26 -103 61.5t-63 75.5q-18 33 -18 78q0 58 35 111q73 116 272 172q174 49 428 49h704q32 0 55 -23t23 -55t-23 -55t-55 -23h-5h-699q-247 0 -407 -51q-64 -20 -105.5 -46t-61.5 -53l1 1q-8 -12 -10 -22q-1 -9 0 -12q50 -69 222 -102
q146 -29 374 -29q68 0 107 1q78 0 117 1q92 0 220 4l84 2l52 3l43 -150q-7 -1 -43 -3l-152 -6l-52 -2q-170 -6 -261 -7q-43 -1 -115 -1q-173 0 -286 13z" />
    <glyph glyph-name="uniFB8F" unicode="&#x6a9;" horiz-adv-x="2321" arabic-form="final" 
d="M2320 176q33 0 55.5 -22.5t22.5 -55.5q0 -32 -22.5 -55t-55.5 -23q-163 0 -299.5 68t-229.5 198q-36 -62 -86.5 -102.5t-115.5 -71.5h1q-200 -92 -541 -92h-92q-96 0 -175 7t-166 20q-160 23 -274 75q-65 29 -121 74q-56 44 -103 128l2 -2q-41 85 -41 180q0 92 37 176
q26 60 50 102t27 47l127 -94q-24 -40 -45 -85q-9 -19 -12 -30v1q-25 -66 -25 -128q0 -53 22 -98q42 -81 162 -133t311 -72q78 -6 125 -7q80 -2 107 -2q62 -2 86 -2q148 0 279 23q89 16 170 46q101 38 146.5 93.5t45.5 126.5q0 99 -92 229q-67 94 -204 221q-84 77 -199 166
l10 93l10 91l868 373l59 -145l-806 -341q182 -127 313 -276q136 -155 185 -303q25 -69 43 -112.5t45 -85.5q68 -107 181 -160q81 -38 207 -40h8z" />
    <glyph glyph-name="uniFB94" unicode="&#x6af;" horiz-adv-x="987" arabic-form="initial" 
d="M-63.5 153.5q24.5 22.5 63.5 22.5h56h49q85 0 144.5 2.5t113.5 12.5q140 26 193 105q43 64 43 149q0 95 -44 171q-45 76 -132 177q-84 97 -194 198q-53 49 -109 94q4 38 11 92l10 90l396 170l396 169l11 -26l21 -47q11 -24 31 -72l-728 -306q78 -66 135.5 -118
t108.5 -110q128 -142 186 -273q52 -118 52 -225q0 -110 -57 -215h1q-85 -150 -288 -188q-38 -7 -83 -7l-323 1q-38 0 -63 22t-25 55q0 34 24.5 56.5zM888 1746l-390 -165l-391 -165l4 54l3 52l735 307z" />
    <glyph glyph-name="uniFB95" unicode="&#x6af;" horiz-adv-x="1187" arabic-form="medial" 
d="M-65.5 153q23.5 23 55.5 23h9h330q42 0 84.5 17.5t79.5 48.5q36 30 59.5 67.5t28.5 75.5q6 108 -72 250q-67 119 -182 250q-96 106 -203 190q4 50 12 100l12 99l854 368l11 -26l21 -47q11 -24 31 -72l-807 -339q168 -139 280 -293q44 -62 78 -121t86 -157
q66 -126 105 -190q64 -107 140 -159q83 -58 197 -62h43q33 0 55.5 -23t22.5 -55q0 -33 -22.5 -55.5t-55.5 -22.5h-8q-68 0 -121.5 8t-105.5 26h1q-64 23 -127 76.5t-119 125.5q-49 -90 -97 -134h1q-58 -52 -132.5 -75t-163.5 -27h-325q-33 0 -56 22.5t-23 55.5q0 32 23.5 55
zM940 1787l-390 -165l-391 -165l4 54l3 52l735 307z" />
    <glyph glyph-name="uniFB93" unicode="&#x6af;" horiz-adv-x="2309" arabic-form="final" 
d="M2320 176q33 0 55.5 -22.5t22.5 -55.5q0 -32 -22.5 -55t-55.5 -23q-163 0 -299.5 68t-229.5 198q-36 -62 -86.5 -102.5t-115.5 -71.5h1q-200 -92 -541 -92h-92q-96 0 -175 7t-166 20q-160 23 -274 75q-65 29 -121 74q-56 44 -103 128l2 -2q-41 85 -41 180q0 92 37 176
q26 60 50 102t27 47l127 -94q-24 -40 -45 -85q-9 -19 -12 -30v1q-25 -66 -25 -128q0 -53 22 -98q42 -81 162 -133t311 -72q78 -6 125 -7q80 -2 107 -2q62 -2 86 -2q148 0 279 23q89 16 170 46q101 38 146.5 93.5t45.5 126.5q0 99 -92 229q-67 94 -204 221q-84 77 -199 166
l10 93l10 91l868 373l59 -145l-806 -341q182 -127 313 -276q136 -155 185 -303q25 -69 43 -112.5t45 -85.5q68 -107 181 -160q81 -38 207 -40h8zM2047 1794l-850 -370l4 54l3 53l402 173l402 173z" />
    <glyph glyph-name="uniFB9F" unicode="&#x6ba;" horiz-adv-x="1709" arabic-form="final" 
d="M1446 98q0 -10 1 -18q0 -16 1 -24q0 -17 1 -25v-18q0 -137 -38 -259q-74 -206 -272 -320q-89 -51 -192.5 -76t-212.5 -25q-550 0 -645 499v-1q-10 56 -10 119q0 118 34 249q23 88 57 171t74 151q41 -29 65 -48q31 -24 62 -46q-32 -51 -66 -150q-39 -115 -55 -212
q-12 -66 -12 -129q0 -47 7 -82q-3 -34 10 -74.5t40 -79.5q60 -91 164 -146q118 -64 268 -64q102 0 190 22.5t158 63.5q138 82 185 226q30 90 30 205q0 112 -32 233q-26 93 -68 190l-29 61l-17 34l133 84q5 -8 17 -30l42 -87q102 -193 205 -266q42 -29 81.5 -39.5t84.5 -10.5
q33 0 56 -22.5t23 -55.5q0 -32 -23 -55t-56 -23q-129 0 -261 78z" />
    <glyph glyph-name="uniFEAA" unicode="&#x62f;" horiz-adv-x="1253" arabic-form="final" 
d="M279 65q-102 42 -183 123l46 64q33 45 45 62q76 -66 162.5 -100t165.5 -34q40 0 84.5 7.5t78.5 21.5q36 13 103 49q49 26 72 49l-313 754l74 31l70 30q70 -174 174 -419l141 -340q24 -59 38 -87t38 -49q27 -26 68.5 -38.5t105.5 -12.5q33 0 56 -22.5t23 -55.5t-23 -55.5
t-56 -22.5q-116 0 -198 42q-74 37 -120 99q-39 -28 -90 -52q-66 -31 -105 -47h1q-55 -21 -114.5 -31.5t-132.5 -10.5q-107 0 -211 45z" />
    <glyph glyph-name="uniFB7B" unicode="&#x686;" horiz-adv-x="1587" arabic-form="final" 
d="M1003 83l137 -137l-139 -138l-136 136zM624 82l136 -138l-138 -138l-136 137zM818 -203l124 -124l-125 -124l-123 123zM1120.5 -568q125.5 40 247.5 124l90 -129q-296 -199 -643 -199q-151 0 -282.5 40.5t-229.5 118.5q-102 80 -157.5 193.5t-55.5 254.5v21q0 14 1 22
q6 101 46 194.5t110 175.5q70 81 168.5 146t218.5 111q235 88 529 88h35q-46 24 -142 98l-24 18q-121 91 -197 133q-114 63 -214 63q-95 0 -190 -78q-62 -50 -135 -151l-21 14q-15 9 -31 20l-18 12q-3 2 -28 19l-31 19q80 128 181 206q126 97 257 97q150 0 301 -78
q61 -32 118 -72.5t140 -104.5l23 -18q76 -60 127 -97.5t105 -68.5l-51 -159l-154 -10q-1 -5 -1 -15v-14q0 -38 9 -73q12 -45 37 -77q26 -31 58 -50.5t74 -30.5q39 -11 89.5 -15t121.5 -4q32 0 55.5 -23.5t23.5 -56.5q0 -32 -23 -54t-56 -22q-171 0 -286 40.5t-182 120.5
q-33 46 -53.5 104t-23.5 120l-1 13q0 7 2 25q-165 -16 -310 -66t-255 -128q-111 -80 -176 -179t-74 -209q-1 -154 88 -264q79 -100 225 -154q136 -51 297 -51q142 0 267.5 40z" />
    <glyph glyph-name="uniFE84" unicode="&#x623;" horiz-adv-x="569" arabic-form="final" 
d="M361 44.5q-75 24.5 -126 75.5q-53 53 -71 138q-10 47 -10 122q4 160 4 285q0 175 -2 268q-3 131 -10 283q-8 132 -21 216l156 28q15 -86 23 -231q8 -176 9 -299q2 -196 2 -285l-1 -160q-1 -44 -1 -130q0 -46 7 -74.5t29 -49.5q25 -25 72 -39.5t112 -15.5h9q32 0 55.5 -23
t23.5 -55q0 -33 -23 -55.5t-56 -22.5q-106 0 -181 24.5zM376 1990q-10 1 -32 5q-30 6 -63 6q-42 0 -73 -15h1q-39 -15 -63 -49.5t-24 -73.5q0 -25 10 -45q16 -39 59 -68t93 -29q28 0 51 9l-1 -1q38 11 91 42q44 24 58 37l53 -69q-51 -35 -201 -118l-59 -33l-244 -135l-21 39
l-21 38l210 117q-53 23 -92.5 59t-58.5 78q-14 37 -14 79q0 67 39 123q41 58 102 82q52 20 105 20q35 0 68.5 -5.5t52.5 -12.5z" />
    <glyph glyph-name="uniFE88" unicode="&#x625;" horiz-adv-x="569" arabic-form="final" 
d="M361 44.5q-75 24.5 -126 75.5q-53 53 -71 138q-10 47 -10 122q4 160 4 285q0 175 -2 268q-3 131 -10 283q-8 132 -21 216l156 28q15 -86 23 -231q8 -176 9 -299q2 -196 2 -285l-1 -160q-1 -44 -1 -130q0 -46 7 -74.5t29 -49.5q25 -25 72 -39.5t112 -15.5h9q32 0 55.5 -23
t23.5 -55q0 -33 -23 -55.5t-56 -22.5q-106 0 -181 24.5zM490 -195q-10 1 -32 5q-30 6 -63 6q-42 0 -73 -15h1q-39 -15 -63 -49.5t-24 -73.5q0 -25 10 -45q16 -39 59 -68t93 -29q28 0 51 9l-1 -1q38 11 91 42q44 24 58 37l53 -69q-51 -35 -201 -118l-59 -33l-244 -135l-21 39
l-21 38l210 117q-53 23 -92.5 59t-58.5 78q-14 37 -14 79q0 67 39 123q41 58 102 82q52 20 105 20q35 0 68.5 -5.5t52.5 -12.5z" />
    <glyph glyph-name="uniFE82" unicode="&#x622;" horiz-adv-x="569" arabic-form="final" 
d="M361 44.5q-75 24.5 -126 75.5q-53 53 -71 138q-10 47 -10 122q4 160 4 285q0 175 -2 268q-3 131 -10 283q-8 132 -21 216l156 28q15 -86 23 -231q8 -176 9 -299q2 -196 2 -285l-1 -160q-1 -44 -1 -130q0 -46 7 -74.5t29 -49.5q25 -25 72 -39.5t112 -15.5h9q32 0 55.5 -23
t23.5 -55q0 -33 -23 -55.5t-56 -22.5q-106 0 -181 24.5zM-137 1553q2 4 13 35t27 58h-1q30 47 70 77t85 38q13 3 41 3q38 0 71.5 -9t70.5 -25q43 -16 65.5 -22.5t52.5 -6.5q40 0 86 35q23 18 38.5 36.5t17.5 20.5q15 -9 50 -32q26 -18 48 -32q-8 -14 -28.5 -38t-48.5 -46
q-81 -64 -162 -64q-38 0 -70 8t-76 23h1l-16 6q-35 13 -56.5 19.5t-43.5 6.5q-7 0 -23 -2h1q-18 -2 -34.5 -16t-29.5 -34q-23 -34 -37 -74z" />
    <glyph glyph-name="uniFB51" unicode="&#x671;" horiz-adv-x="569" arabic-form="final" 
d="M361 44.5q-75 24.5 -126 75.5q-53 53 -71 138q-10 47 -10 122q4 160 4 285q0 175 -2 268q-3 131 -10 283q-8 132 -21 216l156 28q15 -86 23 -231q8 -176 9 -299q2 -196 2 -285l-1 -160q-1 -44 -1 -130q0 -46 7 -74.5t29 -49.5q25 -25 72 -39.5t112 -15.5h9q32 0 55.5 -23
t23.5 -55q0 -33 -23 -55.5t-56 -22.5q-106 0 -181 24.5zM269 1636q32 0 65 3q82 9 119 41q26 23 29 57q0 23 -18 41q-24 25 -59 25q-9 0 -23 -2q-60 -12 -103 -55q-46 -46 -75 -107q28 -3 65 -3zM-70 1670q51 25 98 35q12 3 23 3q22 0 48 -12q23 -11 42 -34q43 83 94 132
q30 28 65 46.5t70 23.5q17 4 37 4q63 0 104 -44q36 -39 36 -80l-1 -12q-2 -62 -53 -104q-39 -32 -106 -46q-53 -12 -118 -12q-31 0 -56 2.5t-29 2.5q-45 5 -75 30q-14 9 -27 28q-12 9 -32 9q-24 0 -51 -12q-21 -9 -51 -28z" />
    <glyph glyph-name="uniFE91" unicode="&#x628;" horiz-adv-x="664" arabic-form="initial" 
d="M-62 153.5q23 22.5 55 22.5h103h23q7 -1 22 -1q112 0 175 24q79 30 114 107v-1q16 32 16 88q0 92 -44 235q-14 42 -42 111q-12 30 -21 50l-17 37l142 71l16 -36q25 -56 47 -114l24 -71q52 -160 52 -281q0 -90 -28 -153q-36 -74 -97 -126t-143 -75q-46 -13 -91.5 -17
t-104.5 -4h-146q-32 0 -55 22.5t-23 55.5t23 55.5zM441 -376l-147 -147l-148 148l147 147z" />
    <glyph glyph-name="uniFE92" unicode="&#x628;" horiz-adv-x="718" arabic-form="medial" 
d="M-51.5 153q22.5 23 55.5 23h17q177 0 261.5 63t84.5 193q0 53 -10 106q-12 62 -29 126q21 5 76 22q35 11 73 21q46 -170 50 -291q3 -65 10 -106.5t24 -69.5q19 -32 53.5 -48t89.5 -16q32 0 55.5 -23t23.5 -55q0 -33 -23 -55.5t-55 -22.5q-90 0 -160 38q-62 32 -112 96
q-70 -67 -171 -100.5t-241 -33.5h-17q-33 0 -55.5 22.5t-22.5 55.5q0 32 22.5 55zM536 -361l-147 -147l-148 148l147 147z" />
    <glyph glyph-name="uniFE90" unicode="&#x628;" horiz-adv-x="2245" arabic-form="final" 
d="M1938 177q-38 45 -69 133q-281 -293 -841 -293q-305 2 -497.5 71t-278.5 214q-64 105 -64 243q0 73 18 143q28 112 66 191l70 -39q32 -19 69 -39l-18 -40q-26 -53 -42 -127q-9 -37 -9 -77q0 -91 42 -165q65 -104 231 -159q168 -57 413 -57q225 0 384 40.5t263 125.5
l-1 -1q84 67 136 165q42 78 71 180q45 -11 77 -21q35 -11 75 -21q-9 -33 -19 -80q-11 -57 -11 -96q0 -46 14 -104q13 -52 46 -91l-1 1q78 -98 254 -98q33 0 56 -22.5t23 -55.5t-23 -55.5t-56 -22.5h-8q-250 3 -369 156zM1138 -362l-147 -147l-148 148l147 147z" />
    <glyph glyph-name="uniFB57" unicode="&#x67e;" horiz-adv-x="2247" arabic-form="final" 
d="M1938 177q-38 45 -69 133q-281 -293 -841 -293q-305 2 -497.5 71t-278.5 214q-64 105 -64 243q0 73 18 143q28 112 66 191l70 -39q32 -19 69 -39l-18 -40q-26 -53 -42 -127q-9 -37 -9 -77q0 -91 42 -165q65 -104 231 -159q168 -57 413 -57q225 0 384 40.5t263 125.5
l-1 -1q84 67 136 165q42 78 71 180q45 -11 77 -21q35 -11 75 -21q-9 -33 -19 -80q-11 -57 -11 -96q0 -46 14 -104q13 -52 46 -91l-1 1q78 -98 254 -98q33 0 56 -22.5t23 -55.5t-23 -55.5t-56 -22.5h-8q-250 3 -369 156zM1221 -151l146 -146l-148 -148l-146 146zM815 -152
l146 -147l-148 -148l-146 147zM1023 -457l132 -132l-133 -133l-132 132z" />
    <glyph glyph-name="uniFB58" unicode="&#x67e;" horiz-adv-x="859" arabic-form="initial" 
d="M-55 153.5q23 22.5 55 22.5h111q75 0 136.5 3.5t117.5 14.5q148 28 185 112v-1q16 32 16 88q0 44 -12.5 100t-37.5 135q-14 42 -42 111q-12 30 -21 50l-17 37l142 71l16 -36q25 -56 47 -114l24 -71q52 -160 52 -281q0 -90 -28 -153q-36 -74 -97 -126t-143 -75
q-39 -12 -151 -18q-58 -3 -144 -3h-154q-32 0 -55 22.5t-23 55.5t23 55.5zM575 -202l146 -146l-148 -148l-146 146zM169 -203l146 -147l-148 -148l-146 147zM377 -508l132 -132l-133 -133l-132 132z" />
    <glyph glyph-name="uniFB59" unicode="&#x67e;" horiz-adv-x="859" arabic-form="medial" 
d="M-58.5 153.5q22.5 22.5 55.5 22.5h76q209 0 312 44q128 55 128 190q0 64 -9 115q-7 43 -28 124q21 5 76 22q35 11 73 21q21 -75 31 -148l8 -67q7 -80 21 -155q17 -89 78 -126q35 -20 92 -20q33 0 56.5 -22.5t23.5 -55.5t-23 -55.5t-55 -22.5q-91 0 -161 40
q-67 36 -112 98q-70 -69 -223 -106q-134 -32 -288 -32h-76q-33 0 -55.5 22.5t-22.5 55.5t22.5 55.5zM566 -156l146 -146l-148 -148l-146 146zM160 -157l146 -147l-148 -148l-146 147zM368 -462l132 -132l-133 -133l-132 132z" />
    <glyph glyph-name="uniFE97" unicode="&#x62a;" horiz-adv-x="788" arabic-form="initial" 
d="M389 1246l-146 -146l-148 147l146 147zM744 1244l-145 -146l-148 148l146 146zM-92 153.5q23 22.5 55 22.5h111q75 0 136.5 3.5t117.5 14.5q148 28 185 112v-1q16 32 16 88q0 44 -12.5 100t-37.5 135q-14 42 -42 111q-12 30 -21 50l-17 37l142 71l16 -36q25 -56 47 -114
l24 -71q52 -160 52 -281q0 -90 -28 -153q-36 -74 -97 -126t-143 -75q-39 -12 -151 -18q-58 -3 -144 -3h-154q-32 0 -55 22.5t-23 55.5t23 55.5z" />
    <glyph glyph-name="uniFE98" unicode="&#x62a;" horiz-adv-x="870" arabic-form="medial" 
d="M-58.5 153.5q22.5 22.5 55.5 22.5h76q209 0 312 44q128 55 128 190q0 64 -9 115q-7 43 -28 124q21 5 76 22q35 11 73 21q21 -75 31 -148l8 -67q7 -80 21 -155q17 -89 78 -126q35 -20 92 -20q33 0 56.5 -22.5t23.5 -55.5t-23 -55.5t-55 -22.5q-91 0 -161 40
q-67 36 -112 98q-70 -69 -223 -106q-134 -32 -288 -32h-76q-33 0 -55.5 22.5t-22.5 55.5t22.5 55.5zM410 1022l-146 -146l-148 147l146 147zM765 1020l-145 -146l-148 148l146 146z" />
    <glyph glyph-name="uniFE96" unicode="&#x62a;" horiz-adv-x="2253" arabic-form="final" 
d="M1938 177q-38 45 -69 133q-281 -293 -841 -293q-305 2 -497.5 71t-278.5 214q-64 105 -64 243q0 73 18 143q28 112 66 191l70 -39q32 -19 69 -39l-18 -40q-26 -53 -42 -127q-9 -37 -9 -77q0 -91 42 -165q65 -104 231 -159q168 -57 413 -57q225 0 384 40.5t263 125.5
l-1 -1q84 67 136 165q42 78 71 180q45 -11 77 -21q35 -11 75 -21q-9 -33 -19 -80q-11 -57 -11 -96q0 -46 14 -104q13 -52 46 -91l-1 1q78 -98 254 -98q33 0 56 -22.5t23 -55.5t-23 -55.5t-56 -22.5h-8q-250 3 -369 156zM993 984l-146 -146l-148 147l146 147zM1348 982
l-145 -146l-148 148l146 146z" />
    <glyph glyph-name="uniFE9B" unicode="&#x62b;" horiz-adv-x="799" arabic-form="initial" 
d="M510 1242l146 146l148 -148l-146 -146zM104 1243l146 147l148 -148l-146 -147zM327 1533l132 132l133 -133l-132 -132zM-55 153.5q23 22.5 55 22.5h111q75 0 136.5 3.5t117.5 14.5q148 28 185 112v-1q16 32 16 88q0 44 -12.5 100t-37.5 135q-14 42 -42 111q-12 30 -21 50
l-17 37l142 71l16 -36q25 -56 47 -114l24 -71q52 -160 52 -281q0 -90 -28 -153q-36 -74 -97 -126t-143 -75q-39 -12 -151 -18q-58 -3 -144 -3h-154q-32 0 -55 22.5t-23 55.5t23 55.5z" />
    <glyph glyph-name="uniFE9C" unicode="&#x62b;" horiz-adv-x="864" arabic-form="medial" 
d="M-58.5 153.5q22.5 22.5 55.5 22.5h76q209 0 312 44q128 55 128 190q0 64 -9 115q-7 43 -28 124q21 5 76 22q35 11 73 21q21 -75 31 -148l8 -67q7 -80 21 -155q17 -89 78 -126q35 -20 92 -20q33 0 56.5 -22.5t23.5 -55.5t-23 -55.5t-55 -22.5q-91 0 -161 40
q-67 36 -112 98q-70 -69 -223 -106q-134 -32 -288 -32h-76q-33 0 -55.5 22.5t-22.5 55.5t22.5 55.5zM466 1007l146 146l148 -148l-146 -146zM60 1008l146 147l148 -148l-146 -147zM283 1298l132 132l133 -133l-132 -132z" />
    <glyph glyph-name="uniFE9A" unicode="&#x62b;" horiz-adv-x="2233" arabic-form="final" 
d="M1938 177q-38 45 -69 133q-281 -293 -841 -293q-305 2 -497.5 71t-278.5 214q-64 105 -64 243q0 73 18 143q28 112 66 191l70 -39q32 -19 69 -39l-18 -40q-26 -53 -42 -127q-9 -37 -9 -77q0 -91 42 -165q65 -104 231 -159q168 -57 413 -57q225 0 384 40.5t263 125.5
l-1 -1q84 67 136 165q42 78 71 180q45 -11 77 -21q35 -11 75 -21q-9 -33 -19 -80q-11 -57 -11 -96q0 -46 14 -104q13 -52 46 -91l-1 1q78 -98 254 -98q33 0 56 -22.5t23 -55.5t-23 -55.5t-56 -22.5h-8q-250 3 -369 156zM1106 968l146 146l148 -148l-146 -146zM700 969
l146 147l148 -148l-146 -147zM923 1259l132 132l133 -133l-132 -132z" />
    <glyph glyph-name="uniFB68" unicode="&#x679;" horiz-adv-x="774" arabic-form="initial" 
d="M-62 153.5q23 22.5 55 22.5h103h23q7 -1 22 -1q112 0 175 24q79 30 114 107v-1q16 32 16 88q0 92 -44 235q-14 42 -42 111q-12 30 -21 50l-17 37l142 71l16 -36q25 -56 47 -114l24 -71q52 -160 52 -281q0 -90 -28 -153q-36 -74 -97 -126t-143 -75q-46 -13 -91.5 -17
t-104.5 -4h-146q-32 0 -55 22.5t-23 55.5t23 55.5zM531 1230.5q-56 -30.5 -121 -40.5q-45 -5 -85 -5q-39 0 -92 5q91 125 168 180q38 27 68 41t59 14q39 0 63.5 -24t24.5 -59q0 -17 -8 -36l-1.5 -3t-0.5 0l2 3v0q-21 -45 -77 -75.5zM666 1435.5q-24 30.5 -62.5 47
t-81.5 16.5q-54 0 -109.5 -31t-117.5 -89q0 71 -8 181l-5 52l-6 53q-9 81 -11 106l-80 -10q14 -78 24 -173l5 -54l4 -54q2 -40 2 -57q0 -19 -2 -51l-4 -42l-1 -13l-2 -14q-2 -17 -8 -25l-32 -43l-6 -10l-7 -10q-8 -10 -18 -9q-49 13 -100 33l-15 -36l-15 -35
q159 -61 306 -61q57 0 111 9q112 20 193 88q35 29 55.5 74.5t16.5 87.5v4l1 -6l-1 2q-2 39 -26 69.5z" />
    <glyph glyph-name="uniFB69" unicode="&#x679;" horiz-adv-x="859" arabic-form="medial" 
d="M-58.5 153.5q22.5 22.5 55.5 22.5h76q209 0 312 44q128 55 128 190q0 64 -9 115q-7 43 -28 124q21 5 76 22q35 11 73 21q21 -75 31 -148l8 -67q7 -80 21 -155q17 -89 78 -126q35 -20 92 -20q33 0 56.5 -22.5t23.5 -55.5t-23 -55.5t-55 -22.5q-91 0 -161 40
q-67 36 -112 98q-70 -69 -223 -106q-134 -32 -288 -32h-76q-33 0 -55.5 22.5t-22.5 55.5t22.5 55.5zM592 1120.5q-56 -30.5 -121 -40.5q-45 -5 -85 -5q-39 0 -92 5q91 125 168 180q38 27 68 41t59 14q39 0 63.5 -24t24.5 -59q0 -17 -8 -36l-1.5 -3t-0.5 0l2 3v0
q-21 -45 -77 -75.5zM727 1325.5q-24 30.5 -62.5 47t-81.5 16.5q-54 0 -109.5 -31t-117.5 -89q0 71 -8 181l-5 52l-6 53q-9 81 -11 106l-80 -10q14 -78 24 -173l5 -54l4 -54q2 -40 2 -57q0 -19 -2 -51l-4 -42l-1 -13l-2 -14q-2 -17 -8 -25l-32 -43l-6 -10l-7 -10
q-8 -10 -18 -9q-49 13 -100 33l-15 -36l-15 -35q159 -61 306 -61q57 0 111 9q112 20 193 88q35 29 55.5 74.5t16.5 87.5v4l1 -6l-1 2q-2 39 -26 69.5z" />
    <glyph glyph-name="uniFB67" unicode="&#x679;" horiz-adv-x="2236" arabic-form="final" 
d="M1938 177q-38 45 -69 133q-281 -293 -841 -293q-305 2 -497.5 71t-278.5 214q-64 105 -64 243q0 73 18 143q28 112 66 191l70 -39q32 -19 69 -39l-18 -40q-26 -53 -42 -127q-9 -37 -9 -77q0 -91 42 -165q65 -104 231 -159q168 -57 413 -57q225 0 384 40.5t263 125.5
l-1 -1q84 67 136 165q42 78 71 180q45 -11 77 -21q35 -11 75 -21q-9 -33 -19 -80q-11 -57 -11 -96q0 -46 14 -104q13 -52 46 -91l-1 1q78 -98 254 -98q33 0 56 -22.5t23 -55.5t-23 -55.5t-56 -22.5h-8q-250 3 -369 156zM1254 971.5q-56 -30.5 -121 -40.5q-45 -5 -85 -5
q-39 0 -92 5q91 125 168 180q38 27 68 41t59 14q39 0 63.5 -24t24.5 -59q0 -17 -8 -36l-1.5 -3t-0.5 0l2 3v0q-21 -45 -77 -75.5zM1389 1176.5q-24 30.5 -62.5 47t-81.5 16.5q-54 0 -109.5 -31t-117.5 -89q0 71 -8 181l-5 52l-6 53q-9 81 -11 106l-80 -10q14 -78 24 -173
l5 -54l4 -54q2 -40 2 -57q0 -19 -2 -51l-4 -42l-1 -13l-2 -14q-2 -17 -8 -25l-32 -43l-6 -10l-7 -10q-8 -10 -18 -9q-49 13 -100 33l-15 -36l-15 -35q159 -61 306 -61q57 0 111 9q112 20 193 88q35 29 55.5 74.5t16.5 87.5v4l1 -6l-1 2q-2 39 -26 69.5z" />
    <glyph glyph-name="uniFE94" unicode="&#x629;" horiz-adv-x="1126" arabic-form="final" 
d="M200 278q-48 59 -48 147q0 63 18 101q49 101 143 182q79 68 178 119q52 27 97.5 44.5t51.5 19.5l-15 145l157 34l4 -35q2 -27 6 -63l8 -76q4 -39 13 -117q0 -7 2 -21l4 -34v1q23 -201 52 -346q12 -55 17 -70l10 -29v1q24 -59 71 -83q43 -22 121 -22q33 0 56 -22.5
t23 -55.5q0 -32 -23.5 -55t-55.5 -23q-114 0 -187 35h1q-76 35 -131 126q-135 -21 -229 -21q-250 0 -344 118zM634 720l-59 -26q-76 -33 -144 -77q-79 -52 -110 -111q-18 -31 -18 -67q0 -67 74 -99q57 -26 161 -26q83 0 181 18q-24 116 -59 398zM594 1426l-146 -146
l-148 147l146 147zM949 1424l-145 -146l-148 148l146 146z" />
    <glyph glyph-name="uniFB7C" unicode="&#x686;" horiz-adv-x="1559" arabic-form="initial" 
d="M-57.5 153.5q23.5 22.5 56.5 22.5h198q245 0 547 100q235 78 521 223l-298 124l-48 22q-90 43 -132 59q-91 35 -153 35q-69 0 -135 -49q-50 -36 -100 -103q-22 -30 -56 -88l-134 80q33 67 90 136q74 90 159 135.5t176 45.5q82 0 194 -40q59 -21 176 -76l30 -14
q52 -24 106 -51q95 -48 189 -91q61 -28 111 -46q5 -26 16 -79l4 -21l12 -57q-70 -30 -97 -42l-42 -21l-58 -30q-271 -133 -500 -207q-311 -101 -578 -101h-198q-33 0 -56.5 23t-23.5 55q0 33 23.5 55.5zM954 -145l146 -146l-148 -148l-146 146zM548 -146l146 -147l-148 -148
l-146 147zM756 -451l132 -132l-133 -133l-132 132z" />
    <glyph glyph-name="uniFB7D" unicode="&#x686;" horiz-adv-x="1663" arabic-form="medial" 
d="M-56 152.5q23 23.5 56 23.5h183q245 0 505 91q106 37 211.5 85t237.5 114l60 30q-40 13 -86.5 34.5t-115.5 55.5q-49 23 -112 54q-119 57 -222 84q-54 14 -100 14q-97 0 -189 -96q-33 -35 -59.5 -73.5t-42.5 -69.5l-130 88q73 135 167 213q117 97 254 97q117 0 277 -67
q61 -25 139 -65q174 -91 275 -133q72 -30 135 -43l9 -42l8 -37q6 -35 16 -77l-27 -12q-18 -8 -49 -23l-55 -27q23 -82 101 -130q62 -40 146 -54q59 -11 117 -11h6h8q33 0 56 -23.5t23 -55.5q0 -33 -23 -55t-56 -22h-14q-189 0 -323 74q-132 73 -185 206q-250 -127 -450 -193
q-266 -88 -512 -88l-183 1q-33 0 -56 22t-23 55q0 32 23 55.5zM953 -151l146 -146l-148 -148l-146 146zM547 -152l146 -147l-148 -148l-146 147zM755 -457l132 -132l-133 -133l-132 132z" />
    <glyph glyph-name="uniFE9F" unicode="&#x62c;" horiz-adv-x="1548" arabic-form="initial" 
d="M-57.5 153.5q23.5 22.5 56.5 22.5h198q245 0 547 100q235 78 521 223l-298 124l-48 22q-90 43 -132 59q-91 35 -153 35q-69 0 -135 -49q-50 -36 -100 -103q-22 -30 -56 -88l-134 80q33 67 90 136q74 90 159 135.5t176 45.5q82 0 194 -40q59 -21 176 -76l30 -14
q52 -24 106 -51q95 -48 189 -91q61 -28 111 -46q5 -26 16 -79l4 -21l12 -57q-70 -30 -97 -42l-42 -21l-58 -30q-271 -133 -500 -207q-311 -101 -578 -101h-198q-33 0 -56.5 23t-23.5 55q0 33 23.5 55.5zM912 -365l-147 -147l-148 148l147 147z" />
    <glyph glyph-name="uniFEA0" unicode="&#x62c;" horiz-adv-x="1663" arabic-form="medial" 
d="M-56 152.5q23 23.5 56 23.5h183q245 0 505 91q106 37 211.5 85t237.5 114l60 30q-40 13 -86.5 34.5t-115.5 55.5q-49 23 -112 54q-119 57 -222 84q-54 14 -100 14q-97 0 -189 -96q-33 -35 -59.5 -73.5t-42.5 -69.5l-130 88q73 135 167 213q117 97 254 97q117 0 277 -67
q61 -25 139 -65q174 -91 275 -133q72 -30 135 -43l9 -42l8 -37q6 -35 16 -77l-27 -12q-18 -8 -49 -23l-55 -27q23 -82 101 -130q62 -40 146 -54q59 -11 117 -11h6h8q33 0 56 -23.5t23 -55.5q0 -33 -23 -55t-56 -22h-14q-189 0 -323 74q-132 73 -185 206q-250 -127 -450 -193
q-266 -88 -512 -88l-183 1q-33 0 -56 22t-23 55q0 32 23 55.5zM936 -363l-147 -147l-148 148l147 147z" />
    <glyph glyph-name="uniFE9E" unicode="&#x62c;" horiz-adv-x="1609" arabic-form="final" 
d="M1120.5 -568q125.5 40 247.5 124l90 -129q-296 -199 -643 -199q-151 0 -282.5 40.5t-229.5 118.5q-102 80 -157.5 193.5t-55.5 254.5v21q0 14 1 22q6 101 46 194.5t110 175.5q70 81 168.5 146t218.5 111q235 88 529 88h35q-46 24 -142 98l-24 18q-121 91 -197 133
q-114 63 -214 63q-95 0 -190 -78q-62 -50 -135 -151l-21 14q-15 9 -31 20l-18 12q-3 2 -28 19l-31 19q80 128 181 206q126 97 257 97q150 0 301 -78q61 -32 118 -72.5t140 -104.5l23 -18q76 -60 127 -97.5t105 -68.5l-51 -159l-154 -10q-1 -5 -1 -15v-14q0 -38 9 -73
q12 -45 37 -77q26 -31 58 -50.5t74 -30.5q39 -11 89.5 -15t121.5 -4q32 0 55.5 -23.5t23.5 -56.5q0 -32 -23 -54t-56 -22q-171 0 -286 40.5t-182 120.5q-33 46 -53.5 104t-23.5 120l-1 13q0 7 2 25q-165 -16 -310 -66t-255 -128q-111 -80 -176 -179t-74 -209
q-1 -154 88 -264q79 -100 225 -154q136 -51 297 -51q142 0 267.5 40zM970 -122l-147 -147l-148 148l147 147z" />
    <glyph glyph-name="uniFEA7" unicode="&#x62e;" horiz-adv-x="1548" arabic-form="initial" 
d="M-57.5 153.5q23.5 22.5 56.5 22.5h198q245 0 547 100q235 78 521 223l-298 124l-48 22q-90 43 -132 59q-91 35 -153 35q-69 0 -135 -49q-50 -36 -100 -103q-22 -30 -56 -88l-134 80q33 67 90 136q74 90 159 135.5t176 45.5q82 0 194 -40q59 -21 176 -76l30 -14
q52 -24 106 -51q95 -48 189 -91q61 -28 111 -46q5 -26 16 -79l4 -21l12 -57q-70 -30 -97 -42l-42 -21l-58 -30q-271 -133 -500 -207q-311 -101 -578 -101h-198q-33 0 -56.5 23t-23.5 55q0 33 23.5 55.5zM739 1285l-147 -147l-148 148l147 147z" />
    <glyph glyph-name="uniFEA8" unicode="&#x62e;" horiz-adv-x="1669" arabic-form="medial" 
d="M-56 152.5q23 23.5 56 23.5h183q245 0 505 91q106 37 211.5 85t237.5 114l60 30q-40 13 -86.5 34.5t-115.5 55.5q-49 23 -112 54q-119 57 -222 84q-54 14 -100 14q-97 0 -189 -96q-33 -35 -59.5 -73.5t-42.5 -69.5l-130 88q73 135 167 213q117 97 254 97q117 0 277 -67
q61 -25 139 -65q174 -91 275 -133q72 -30 135 -43l9 -42l8 -37q6 -35 16 -77l-27 -12q-18 -8 -49 -23l-55 -27q23 -82 101 -130q62 -40 146 -54q59 -11 117 -11h6h8q33 0 56 -23.5t23 -55.5q0 -33 -23 -55t-56 -22h-14q-189 0 -323 74q-132 73 -185 206q-250 -127 -450 -193
q-266 -88 -512 -88l-183 1q-33 0 -56 22t-23 55q0 32 23 55.5zM687 1224l-147 -147l-148 148l147 147z" />
    <glyph glyph-name="uniFEA6" unicode="&#x62e;" horiz-adv-x="1603" arabic-form="final" 
d="M1120.5 -568q125.5 40 247.5 124l90 -129q-296 -199 -643 -199q-151 0 -282.5 40.5t-229.5 118.5q-102 80 -157.5 193.5t-55.5 254.5v21q0 14 1 22q6 101 46 194.5t110 175.5q70 81 168.5 146t218.5 111q235 88 529 88h35q-46 24 -142 98l-24 18q-121 91 -197 133
q-114 63 -214 63q-95 0 -190 -78q-62 -50 -135 -151l-21 14q-15 9 -31 20l-18 12q-3 2 -28 19l-31 19q80 128 181 206q126 97 257 97q150 0 301 -78q61 -32 118 -72.5t140 -104.5l23 -18q76 -60 127 -97.5t105 -68.5l-51 -159l-154 -10q-1 -5 -1 -15v-14q0 -38 9 -73
q12 -45 37 -77q26 -31 58 -50.5t74 -30.5q39 -11 89.5 -15t121.5 -4q32 0 55.5 -23.5t23.5 -56.5q0 -32 -23 -54t-56 -22q-171 0 -286 40.5t-182 120.5q-33 46 -53.5 104t-23.5 120l-1 13q0 7 2 25q-165 -16 -310 -66t-255 -128q-111 -80 -176 -179t-74 -209
q-1 -154 88 -264q79 -100 225 -154q136 -51 297 -51q142 0 267.5 40zM759 1384l-147 -147l-148 148l147 147z" />
    <glyph glyph-name="uniFEAC" unicode="&#x630;" horiz-adv-x="1247" arabic-form="final" 
d="M279 65q-102 42 -183 123l46 64q33 45 45 62q76 -66 162.5 -100t165.5 -34q40 0 84.5 7.5t78.5 21.5q36 13 103 49q49 26 72 49l-313 754l74 31l70 30q70 -174 174 -419l141 -340q24 -59 38 -87t38 -49q27 -26 68.5 -38.5t105.5 -12.5q33 0 56 -22.5t23 -55.5t-23 -55.5
t-56 -22.5q-116 0 -198 42q-74 37 -120 99q-39 -28 -90 -52q-66 -31 -105 -47h1q-55 -21 -114.5 -31.5t-132.5 -10.5q-107 0 -211 45zM774 1468l-147 -147l-148 148l147 147z" />
    <glyph glyph-name="uniFB89" unicode="&#x688;" horiz-adv-x="1242" arabic-form="final" 
d="M279 65q-102 42 -183 123l46 64q33 45 45 62q76 -66 162.5 -100t165.5 -34q40 0 84.5 7.5t78.5 21.5q36 13 103 49q49 26 72 49l-313 754l74 31l70 30q70 -174 174 -419l141 -340q24 -59 38 -87t38 -49q27 -26 68.5 -38.5t105.5 -12.5q33 0 56 -22.5t23 -55.5t-23 -55.5
t-56 -22.5q-116 0 -198 42q-74 37 -120 99q-39 -28 -90 -52q-66 -31 -105 -47h1q-55 -21 -114.5 -31.5t-132.5 -10.5q-107 0 -211 45zM716 1389.5q-56 -30.5 -121 -40.5q-45 -5 -85 -5q-39 0 -92 5q91 125 168 180q38 27 68 41t59 14q39 0 63.5 -24t24.5 -59q0 -17 -8 -36
l-1.5 -3t-0.5 0l2 3v0q-21 -45 -77 -75.5zM851 1594.5q-24 30.5 -62.5 47t-81.5 16.5q-54 0 -109.5 -31t-117.5 -89q0 71 -8 181l-5 52l-6 53q-9 81 -11 106l-80 -10q14 -78 24 -173l5 -54l4 -54q2 -40 2 -57q0 -19 -2 -51l-4 -42l-1 -13l-2 -14q-2 -17 -8 -25l-32 -43
l-6 -10l-7 -10q-8 -10 -18 -9q-49 13 -100 33l-15 -36l-15 -35q159 -61 306 -61q57 0 111 9q112 20 193 88q35 29 55.5 74.5t16.5 87.5v4l1 -6l-1 2q-2 39 -26 69.5z" />
    <glyph glyph-name="uniFEB0" unicode="&#x632;" horiz-adv-x="819" arabic-form="final" 
d="M605 69q0 -160 -92 -312q-82 -136 -233 -265q-133 -113 -306 -202q-25 52 -35 71q-22 43 -35 69q146 76 264 171q130 104 201 216q79 125 79 253q0 14 -2 40q-11 87 -50 236l-9 31q-8 34 -23 84l-29 94l150 46q78 -229 154 -324q40 -52 84.5 -76.5t96.5 -24.5h5
q33 0 56 -23.5t23 -55.5q0 -33 -23 -55t-56 -22q-47 0 -86 13q-69 21 -134 89v-53zM538 994l-147 -147l-148 148l147 147z" />
    <glyph glyph-name="uniFB8D" unicode="&#x691;" horiz-adv-x="822" arabic-form="final" 
d="M605 69q0 -160 -92 -312q-82 -136 -233 -265q-133 -113 -306 -202q-25 52 -35 71q-22 43 -35 69q146 76 264 171q130 104 201 216q79 125 79 253q0 14 -2 40q-11 87 -50 236l-9 31q-8 34 -23 84l-29 94l150 46q78 -229 154 -324q40 -52 84.5 -76.5t96.5 -24.5h5
q33 0 56 -23.5t23 -55.5q0 -33 -23 -55t-56 -22q-47 0 -86 13q-69 21 -134 89v-53zM599 1012.5q-56 -30.5 -121 -40.5q-45 -5 -85 -5q-39 0 -92 5q91 125 168 180q38 27 68 41t59 14q39 0 63.5 -24t24.5 -59q0 -17 -8 -36l-1.5 -3t-0.5 0l2 3v0q-21 -45 -77 -75.5z
M734 1217.5q-24 30.5 -62.5 47t-81.5 16.5q-54 0 -109.5 -31t-117.5 -89q0 71 -8 181l-5 52l-6 53q-9 81 -11 106l-80 -10q14 -78 24 -173l5 -54l4 -54q2 -40 2 -57q0 -19 -2 -51l-4 -42l-1 -13l-2 -14q-2 -17 -8 -25l-32 -43l-6 -10l-7 -10q-8 -10 -18 -9q-49 13 -100 33
l-15 -36l-15 -35q159 -61 306 -61q57 0 111 9q112 20 193 88q35 29 55.5 74.5t16.5 87.5v4l1 -6l-1 2q-2 39 -26 69.5z" />
    <glyph glyph-name="uniFB8B" unicode="&#x698;" horiz-adv-x="871" arabic-form="final" 
d="M605 69q0 -160 -92 -312q-82 -136 -233 -265q-133 -113 -306 -202q-25 52 -35 71q-22 43 -35 69q146 76 264 171q130 104 201 216q79 125 79 253q0 14 -2 40q-11 87 -50 236l-9 31q-8 34 -23 84l-29 94l150 46q78 -229 154 -324q40 -52 84.5 -76.5t96.5 -24.5h5
q33 0 56 -23.5t23 -55.5q0 -33 -23 -55t-56 -22q-47 0 -86 13q-69 21 -134 89v-53zM497 891l146 146l148 -148l-146 -146zM91 892l146 147l148 -148l-146 -147zM314 1182l132 132l133 -133l-132 -132z" />
    <glyph glyph-name="uniFEB7" unicode="&#x634;" horiz-adv-x="1609" arabic-form="initial" 
d="M-51 150q21 23 51 26q112 4 195 86q69 69 118 190q42 102 63 212l157 -31l-19 -64q-26 -83 -38 -161q-7 -39 -7 -79q0 -72 26 -111q32 -51 102 -51q99 0 171 97q58 77 100 215q30 98 48 215l78 -15l45 -9q8 -1 29 -5v-1q-14 -81 -22 -131q-15 -99 -15 -155q0 -97 33 -148
q41 -66 134 -66q85 0 129 57q40 52 40 139q0 100 -47 243q-38 114 -83 205l139 74q3 -7 31.5 -66t57.5 -143q61 -183 61 -310q0 -166 -90 -259q-94 -96 -271 -96q-72 0 -149 48q-73 46 -120 117q-68 -78 -144.5 -121.5t-154.5 -43.5q-74 0 -145 42q-78 47 -112 124
q-71 -76 -145 -112q-86 -42 -194 -43q-31 2 -52 24t-21 54q0 30 21 53zM987 1156l146 146l148 -148l-146 -146zM581 1157l146 147l148 -148l-146 -147zM804 1447l132 132l133 -133l-132 -132z" />
    <glyph glyph-name="uniFEB8" unicode="&#x634;" horiz-adv-x="1876" arabic-form="medial" 
d="M-57 151q24 23 56 25h8q81 0 163 84q54 55 116 169q41 77 69 157q20 59 35 108v2q69 -18 152 -42l-2 -6l1 1q-22 -87 -33 -167q-8 -70 -8 -113q0 -98 33 -153v1q20 -35 59 -39q12 -4 27 -4q42 0 82 30q48 35 92.5 111.5t79.5 184.5v-1q29 85 53 207l155 -29
q-16 -87 -21 -182q-1 -7 -1 -23v-23q0 -78 14 -136t40 -90q15 -20 38.5 -32t62.5 -12q62 0 99 43v-1q36 39 58 114.5t28 177.5q2 54 2 77q0 18 -2 56l-4 56l159 14q4 -70 15 -136.5t36 -145.5q84 -258 240 -258h8q33 0 55.5 -22.5t22.5 -55.5q0 -32 -22.5 -55t-55.5 -23h-8
q-75 0 -142.5 32t-120.5 93q-31 34 -73 104q-42 -93 -78 -132q-85 -97 -217 -97q-69 0 -126 26t-97 77q-28 33 -60 111q-74 -112 -138 -158q-88 -59 -177 -59q-101 0 -163 59q-55 51 -100 161q-51 -69 -87 -102q-118 -115 -259 -115h-9q-32 0 -55.5 23t-23.5 55q0 30 24 53z
M1081 677v1v-1zM1055 1125l146 146l148 -148l-146 -146zM649 1126l146 147l148 -148l-146 -147zM872 1416l132 132l133 -133l-132 -132z" />
    <glyph glyph-name="uniFEB6" unicode="&#x634;" horiz-adv-x="2889" arabic-form="final" 
d="M2891 176q32 0 55.5 -23t23.5 -56q0 -32 -23.5 -54.5t-55.5 -22.5h-9h-11q-157 0 -264 125q-26 26 -72 107q-39 -90 -78 -136q-91 -97 -216 -97q-55 0 -117 38q-67 41 -113 108q-116 -134 -299 -146q-76 -4 -156 29q-32 13 -63 32l2 -52q1 -15 1 -43q0 -179 -92 -322
q-48 -75 -118.5 -134t-157.5 -98q-162 -75 -352 -75l-34 1q-124 0 -231.5 37.5t-189.5 107.5q-72 67 -120 159q-51 95 -64 196q-9 60 -9 117q0 152 50 312q24 82 54.5 149t59.5 112l65 -48l19 -15q28 -22 43 -32q-19 -30 -42 -81.5t-42 -113.5q-48 -156 -48 -290
q0 -44 5 -79t16 -74q24 -85 86 -157q73 -86 210 -122q70 -19 169 -19q218 10 352.5 88.5t182.5 223.5q37 114 37 255q0 113 -25.5 225t-81.5 239q18 12 39 22.5t28 14.5l32 16q11 5 33 19q2 -2 8 -17q0 -1 16 -39l30 -76q27 -76 48.5 -125.5t49.5 -87.5q71 -96 184 -96
q100 0 153 68q43 56 61 163q8 46 10.5 101.5t3.5 66.5q0 23 1 35v15l164 -11l-7 -152q0 -119 27 -192q36 -99 126 -99q31 0 51 11.5t43 37.5v-1q37 40 62 116.5t30 176.5l1 34q0 29 -3 59l-8 96l164 11q5 -62 13 -122q10 -74 27 -152q42 -129 105 -196.5t141 -67.5h20z
M2050 1050l146 146l148 -148l-146 -146zM1644 1051l146 147l148 -148l-146 -147zM1867 1341l132 132l133 -133l-132 -132z" />
    <glyph glyph-name="uniFEBF" unicode="&#x636;" horiz-adv-x="1894" arabic-form="initial" 
d="M946 151q44 0 89 3q168 10 297 46q143 38 206 96q46 41 69.5 89t23.5 97q0 80 -56 141q-90 75 -192 77q-88 0 -192 -56q-77 -41 -178 -130v1q-85 -80 -170 -191q-76 -98 -104 -155q95 -18 207 -18zM-56 153.5q23 22.5 56 22.5q115 0 185 36q48 23 81 67q33 46 51 104.5
t38 157.5q4 14 7 35q13 63 25 106l151 -45q-4 -11 -7 -29q-12 -56 -18 -111q-4 -25 -2 -42q0 -133 82 -238q31 69 112 183q88 123 199 228q117 111 248 171q122 57 244 57q24 0 36 -1q148 -13 257 -123q45 -58 69.5 -125.5t24.5 -136.5q0 -83 -36.5 -160t-108.5 -136
q-122 -100 -315 -147q-162 -39 -341 -39q-124 0 -197 5.5t-134 24.5q-68 21 -126.5 65t-120.5 121q-68 -93 -165 -138t-230 -46h-9q-33 0 -56 22.5t-23 55.5t23 55.5zM1446 1250l-147 -147l-148 148l147 147z" />
    <glyph glyph-name="uniFEC0" unicode="&#x636;" horiz-adv-x="1931" arabic-form="medial" 
d="M-56 153q23 23 55 23h9q121 3 170 26q47 23 88 76q33 45 55 108.5t45 165.5l15 66q11 48 16 64l149 -46q-18 -65 -25.5 -102t-7.5 -87q0 -73 13 -119q20 -76 76 -114q37 79 112 184q89 127 193 228q88 82 192 139q108 59 211 79h-1q57 11 107 11q56 0 114 -14
q109 -28 184 -109q95 -95 88 -262q-6 -76 -44 -152t-104 -142h279q33 0 56.5 -23t23.5 -56t-23.5 -55t-56.5 -22l-252 -1q-112 0 -176.5 7t-104.5 25q-227 -62 -414 -62q-79 0 -177 13q-140 18 -233 61q-124 56 -161 149q-79 -106 -173 -147q-93 -45 -243 -45
q-33 0 -55.5 22t-22.5 55t23 56zM882 157q43 -4 95 -4q172 0 313 32q166 38 259 112h-1q98 78 98 199q0 42 -12.5 76t-30.5 51q-58 56 -128 69q-23 4 -52 4q-33 0 -84 -7q-81 -12 -165 -59.5t-158 -118.5v1q-88 -83 -163 -188q-67 -92 -97 -154q45 -6 126 -13zM1501 1228
l-147 -147l-148 148l147 147z" />
    <glyph glyph-name="uniFEBE" unicode="&#x636;" horiz-adv-x="2867" arabic-form="final" 
d="M2073 142q105 0 207 24q111 26 184 71q44 23 75.5 68.5t43.5 99.5q6 29 6 58q0 83 -49 136q-56 57 -127 73q-29 7 -65 7q-31 0 -75 -7q-77 -12 -161 -64q-70 -43 -148 -116q-74 -70 -141 -155q-61 -79 -93 -137q157 -58 343 -58zM2697 51q-77 27 -119 69
q-111 -70 -251 -105q-110 -27 -219 -29q-8 -1 -23 -1h-24q-101 0 -197 16t-174 45q-99 36 -216 120q3 -51 4 -66l2 -36q1 -12 1 -29v-27q0 -9 -2 -27q-10 -135 -60 -248q-63 -131 -157 -213q-89 -73 -206.5 -111.5t-254.5 -38.5q-54 0 -98 4q-201 20 -320 94
q-117 69 -176 184.5t-59 268.5q0 126 37 272q22 90 61 188q32 81 56 121l135 -87q-46 -95 -78 -195q-54 -166 -54 -296q0 -113 40 -194q44 -89 134.5 -137.5t235.5 -61.5q40 -3 81 -3q228 0 364 112q80 69 123 176q31 79 38 177q2 34 2 53q0 138 -51 327q-28 99 -70 211
l147 58q63 -145 149 -271q37 -54 97 -98q35 67 107 162q71 94 155 172q89 87 187.5 144t200.5 77h-1q46 10 99 10q65 0 123 -16q114 -32 185 -113q47 -56 72 -121.5t25 -135.5q0 -112 -62 -217q13 -19 70 -38q56 -21 104 -21h8q33 0 56 -23t23 -56q0 -32 -23 -54.5
t-56 -22.5q-83 0 -171 31zM2443 1201l-147 -147l-148 148l147 147z" />
    <glyph glyph-name="uniFEC7" unicode="&#x638;" horiz-adv-x="1520" arabic-form="initial" 
d="M402 176h129q92 0 165.5 5t146.5 22q188 43 335 164q58 51 86 104q25 52 25 99q0 17 -3 33q-8 43 -36.5 75t-70.5 51q-53 23 -119 23q-30 0 -53 -4q-219 -48 -489 -343v1q-17 -19 -48 -58q-18 -22 -49 -64l-81 -107q11 -1 62 -1zM-58.5 153q23.5 23 55.5 23h9h153l11 18
q11 18 13 22l-1 -1q29 51 57.5 95t75.5 102q24 140 24 410q0 227 -23 459l-21 215l163 29q44 -347 44 -714v-44q-1 -17 -1 -54q-1 -19 -1 -54q-1 -17 -1 -45q267 248 484 290q48 8 88 8q48 0 98 -11q93 -22 165 -89q95 -102 95 -229q0 -88 -41 -178q-40 -88 -101 -153
q-156 -139 -358 -193q-144 -40 -331 -40l-592 1h-9q-33 0 -56 22.5t-23 55.5q0 32 23.5 55zM1195 1343l-147 -147l-148 148l147 147z" />
    <glyph glyph-name="uniFEC8" unicode="&#x638;" horiz-adv-x="1570" arabic-form="medial" 
d="M484 175h45q15 -1 45 -1q96 0 171 6.5t145 25.5q79 21 152 59.5t144 101.5q41 41 68 106q28 66 26 127q-15 85 -100 125q-53 25 -125 25q-13 0 -37 -2q-57 -10 -134 -46.5t-160 -100.5q-211 -161 -376 -425zM-63.5 153.5q22.5 22.5 55.5 22.5h8h156q35 56 85 125
q43 58 76 97l4 7q13 17 21 87q6 66 6 167q0 127 -8 293q-8 159 -20 304q-13 158 -24 233l155 28q58 -389 58 -797v-108q276 258 484 289q37 5 66 5q59 0 116.5 -15t105.5 -43q66 -38 107.5 -99.5t49.5 -141.5q1 -8 1 -25q0 -87 -40 -175q-39 -84 -98 -149l-22 -21l-28 -28
l-35 -33h373q33 0 55.5 -22t22.5 -55q0 -32 -22.5 -55t-55.5 -23h-40q-56 -2 -114 -2h-94q-111 0 -187 7q-111 10 -195 37q-90 -26 -173.5 -34.5t-180.5 -8.5h-613q-33 0 -55.5 22.5t-22.5 55.5t22.5 55.5zM1204 1354l-147 -147l-148 148l147 147z" />
    <glyph glyph-name="uniFEC6" unicode="&#x638;" horiz-adv-x="1868" arabic-form="final" 
d="M948 20q-14 -1 -41 -1h-40q-59 0 -126 4h-4q-304 17 -608 132l19 48l10 27q12 35 27 72q108 -42 256 -79q67 98 134 181l25 36q12 85 12 159q0 44 -1 66q-2 42 -2 68q0 106 -14 294q-11 142 -29 316q-9 81 -22 175l155 35q4 -27 14 -120l10 -91l20 -196l3 -35l5 -52
l4 -47q1 -16 2 -27t2 -19q3 -32 5 -77q0 -28 1 -43q0 -34 1 -59l4 -167q267 255 483 287q40 7 68 7q66 0 131 -21t118 -60q58 -44 92 -105.5t34 -134.5q0 -50 -15 -107t-44 -112q-33 -63 -79 -115t-101 -81l403 -2h8q33 0 55.5 -22.5t22.5 -55.5q0 -32 -22.5 -55t-55.5 -23
h-920zM930 178q147 7 258 45q148 50 264 156q43 48 66 103q23 54 23 105q0 86 -79 132q-30 17 -66 26t-73 9q-25 0 -46 -3q-105 -17 -229 -103t-261 -238l-175 -222zM1430 1355l-147 -147l-148 148l147 147z" />
    <glyph glyph-name="uniFECF" unicode="&#x63a;" horiz-adv-x="1089" arabic-form="initial" 
d="M875 634q-75 62 -184 105q-54 20 -108 20q-119 0 -190 -78q-32 -35 -48.5 -81.5t-16.5 -96.5q0 -65 29 -121t80 -95q45 -36 101.5 -55t119.5 -19q19 0 29 1q82 5 175 20q47 7 109 19l19 -152q-143 -36 -290 -54q-207 -25 -482 -25l-218 -2q-33 0 -56.5 22.5t-23.5 55.5
t23.5 55.5t56.5 22.5l335 4q-87 79 -125 157.5t-38 165.5q0 83 30.5 157.5t86.5 132.5t131.5 90t162.5 32q131 0 256 -67q76 -41 133 -95zM650 1331l-147 -147l-148 148l147 147z" />
    <glyph glyph-name="uniFED0" unicode="&#x63a;" horiz-adv-x="1144" arabic-form="medial" 
d="M1201.5 152.5q23.5 -23.5 23.5 -56.5q0 -32 -23.5 -54.5t-55.5 -22.5q-327 0 -543 126q-129 -61 -293 -94q-160 -32 -309 -32q-32 0 -55.5 22.5t-23.5 54.5q0 33 23.5 56.5t55.5 23.5q103 0 234 21q131 20 218 55q-67 62 -124.5 125.5t-138.5 160.5l-79 93l10 123
q85 74 206 118q85 30 190 43q52 5 89 5q74 0 145 -13.5t132 -38.5q86 -39 126 -98q16 -23 23 -46.5t7 -41.5q1 -5 1 -15q0 -42 -23 -95.5t-63 -111.5q-43 -61 -97.5 -118.5t-109.5 -99.5q85 -32 188.5 -49t210.5 -17q32 0 55.5 -23.5zM729 433q60 66 106 140t46 111
q-60 39 -133 59t-152 20q-77 0 -158 -22t-157 -66q118 -141 167 -194q82 -90 157 -150q55 28 124 102zM745 1318l-147 -147l-148 148l147 147z" />
    <glyph glyph-name="uniFECE" unicode="&#x63a;" horiz-adv-x="1351" arabic-form="final" 
d="M801 -615q85 0 164 13q158 25 284 105l42 -69q27 -48 39 -67q-88 -54 -189.5 -89t-208.5 -47q-55 -7 -117 -7q-164 0 -307 53q-103 38 -188 103t-146 156q-29 49 -44 113t-15 133q0 73 15.5 141t44.5 120h-1q58 104 177 194q108 81 245 138q-74 67 -132 126t-132 139
l-17 18q-3 26 -10 109q53 78 167 135q80 40 172 61l-1 -1q108 24 209 24q112 0 195 -28q96 -29 147.5 -86.5t51.5 -134.5q0 -81 -39 -154.5t-109 -132.5q-75 -60 -195 -115q124 -76 235.5 -117.5t216.5 -41.5q32 -1 54.5 -24t22.5 -55q0 -33 -22 -55t-55 -23q-151 0 -314 68
q-136 56 -309 176q-94 -38 -172 -79t-139 -93q-150 -130 -150 -297q0 -100 70 -193q61 -82 157 -141q89 -54 168 -67q70 -8 135 -8zM610 579q80 -80 146 -134q170 70 245 130q42 34 63.5 72t23.5 84q0 26 -28 49q-21 16 -58 29q-60 20 -149 20q-95 0 -201 -30
q-108 -32 -179 -80q71 -76 137 -140zM900 1341l-147 -147l-148 148l147 147z" />
    <glyph glyph-name="uniFB90" unicode="&#x6a9;" horiz-adv-x="942" arabic-form="initial" 
d="M-63.5 153.5q24.5 22.5 63.5 22.5h56h49q85 0 144.5 2.5t113.5 12.5q140 26 193 105q43 64 43 149q0 95 -44 171q-45 76 -132 177q-84 97 -194 198q-53 49 -109 94q4 38 11 92l10 90l396 170l396 169l11 -26l21 -47q11 -24 31 -72l-728 -306q78 -66 135.5 -118
t108.5 -110q128 -142 186 -273q52 -118 52 -225q0 -110 -57 -215h1q-85 -150 -288 -188q-38 -7 -83 -7l-323 1q-38 0 -63 22t-25 55q0 34 24.5 56.5z" />
    <glyph glyph-name="uniFB91" unicode="&#x6a9;" horiz-adv-x="1188" arabic-form="medial" 
d="M-65.5 153q23.5 23 55.5 23h9h330q42 0 84.5 17.5t79.5 48.5q36 30 59.5 67.5t28.5 75.5q6 108 -72 250q-67 119 -182 250q-96 106 -203 190q4 50 12 100l12 99l854 368l11 -26l21 -47q11 -24 31 -72l-807 -339q168 -139 280 -293q44 -62 78 -121t86 -157
q66 -126 105 -190q64 -107 140 -159q83 -58 197 -62h43q33 0 55.5 -23t22.5 -55q0 -33 -22.5 -55.5t-55.5 -22.5h-8q-68 0 -121.5 8t-105.5 26h1q-64 23 -127 76.5t-119 125.5q-49 -90 -97 -134h1q-58 -52 -132.5 -75t-163.5 -27h-325q-33 0 -56 22.5t-23 55.5q0 32 23.5 55
z" />
    <glyph glyph-name="uniFED3" unicode="&#x641;" horiz-adv-x="903" arabic-form="initial" 
d="M384 933q-26 -14 -51 -40q-29 -30 -50 -72t-30 -94v1q-4 -26 -4 -41q0 -18 2 -27q5 -41 24 -61h-1q22 -28 78 -47q52 -19 114 -24q34 -2 50 -2h46q65 0 109 4q-7 106 -44 205q-36 94 -91 153v-1q-22 24 -46 40q-30 20 -62 20q-18 0 -44 -14zM-57.5 153.5
q23.5 22.5 56.5 22.5q143 0 249 10t184 32q79 22 134 59t94 91h-154q-103 0 -191 34q-91 35 -139 93q-34 28 -49 110q-8 43 -8 83q0 29 5 61q25 143 103 245q42 55 93.5 83t107.5 28q123 0 225 -111q78 -85 123 -215q44 -132 44 -268q0 -189 -113 -305q-102 -103 -292 -148
q-164 -40 -401 -38h-17q-32 0 -55 23t-23 55q0 33 23.5 55.5zM544 1470l-147 -147l-148 148l147 147z" />
    <glyph glyph-name="uniFED4" unicode="&#x641;" horiz-adv-x="1019" arabic-form="medial" 
d="M440 744q-37 -17 -68 -49q-35 -36 -55.5 -86.5t-20.5 -113.5q0 -27 15.5 -59.5t43.5 -65.5q64 -74 164 -119q81 36 131 112q45 69 45 143q0 47 -16.5 93t-44.5 83q-27 37 -60.5 58t-65.5 21q-31 0 -68 -17zM-55.5 154q22.5 22 55.5 22q75 0 156 6q83 5 153 15
q-73 64 -116 147q-39 77 -39 148q0 75 26.5 150t73.5 136q49 63 114.5 100t140.5 40q77 -5 139.5 -38.5t106.5 -88.5q42 -54 64 -121.5t22 -139.5q0 -83 -34 -166.5t-101 -156.5q75 -15 157.5 -23t154.5 -8q34 0 56.5 -22t22.5 -56q0 -33 -22.5 -55.5t-56.5 -22.5h-9
q-74 0 -130 5q-88 6 -128 13q-127 20 -228 54q-93 -35 -229 -54q-132 -18 -286 -18h-8q-33 0 -55.5 22.5t-22.5 55.5q0 34 22.5 56zM603 1346l-147 -147l-148 148l147 147z" />
    <glyph glyph-name="uniFED2" unicode="&#x641;" horiz-adv-x="2101" arabic-form="final" 
d="M1920 373q-21 -58 -74 -134l-6 -7q-3 -4 -24 -25q170 -31 292 -31q33 0 56 -22.5t23 -55.5q0 -32 -23.5 -55t-55.5 -23q-257 0 -470 73l-67 -22q-92 -35 -265 -54q-156 -19 -345 -19q-302 1 -498.5 74.5t-283.5 220.5q-64 107 -64 244q0 98 28 189q16 55 44 114l70 -38
l69 -38q-20 -41 -34 -92q-20 -65 -20 -136q0 -88 43 -164q67 -106 204 -157q141 -55 386 -61q78 -2 107 -2q125 0 235 13q80 8 180 28q-73 59 -120 152q-39 78 -39 156q0 72 27 146.5t74 134.5q50 63 115 99.5t139 36.5q64 0 120 -23.5t98 -69.5q44 -44 71 -105
q35 -84 35 -184q0 -87 -27 -163zM1817 528q0 95 -42 154q-32 43 -85 64q-34 13 -67 13t-69.5 -16.5t-65.5 -48.5q-33 -35 -52.5 -85t-19.5 -113q0 -27 15 -61t42 -66q29 -36 68.5 -64t87.5 -42q188 107 188 265zM1731 1335l-147 -147l-148 148l147 147z" />
    <glyph glyph-name="uniFB6A" unicode="&#x6a4;" horiz-adv-x="1959" arabic-form="isolated" 
d="M1699 999q73 -79 118 -203q48 -131 48 -272q0 -53 -3.5 -91.5t-16.5 -76.5q-49 -142 -186 -221q-121 -70 -315 -94q-150 -20 -389 -20q-594 0 -767 294q-64 109 -64 243q0 96 23 181q16 58 40 106l70 -38l69 -38q-20 -46 -32 -94t-12 -116q0 -42 11 -85t32 -80
q127 -205 600 -223q15 -1 43 -1h41q252 0 440 57q93 28 158.5 70.5t95.5 96.5q-79 -17 -146 -17q-68 0 -135 16q-126 29 -200 109q-58 65 -58 179q0 95 38 192q38 102 107 168q76 71 165 71q123 0 225 -112v-1zM1709 572q-14 72 -27.5 127t-36.5 105q-59 131 -167 151
q-21 4 -51.5 -18t-57.5 -60q-28 -39 -46 -87t-18 -92q0 -51 36 -99q48 -63 173 -70q13 -1 38 -1q86 0 160 19zM1499 1487l146 146l148 -148l-146 -146zM1093 1488l146 147l148 -148l-146 -147zM1316 1778l132 132l133 -133l-132 -132z" />
    <glyph glyph-name="uniFB6C" unicode="&#x6a4;" horiz-adv-x="896" arabic-form="initial" 
d="M384 933q-26 -14 -51 -40q-29 -30 -50 -72t-30 -94v1q-4 -26 -4 -41q0 -18 2 -27q5 -41 24 -61h-1q22 -28 78 -47q52 -19 114 -24q34 -2 50 -2h46q65 0 109 4q-7 106 -44 205q-36 94 -91 153v-1q-22 24 -46 40q-30 20 -62 20q-18 0 -44 -14zM-57.5 153.5
q23.5 22.5 56.5 22.5q143 0 249 10t184 32q79 22 134 59t94 91h-154q-103 0 -191 34q-91 35 -139 93q-34 28 -49 110q-8 43 -8 83q0 29 5 61q25 143 103 245q42 55 93.5 83t107.5 28q123 0 225 -111q78 -85 123 -215q44 -132 44 -268q0 -189 -113 -305q-102 -103 -292 -148
q-164 -40 -401 -38h-17q-32 0 -55 23t-23 55q0 33 23.5 55.5zM401 1388l146 146l148 -148l-146 -146zM-5 1389l146 147l148 -148l-146 -147zM218 1679l132 132l133 -133l-132 -132z" />
    <glyph glyph-name="uniFB6D" unicode="&#x6a4;" horiz-adv-x="1009" arabic-form="medial" 
d="M440 744q-37 -17 -68 -49q-35 -36 -55.5 -86.5t-20.5 -113.5q0 -27 15.5 -59.5t43.5 -65.5q64 -74 164 -119q81 36 131 112q45 69 45 143q0 47 -16.5 93t-44.5 83q-27 37 -60.5 58t-65.5 21q-31 0 -68 -17zM-55.5 154q22.5 22 55.5 22q75 0 156 6q83 5 153 15
q-73 64 -116 147q-39 77 -39 148q0 75 26.5 150t73.5 136q49 63 114.5 100t140.5 40q77 -5 139.5 -38.5t106.5 -88.5q42 -54 64 -121.5t22 -139.5q0 -83 -34 -166.5t-101 -156.5q75 -15 157.5 -23t154.5 -8q34 0 56.5 -22t22.5 -56q0 -33 -22.5 -55.5t-56.5 -22.5h-9
q-74 0 -130 5q-88 6 -128 13q-127 20 -228 54q-93 -35 -229 -54q-132 -18 -286 -18h-8q-33 0 -55.5 22.5t-22.5 55.5q0 34 22.5 56zM503 1261l146 146l148 -148l-146 -146zM97 1262l146 147l148 -148l-146 -147zM320 1552l132 132l133 -133l-132 -132z" />
    <glyph glyph-name="uniFB6B" unicode="&#x6a4;" horiz-adv-x="2106" arabic-form="final" 
d="M1920 373q-21 -58 -74 -134l-6 -7q-3 -4 -24 -25q170 -31 292 -31q33 0 56 -22.5t23 -55.5q0 -32 -23.5 -55t-55.5 -23q-257 0 -470 73l-67 -22q-92 -35 -265 -54q-156 -19 -345 -19q-302 1 -498.5 74.5t-283.5 220.5q-64 107 -64 244q0 98 28 189q16 55 44 114l70 -38
l69 -38q-20 -41 -34 -92q-20 -65 -20 -136q0 -88 43 -164q67 -106 204 -157q141 -55 386 -61q78 -2 107 -2q125 0 235 13q80 8 180 28q-73 59 -120 152q-39 78 -39 156q0 72 27 146.5t74 134.5q50 63 115 99.5t139 36.5q64 0 120 -23.5t98 -69.5q44 -44 71 -105
q35 -84 35 -184q0 -87 -27 -163zM1817 528q0 95 -42 154q-32 43 -85 64q-34 13 -67 13t-69.5 -16.5t-65.5 -48.5q-33 -35 -52.5 -85t-19.5 -113q0 -27 15 -61t42 -66q29 -36 68.5 -64t87.5 -42q188 107 188 265zM1641 1274l146 146l148 -148l-146 -146zM1235 1275l146 147
l148 -148l-146 -147zM1458 1565l132 132l133 -133l-132 -132z" />
    <glyph glyph-name="uniFED7" unicode="&#x642;" horiz-adv-x="908" arabic-form="initial" 
d="M384 933q-26 -14 -51 -40q-29 -30 -50 -72t-30 -94v1q-4 -26 -4 -41q0 -18 2 -27q5 -41 24 -61h-1q22 -28 78 -47q52 -19 114 -24q34 -2 50 -2h46q65 0 109 4q-7 106 -44 205q-36 94 -91 153v-1q-22 24 -46 40q-30 20 -62 20q-18 0 -44 -14zM-57.5 153.5
q23.5 22.5 56.5 22.5q143 0 249 10t184 32q79 22 134 59t94 91h-154q-103 0 -191 34q-91 35 -139 93q-34 28 -49 110q-8 43 -8 83q0 29 5 61q25 143 103 245q42 55 93.5 83t107.5 28q123 0 225 -111q78 -85 123 -215q44 -132 44 -268q0 -189 -113 -305q-102 -103 -292 -148
q-164 -40 -401 -38h-17q-32 0 -55 23t-23 55q0 33 23.5 55.5zM373 1481l-146 -146l-148 147l146 147zM728 1479l-145 -146l-148 148l146 146z" />
    <glyph glyph-name="uniFED8" unicode="&#x642;" horiz-adv-x="1037" arabic-form="medial" 
d="M440 744q-37 -17 -68 -49q-35 -36 -55.5 -86.5t-20.5 -113.5q0 -27 15.5 -59.5t43.5 -65.5q64 -74 164 -119q81 36 131 112q45 69 45 143q0 47 -16.5 93t-44.5 83q-27 37 -60.5 58t-65.5 21q-31 0 -68 -17zM-55.5 154q22.5 22 55.5 22q75 0 156 6q83 5 153 15
q-73 64 -116 147q-39 77 -39 148q0 75 26.5 150t73.5 136q49 63 114.5 100t140.5 40q77 -5 139.5 -38.5t106.5 -88.5q42 -54 64 -121.5t22 -139.5q0 -83 -34 -166.5t-101 -156.5q75 -15 157.5 -23t154.5 -8q34 0 56.5 -22t22.5 -56q0 -33 -22.5 -55.5t-56.5 -22.5h-9
q-74 0 -130 5q-88 6 -128 13q-127 20 -228 54q-93 -35 -229 -54q-132 -18 -286 -18h-8q-33 0 -55.5 22.5t-22.5 55.5q0 34 22.5 56zM494 1329l-146 -146l-148 147l146 147zM849 1327l-145 -146l-148 148l146 146z" />
    <glyph glyph-name="uniFED6" unicode="&#x642;" horiz-adv-x="1565" arabic-form="final" 
d="M928 607l1 1q-32 -40 -56.5 -92.5t-35.5 -110.5q-4 -25 -4 -52q0 -64 29 -99q29 -36 99 -56q34 -10 102 -18q85 -4 169 -4h62q-6 135 -48 252q-38 104 -96 170q-29 31 -54 47q-36 23 -74 23q-45 0 -94 -61zM1232 17q-76 0 -178 6q-101 8 -179.5 43t-126.5 92
q-30 41 -47 91.5t-17 104.5q0 31 8 81q13 80 41.5 148.5t70.5 120.5q96 122 218 122q134 0 245 -122q83 -90 131 -230q47 -136 53 -296q54 -2 120 -2q33 0 56 -22.5t23 -55.5q0 -32 -23.5 -55t-55.5 -23h-9h-122q-1 -7 -9 -47.5t-21 -83.5q-27 -88 -59 -151
q-78 -151 -208 -244h1q-162 -111 -387 -111q-192 0 -339 75q-149 75 -233 213q-86 146 -86 332q0 20 2 58q10 106 46.5 226t95.5 236l140 -74q-126 -244 -126 -447q0 -140 62.5 -245t174.5 -160q110 -55 263 -55q152 0 266 68t185 195q47 88 73 212h-49zM979 1135l-146 -146
l-148 147l146 147zM1334 1133l-145 -146l-148 148l146 146z" />
    <glyph glyph-name="uniFEE7" unicode="&#x646;" horiz-adv-x="706" arabic-form="initial" 
d="M-62 153.5q23 22.5 55 22.5h103h23q7 -1 22 -1q112 0 175 24q79 30 114 107v-1q16 32 16 88q0 92 -44 235q-14 42 -42 111q-12 30 -21 50l-17 37l142 71l16 -36q25 -56 47 -114l24 -71q52 -160 52 -281q0 -90 -28 -153q-36 -74 -97 -126t-143 -75q-46 -13 -91.5 -17
t-104.5 -4h-146q-32 0 -55 22.5t-23 55.5t23 55.5zM477 1248l-147 -147l-148 148l147 147z" />
    <glyph glyph-name="uniFEE8" unicode="&#x646;" horiz-adv-x="705" arabic-form="medial" 
d="M-51.5 153q22.5 23 55.5 23h17q177 0 261.5 63t84.5 193q0 53 -10 106q-12 62 -29 126q21 5 76 22q35 11 73 21q46 -170 50 -291q3 -65 10 -106.5t24 -69.5q19 -32 53.5 -48t89.5 -16q32 0 55.5 -23t23.5 -55q0 -33 -23 -55.5t-55 -22.5q-90 0 -160 38q-62 32 -112 96
q-70 -67 -171 -100.5t-241 -33.5h-17q-33 0 -55.5 22.5t-22.5 55.5q0 32 22.5 55zM541 1126l-147 -147l-148 148l147 147z" />
    <glyph glyph-name="uniFEE6" unicode="&#x646;" horiz-adv-x="1714" arabic-form="final" 
d="M1446 98q0 -10 1 -18q0 -16 1 -24q0 -17 1 -25v-18q0 -137 -38 -259q-74 -206 -272 -320q-89 -51 -192.5 -76t-212.5 -25q-550 0 -645 499v-1q-10 56 -10 119q0 118 34 249q23 88 57 171t74 151q41 -29 65 -48q31 -24 62 -46q-32 -51 -66 -150q-39 -115 -55 -212
q-12 -66 -12 -129q0 -47 7 -82q-3 -34 10 -74.5t40 -79.5q60 -91 164 -146q118 -64 268 -64q102 0 190 22.5t158 63.5q138 82 185 226q30 90 30 205q0 112 -32 233q-26 93 -68 190l-29 61l-17 34l133 84q5 -8 17 -30l42 -87q102 -193 205 -266q42 -29 81.5 -39.5t84.5 -10.5
q33 0 56 -22.5t23 -55.5q0 -32 -23 -55t-56 -23q-129 0 -261 78zM917 574l-147 -147l-148 148l147 147z" />
    <glyph glyph-name="uniFBA5" unicode="&#x6c0;" horiz-adv-x="1090" arabic-form="final" 
d="M200 278q-48 59 -48 147q0 63 18 101q49 101 143 182q79 68 178 119q52 27 97.5 44.5t51.5 19.5l-15 145l157 34l4 -35q2 -27 6 -63l8 -76q4 -39 13 -117q0 -7 2 -21l4 -34v1q23 -201 52 -346q12 -55 17 -70l10 -29v1q24 -59 71 -83q43 -22 121 -22q33 0 56 -22.5
t23 -55.5q0 -32 -23.5 -55t-55.5 -23q-114 0 -187 35h1q-76 35 -131 126q-135 -21 -229 -21q-250 0 -344 118zM634 720l-59 -26q-76 -33 -144 -77q-79 -52 -110 -111q-18 -31 -18 -67q0 -67 74 -99q57 -26 161 -26q83 0 181 18q-24 116 -59 398zM674 1548q-12 3 -56 11
q-22 2 -36 2q-34 0 -62 -12v2q-32 -14 -51.5 -42.5t-19.5 -61.5q0 -15 8 -36l-1 1q14 -36 50 -59t78 -23q11 0 21.5 1t20.5 6q39 12 96 46q24 14 43 29l59 -78q-28 -21 -67 -43.5t-113 -63.5l-62 -35l-227 -126l-48 87l179 100q-41 17 -72 48.5t-49 71.5q-14 36 -14 74
q0 64 37 116q36 53 96 77q45 19 98 19q36 0 82 -10l38 -9z" />
    <glyph glyph-name="uniFE86" unicode="&#x624;" horiz-adv-x="1058" arabic-form="final" 
d="M102 -525q147 32 269 90.5t213 134.5q86 73 137.5 155.5t63.5 164.5h-77q-92 0 -157 5q-207 14 -306 135v-1q-61 78 -61 200q0 85 35 187q29 88 82 161q46 57 103 88.5t115 31.5q133 0 246 -122v1q81 -90 131 -232q49 -144 53 -298h94q33 0 56.5 -23t23.5 -56
q0 -32 -23.5 -54.5t-56.5 -22.5h-107q-28 -142 -102.5 -260.5t-185.5 -210.5q-106 -88 -236.5 -146t-272.5 -82zM448 641q-36 -29 -66 -77q-29 -47 -47 -101t-18 -101q0 -32 9.5 -59t25.5 -47v1q30 -38 102 -58q53 -16 107 -18q55 -3 118 -3q55 0 112 5q-6 132 -48 248
q-38 103 -96 168q-30 32 -55 48q-36 23 -73 23q-35 0 -71 -29zM562 1374q-12 3 -56 11q-22 2 -36 2q-34 0 -62 -12v2q-32 -14 -51.5 -42.5t-19.5 -61.5q0 -15 8 -36l-1 1q14 -36 50 -59t78 -23q11 0 21.5 1t20.5 6q39 12 96 46q24 14 43 29l59 -78q-28 -21 -67 -43.5
t-113 -63.5l-62 -35l-227 -126l-48 87l179 100q-41 17 -72 48.5t-49 71.5q-14 36 -14 74q0 64 37 116q36 53 96 77q45 19 98 19q36 0 82 -10l38 -9z" />
    <glyph glyph-name="uniFBE8" unicode="&#x649;" horiz-adv-x="700" arabic-form="initial" 
d="M-62 153.5q23 22.5 55 22.5h103h23q7 -1 22 -1q112 0 175 24q79 30 114 107v-1q16 32 16 88q0 92 -44 235q-14 42 -42 111q-12 30 -21 50l-17 37l142 71l16 -36q25 -56 47 -114l24 -71q52 -160 52 -281q0 -90 -28 -153q-36 -74 -97 -126t-143 -75q-46 -13 -91.5 -17
t-104.5 -4h-146q-32 0 -55 22.5t-23 55.5t23 55.5z" />
    <glyph glyph-name="uniFBE9" unicode="&#x649;" horiz-adv-x="705" arabic-form="medial" 
d="M-51.5 153q22.5 23 55.5 23h17q177 0 261.5 63t84.5 193q0 53 -10 106q-12 62 -29 126q21 5 76 22q35 11 73 21q46 -170 50 -291q3 -65 10 -106.5t24 -69.5q19 -32 53.5 -48t89.5 -16q32 0 55.5 -23t23.5 -55q0 -33 -23 -55.5t-55 -22.5q-90 0 -160 38q-62 32 -112 96
q-70 -67 -171 -100.5t-241 -33.5h-17q-33 0 -55.5 22.5t-22.5 55.5q0 32 22.5 55z" />
    <glyph glyph-name="uniFEF3" unicode="&#x64a;" horiz-adv-x="804" arabic-form="initial" 
d="M336 -346l-146 -146l-148 147l146 147zM691 -348l-145 -146l-148 148l146 146zM-106 153.5q23 22.5 55 22.5h111q75 0 136.5 3.5t117.5 14.5q148 28 185 112v-1q16 32 16 88q0 44 -12.5 100t-37.5 135q-14 42 -42 111q-12 30 -21 50l-17 37l142 71l16 -36q25 -56 47 -114
l24 -71q52 -160 52 -281q0 -90 -28 -153q-36 -74 -97 -126t-143 -75q-39 -12 -151 -18q-58 -3 -144 -3h-154q-32 0 -55 22.5t-23 55.5t23 55.5z" />
    <glyph glyph-name="uniFEF4" unicode="&#x64a;" horiz-adv-x="854" arabic-form="medial" 
d="M-58.5 153.5q22.5 22.5 55.5 22.5h76q209 0 312 44q128 55 128 190q0 64 -9 115q-7 43 -28 124q21 5 76 22q35 11 73 21q21 -75 31 -148l8 -67q7 -80 21 -155q17 -89 78 -126q35 -20 92 -20q33 0 56.5 -22.5t23.5 -55.5t-23 -55.5t-55 -22.5q-91 0 -161 40
q-67 36 -112 98q-70 -69 -223 -106q-134 -32 -288 -32h-76q-33 0 -55.5 22.5t-22.5 55.5t22.5 55.5zM311 -380l-146 -146l-148 147l146 147zM666 -382l-145 -146l-148 148l146 146z" />
    <glyph glyph-name="uniFEF2" unicode="&#x64a;" horiz-adv-x="1687" arabic-form="final" 
d="M479 -590q-188 54 -268 190q-93 135 -93 351v24q0 15 1 24q14 266 161 627l74 -30l71 -29q-72 -181 -110.5 -340.5t-38.5 -279.5q0 -161 65 -259q53 -76 148 -116q76 -33 179 -42q60 -5 162 -5q35 0 90.5 5.5t114.5 16.5q155 29 251 81q123 67 123 162q0 15 -12 34.5
t-37 40.5q-65 52 -170 90q-69 23 -136 41q-56 15 -98 23h-3l11 158l752 -1q33 0 56 -22.5t23 -55.5t-23 -55.5t-56 -22.5h-295q80 -65 118 -133q27 -48 27 -97q-1 -149 -135 -254q-106 -84 -296 -131q-148 -37 -305 -37q-208 0 -351 42zM754 -929l-146 -146l-148 147
l146 147zM1109 -931l-145 -146l-148 148l146 146z" />
    <glyph glyph-name="uniFBFE" unicode="&#x6cc;" horiz-adv-x="799" arabic-form="initial" 
d="M341 -345l-146 -146l-148 147l146 147zM696 -347l-145 -146l-148 148l146 146zM-106 153.5q23 22.5 55 22.5h111q75 0 136.5 3.5t117.5 14.5q148 28 185 112v-1q16 32 16 88q0 44 -12.5 100t-37.5 135q-14 42 -42 111q-12 30 -21 50l-17 37l142 71l16 -36q25 -56 47 -114
l24 -71q52 -160 52 -281q0 -90 -28 -153q-36 -74 -97 -126t-143 -75q-39 -12 -151 -18q-58 -3 -144 -3h-154q-32 0 -55 22.5t-23 55.5t23 55.5z" />
    <glyph glyph-name="uniFBFF" unicode="&#x6cc;" horiz-adv-x="860" arabic-form="medial" 
d="M-58.5 153.5q22.5 22.5 55.5 22.5h76q209 0 312 44q128 55 128 190q0 64 -9 115q-7 43 -28 124q21 5 76 22q35 11 73 21q21 -75 31 -148l8 -67q7 -80 21 -155q17 -89 78 -126q35 -20 92 -20q33 0 56.5 -22.5t23.5 -55.5t-23 -55.5t-55 -22.5q-91 0 -161 40
q-67 36 -112 98q-70 -69 -223 -106q-134 -32 -288 -32h-76q-33 0 -55.5 22.5t-22.5 55.5t22.5 55.5zM319 -380l-146 -146l-148 147l146 147zM674 -382l-145 -146l-148 148l146 146z" />
    <glyph glyph-name="uniFBFD" unicode="&#x6cc;" horiz-adv-x="1715" arabic-form="final" 
d="M479 -590q-188 54 -268 190q-93 135 -93 351v24q0 15 1 24q14 266 161 627l74 -30l71 -29q-72 -181 -110.5 -340.5t-38.5 -279.5q0 -161 65 -259q53 -76 148 -116q76 -33 179 -42q60 -5 162 -5q35 0 90.5 5.5t114.5 16.5q155 29 251 81q123 67 123 162q0 15 -12 34.5
t-37 40.5q-65 52 -170 90q-69 23 -136 41q-56 15 -98 23h-3l11 158l752 -1q33 0 56 -22.5t23 -55.5t-23 -55.5t-56 -22.5h-295q80 -65 118 -133q27 -48 27 -97q-1 -149 -135 -254q-106 -84 -296 -131q-148 -37 -305 -37q-208 0 -351 42z" />
    <glyph glyph-name="uniFBB1" unicode="&#x6d3;" horiz-adv-x="1461" arabic-form="final" 
d="M523 -439q-157 18 -278 68q-60 26 -103 61.5t-63 75.5q-18 33 -18 78q0 58 35 111q73 116 272 172q174 49 428 49h704q32 0 55 -23t23 -55t-23 -55t-55 -23h-5h-699q-247 0 -407 -51q-64 -20 -105.5 -46t-61.5 -53l1 1q-8 -12 -10 -22q-1 -9 0 -12q50 -69 222 -102
q146 -29 374 -29q68 0 107 1q78 0 117 1q92 0 220 4l84 2l52 3l43 -150q-7 -1 -43 -3l-152 -6l-52 -2q-170 -6 -261 -7q-43 -1 -115 -1q-173 0 -286 13zM529 716q-12 3 -56 11q-22 2 -36 2q-34 0 -62 -12v2q-32 -14 -51.5 -42.5t-19.5 -61.5q0 -15 8 -36l-1 1q14 -36 50 -59
t78 -23q11 0 21.5 1t20.5 6q39 12 96 46q24 14 43 29l59 -78q-28 -21 -67 -43.5t-113 -63.5l-62 -35l-227 -126l-48 87l179 100q-41 17 -72 48.5t-49 71.5q-14 36 -14 74q0 64 37 116q36 53 96 77q45 19 98 19q36 0 82 -10l38 -9z" />
    <glyph glyph-name="uniFE8B" unicode="&#x626;" horiz-adv-x="711" arabic-form="initial" 
d="M-62 153.5q23 22.5 55 22.5h103h23q7 -1 22 -1q112 0 175 24q79 30 114 107v-1q16 32 16 88q0 92 -44 235q-14 42 -42 111q-12 30 -21 50l-17 37l142 71l16 -36q25 -56 47 -114l24 -71q52 -160 52 -281q0 -90 -28 -153q-36 -74 -97 -126t-143 -75q-46 -13 -91.5 -17
t-104.5 -4h-146q-32 0 -55 22.5t-23 55.5t23 55.5zM487 1425q-12 3 -56 11q-22 2 -36 2q-34 0 -62 -12v2q-32 -14 -51.5 -42.5t-19.5 -61.5q0 -15 8 -36l-1 1q14 -36 50 -59t78 -23q11 0 21.5 1t20.5 6q39 12 96 46q24 14 43 29l59 -78q-28 -21 -67 -43.5t-113 -63.5
l-62 -35l-227 -126l-48 87l179 100q-41 17 -72 48.5t-49 71.5q-14 36 -14 74q0 64 37 116q36 53 96 77q45 19 98 19q36 0 82 -10l38 -9z" />
    <glyph glyph-name="uniFE8C" unicode="&#x626;" horiz-adv-x="715" arabic-form="medial" 
d="M-51.5 153q22.5 23 55.5 23h17q177 0 261.5 63t84.5 193q0 53 -10 106q-12 62 -29 126q21 5 76 22q35 11 73 21q46 -170 50 -291q3 -65 10 -106.5t24 -69.5q19 -32 53.5 -48t89.5 -16q32 0 55.5 -23t23.5 -55q0 -33 -23 -55.5t-55 -22.5q-90 0 -160 38q-62 32 -112 96
q-70 -67 -171 -100.5t-241 -33.5h-17q-33 0 -55.5 22.5t-22.5 55.5q0 32 22.5 55zM475 1308q-12 3 -56 11q-22 2 -36 2q-34 0 -62 -12v2q-32 -14 -51.5 -42.5t-19.5 -61.5q0 -15 8 -36l-1 1q14 -36 50 -59t78 -23q11 0 21.5 1t20.5 6q39 12 96 46q24 14 43 29l59 -78
q-28 -21 -67 -43.5t-113 -63.5l-62 -35l-227 -126l-48 87l179 100q-41 17 -72 48.5t-49 71.5q-14 36 -14 74q0 64 37 116q36 53 96 77q45 19 98 19q36 0 82 -10l38 -9z" />
    <glyph glyph-name="uniFE8A" unicode="&#x626;" horiz-adv-x="1683" arabic-form="final" 
d="M479 -590q-188 54 -268 190q-93 135 -93 351v24q0 15 1 24q14 266 161 627l74 -30l71 -29q-72 -181 -110.5 -340.5t-38.5 -279.5q0 -161 65 -259q53 -76 148 -116q76 -33 179 -42q60 -5 162 -5q35 0 90.5 5.5t114.5 16.5q155 29 251 81q123 67 123 162q0 15 -12 34.5
t-37 40.5q-65 52 -170 90q-69 23 -136 41q-56 15 -98 23h-3l11 158l752 -1q33 0 56 -22.5t23 -55.5t-23 -55.5t-56 -22.5h-295q80 -65 118 -133q27 -48 27 -97q-1 -149 -135 -254q-106 -84 -296 -131q-148 -37 -305 -37q-208 0 -351 42zM908 606q-12 3 -56 11q-22 2 -36 2
q-34 0 -62 -12v2q-32 -14 -51.5 -42.5t-19.5 -61.5q0 -15 8 -36l-1 1q14 -36 50 -59t78 -23q11 0 21.5 1t20.5 6q39 12 96 46q24 14 43 29l59 -78q-28 -21 -67 -43.5t-113 -63.5l-62 -35l-227 -126l-48 87l179 100q-41 17 -72 48.5t-49 71.5q-14 36 -14 74q0 64 37 116
q36 53 96 77q45 19 98 19q36 0 82 -10l38 -9z" />
    <glyph glyph-name="uni06C2" unicode="&#x6c2;" horiz-adv-x="993" 
d="M462 17q-44 2 -110 19q-33 9 -71 26q-89 42 -135.5 113t-46.5 168q0 85 40 177t118 187q48 58 132 135l-44 39q-15 14 -21 21l-8 8q-1 1 -2 0l107 114l37 -33q33 -29 114 -109l63 -67q117 -134 177.5 -254t60.5 -218q0 -96 -43 -167.5t-125 -112.5q-52 -25 -123 -38
q-44 -9 -97 -9zM473 719q-34 -30 -73.5 -72.5t-72.5 -88.5q-86 -122 -86 -214q0 -38 25.5 -75t82.5 -64h-1q39 -18 82 -25q30 -5 55 -5q37 0 65 4q51 8 85 24q47 26 71 56.5t24 78.5q0 65 -62 168q-60 96 -161 208l-18 20zM518 1550q-12 3 -56 11q-22 2 -36 2q-34 0 -62 -12
v2q-32 -14 -51.5 -42.5t-19.5 -61.5q0 -15 8 -36l-1 1q14 -36 50 -59t78 -23q11 0 21.5 1t20.5 6q39 12 96 46q24 14 43 29l59 -78q-28 -21 -67 -43.5t-113 -63.5l-62 -35l-227 -126l-48 87l179 100q-41 17 -72 48.5t-49 71.5q-14 36 -14 74q0 64 37 116q36 53 96 77
q45 19 98 19q36 0 82 -10l38 -9z" />
    <glyph glyph-name="uniFBA6" unicode="&#x6c1;" horiz-adv-x="974" arabic-form="isolated" 
d="M462 17q-44 2 -110 19q-33 9 -71 26q-89 42 -135.5 113t-46.5 168q0 85 40 177t118 187q48 58 132 135l-44 39q-15 14 -21 21l-8 8q-1 1 -2 0l107 114l37 -33q33 -29 114 -109l63 -67q117 -134 177.5 -254t60.5 -218q0 -96 -43 -167.5t-125 -112.5q-52 -25 -123 -38
q-44 -9 -97 -9zM473 719q-34 -30 -73.5 -72.5t-72.5 -88.5q-86 -122 -86 -214q0 -38 25.5 -75t82.5 -64h-1q39 -18 82 -25q30 -5 55 -5q37 0 65 4q51 8 85 24q47 26 71 56.5t24 78.5q0 65 -62 168q-60 96 -161 208l-18 20z" />
    <glyph glyph-name="uni06C3" unicode="&#x6c3;" horiz-adv-x="1020" 
d="M462 17q-44 2 -110 19q-33 9 -71 26q-89 42 -135.5 113t-46.5 168q0 85 40 177t118 187q48 58 132 135l-44 39q-15 14 -21 21l-8 8q-1 1 -2 0l107 114l37 -33q33 -29 114 -109l63 -67q117 -134 177.5 -254t60.5 -218q0 -96 -43 -167.5t-125 -112.5q-52 -25 -123 -38
q-44 -9 -97 -9zM473 719q-34 -30 -73.5 -72.5t-72.5 -88.5q-86 -122 -86 -214q0 -38 25.5 -75t82.5 -64h-1q39 -18 82 -25q30 -5 55 -5q37 0 65 4q51 8 85 24q47 26 71 56.5t24 78.5q0 65 -62 168q-60 96 -161 208l-18 20zM411 1370l-146 -146l-148 147l146 147zM766 1368
l-145 -146l-148 148l146 146z" />
    <glyph glyph-name="uniFBAB" unicode="&#x6be;" horiz-adv-x="1169" arabic-form="final" 
d="M734 721q-43 -32 -93 -97q-39 -55 -64 -112q-36 -79 -51 -162q-6 -42 -6 -88q0 -40 4 -76l46 7l20 5l19 4q163 46 212 176q25 62 25 132q0 65 -24 119q-13 31 -30 54.5t-33 36.5zM75 60q16 15 66 34l225 90q-4 39 -4 79q0 109 39 238q28 85 79 166q34 54 83 109
q42 46 79 74q58 44 107 44q51 0 104 -44q26 -22 44 -44.5t20 -25.5q55 -77 80 -192q7 -38 7 -77q0 -84 -34 -188q-44 -115 -135 -185q-81 -61 -186 -88q-21 -7 -90 -19q59 -144 177 -303q20 114 52 177q55 119 162 195q53 39 107.5 57.5t114.5 18.5q33 0 56 -23t23 -55
q0 -33 -23 -55.5t-56 -22.5h-9q-75 -3 -123 -42q-42 -34 -67 -70q-21 -30 -43 -72q-35 -77 -35 -146q0 -100 71 -187l12 -11l-51 -61q-25 -28 -51 -60q-182 151 -298.5 302.5t-167.5 307.5l-16 44l-23 -8q-51 -18 -108 -36l-132 -45q-32 1 -53.5 23.5t-21.5 54.5q0 28 19 46
z" />
    <glyph glyph-name="uniFBAC" unicode="&#x6be;" horiz-adv-x="1473" arabic-form="initial" 
d="M-58 153.5q24 22.5 58 22.5h9q130 0 214 6q80 6 143 16q-86 84 -129 166t-43 159q0 55 16 112.5t47 109.5q34 55 85 97t118 64l-107 41l77 144l118 -45q34 -14 51 -20q111 -45 162 -63q208 -91 340 -165q161 -91 217 -168q88 -121 88 -248q0 -95 -50.5 -175t-148.5 -133
l1 1q-51 -30 -145 -45q-81 -13 -161 -13q-93 0 -174 13.5t-162 47.5q-98 -30 -258 -45q-142 -13 -299 -13h-9q-34 0 -58 23t-24 56q0 32 24 54.5zM938 571q0 -90 -51 -200q-53 -110 -138 -188q70 -14 134 -14h48q154 0 246 67q40 30 61 71t21 87q0 40 -23 87.5t-67 94.5
q-101 106 -258 169q18 -45 23 -84t4 -78v-12zM642 801q-14 5 -25 3q-64 -6 -117 -33t-90 -69q-31 -35 -47.5 -76.5t-16.5 -84.5q0 -17 3 -34q11 -74 70 -146q55 -67 134 -112q107 46 166 144q26 43 40 91.5t14 94.5q0 84 -36 148q-38 67 -94 74h-1z" />
    <glyph glyph-name="uniFBAD" unicode="&#x6be;" horiz-adv-x="1005" arabic-form="medial" 
d="M510 725q-27 -3 -55 -26.5t-54 -61.5q-49 -73 -82 -184q-34 -110 -34 -199q0 -26 5 -64q27 -4 47 -4q62 0 114.5 28.5t90.5 77.5q36 47 55.5 105.5t19.5 116.5q0 65 -23 118.5t-70 88.5zM-56.5 153q22.5 23 55.5 23h133l-1 28q0 115 38 255q22 81 55 156t74 134
q95 134 214 145q57 0 104 -37.5t82 -103.5q32 -61 49 -135.5t17 -144.5q0 -93 -28 -150q-41 -119 -158 -197q-104 -69 -253 -95q35 -90 91 -177q77 -120 152 -164q-1 11 -1 32q0 109 56 210q30 53 72.5 98t94.5 78q51 33 106 50.5t109 17.5q33 0 56 -23t23 -55
q0 -33 -23 -55.5t-56 -22.5h-9q-61 -3 -115.5 -31.5t-96.5 -77.5q-43 -48 -66.5 -107t-23.5 -120q0 -108 75 -191l-104 -125q-189 117 -319 290q-114 150 -170 323l-14 39h-163q-33 0 -55.5 22.5t-22.5 55.5q0 32 22.5 55z" />
    <glyph glyph-name="uniFE70" unicode="&#xfe70;" arabic-form="isolated" 
d="M485 1581l-616 -247v90l616 239v-82zM487 1322l-616 -247v90l616 239v-82z" />
    <glyph glyph-name="uniFE72" unicode="&#xfe72;" arabic-form="isolated" 
d="M361 1488q0 39 -15 78l-2 3l-1 4q-1 6 -5 11q-5 12 -14 24q-23 30 -57 26q-32 0 -60.5 -20.5t-45 -48.5t-12.5 -49q6 -32 36 -58q5 -4 29 -19l15 -8l16 -8l10 -5q37 -17 78 -35q28 52 28 105zM438 1346l-26 -72l-48 17l-1 -1q-22 -20 -34 -29q-34 -26 -73.5 -47
t-92.5 -44q-67 -30 -158 -52q-13 -4 -36 -9l-17 -4l-10 -3l-42 61v2l1 2l2 8l7 18q8 25 11 40t5 31t2 28q0 59 -36 76q-14 6 -30 6q-24 0 -54 -15q-8 -4 -21 -13l-10 -8l-5 -3l-3 -3l-46 56q61 60 140 60q44 0 78 -24q59 -40 59 -137q0 -47 -11 -95l-1 -4l4 1
q97 30 164 59.5t124 69.5l4 2l-4 2q-1 1 -42 20l-34 16l-32 17q-42 25 -69 59.5t-27 85.5q0 49 28.5 92.5t73.5 69.5t91 26h8q43 -2 77.5 -30t54 -73.5t19.5 -99.5q0 -64 -25 -143l-1 -3z" />
    <glyph glyph-name="uniFE74" unicode="&#xfe74;" arabic-form="isolated" 
d="M505 -168l-616 -247v90l616 239v-82zM507 -427l-616 -247v90l616 239v-82z" />
    <glyph glyph-name="uniFE76" unicode="&#xfe76;" arabic-form="isolated" 
d="M477 1356l-616 -247v90l616 239v-82z" />
    <glyph glyph-name="uniFE78" unicode="&#xfe78;" arabic-form="isolated" 
d="M72 1530q0 -27 23 -48q12 -11 31 -22l18 -9l17 -9l11 -5l96 -42q23 51 23 105q0 78 -46 127q-18 19 -46 19q-25 0 -51.5 -14.5t-46.5 -37t-26 -44.5q-3 -10 -3 -20zM371 1356l-26 -68l-3 1l-1 1l-2 1l-3 1q-11 4 -14 5q-24 10 -27 11l-3 -3l-4 -4q-5 -3 -12 -10l-23 -20
q-70 -56 -175 -106l-29 -13q-119 -51 -135 -54h-2l-26 71l3 1q167 48 334 161l-2 1l-14 6l-15 5l-31 13q-39 19 -60 31q-100 59 -100 140q0 39 23 78q31 56 80 84.5t100 28.5q27 0 51 -7.5t48 -32.5q13 -13 31 -42q30 -54 30 -131q0 -72 -28 -134z" />
    <glyph glyph-name="uniFE7A" unicode="&#xfe7a;" arabic-form="isolated" 
d="M501 -215l-616 -247v90l616 239v-82z" />
    <glyph glyph-name="uniFE7C" unicode="&#xfe7c;" arabic-form="isolated" 
d="M53 1088q-56 1 -98 25q-32 17 -48 46q-22 35 -22 89q0 39 10.5 77.5t22.5 61.5l35 -16l34 -15q-24 -62 -24 -109q0 -33 9 -48t32.5 -24.5t51.5 -9.5q45 0 66 26l-1 -1q40 47 40 160v16q-1 4 -1 13q38 7 52 11q12 3 14 7q18 -129 53 -180q26 -37 58 -37q45 3 65 30t20 70
q0 48 -20 99q-22 55 -48 86l32 22l31 20q34 -53 52 -94q32 -71 32 -129q0 -13 -2.5 -32t-5.5 -29q-23 -61 -71 -92q-42 -26 -90 -26q-74 0 -127 69q-61 -86 -145 -86h-7z" />
    <glyph glyph-name="uniFE7E" unicode="&#xfe7e;" arabic-form="isolated" 
d="M234.5 1192q25.5 13 45.5 35t30.5 50.5t8.5 59.5q-1 26 -10 54.5t-25 50.5q-40 52 -101 52q-29 0 -54.5 -14.5t-44.5 -38.5q-18 -22 -28 -50t-10 -54q0 -27 11.5 -55t30.5 -51t44 -37.5t51 -14.5t51.5 13zM269.5 1558q39.5 -21 70.5 -58q29 -34 45.5 -77t18.5 -86
q1 -46 -15.5 -89t-47.5 -78q-31 -36 -72.5 -56t-88.5 -20q-48 0 -88 20t-70 56q-29 35 -44.5 78.5t-15.5 88.5q0 43 15.5 86t44.5 77q31 36 72 57.5t89 21.5q47 0 86.5 -21z" />
    <glyph glyph-name="uniFC5E" unicode="&#xfc5e;" arabic-form="isolated" 
d="M45 1104q-56 1 -98 25q-32 17 -48 46q-22 35 -22 89q0 39 10.5 77.5t22.5 61.5l35 -16l34 -15q-24 -62 -24 -109q0 -33 9 -48t32.5 -24.5t51.5 -9.5q45 0 66 26l-1 -1q40 47 40 160v16q-1 4 -1 13q38 7 52 11q12 3 14 7q18 -129 53 -180q26 -37 58 -37q45 3 65 30t20 70
q0 48 -20 99q-22 55 -48 86l32 22l31 20q34 -53 52 -94q32 -71 32 -129q0 -13 -2.5 -32t-5.5 -29q-23 -61 -71 -92q-42 -26 -90 -26q-74 0 -127 69q-61 -86 -145 -86h-7zM308 1912q0 39 -15 78l-2 3l-1 4q-1 6 -5 11q-5 12 -14 24q-23 30 -57 26q-32 0 -60.5 -20.5
t-45 -48.5t-12.5 -49q6 -32 36 -58q5 -4 29 -19l15 -8l16 -8l10 -5q37 -17 78 -35q28 52 28 105zM385 1770l-26 -72l-48 17l-1 -1q-22 -20 -34 -29q-34 -26 -73.5 -47t-92.5 -44q-67 -30 -158 -52q-13 -4 -36 -9l-17 -4l-10 -3l-42 61v2l1 2l2 8l7 18q8 25 11 40t5 31t2 28
q0 59 -36 76q-14 6 -30 6q-24 0 -54 -15q-8 -4 -21 -13l-10 -8l-5 -3l-3 -3l-46 56q61 60 140 60q44 0 78 -24q59 -40 59 -137q0 -47 -11 -95l-1 -4l4 1q97 30 164 59.5t124 69.5l4 2l-4 2q-1 1 -42 20l-34 16l-32 17q-42 25 -69 59.5t-27 85.5q0 49 28.5 92.5t73.5 69.5
t91 26h8q43 -2 77.5 -30t54 -73.5t19.5 -99.5q0 -64 -25 -143l-1 -3z" />
    <glyph glyph-name="uniFC5F" unicode="&#xfc5f;" arabic-form="isolated" 
d="M37 1727q-56 1 -98 25q-32 17 -48 46q-22 35 -22 89q0 39 10.5 77.5t22.5 61.5l35 -16l34 -15q-24 -62 -24 -109q0 -33 9 -48t32.5 -24.5t51.5 -9.5q45 0 66 26l-1 -1q40 47 40 160v16q-1 4 -1 13q38 7 52 11q12 3 14 7q18 -129 53 -180q26 -37 58 -37q45 3 65 30t20 70
q0 48 -20 99q-22 55 -48 86l32 22l31 20q34 -53 52 -94q32 -71 32 -129q0 -13 -2.5 -32t-5.5 -29q-23 -61 -71 -92q-42 -26 -90 -26q-74 0 -127 69q-61 -86 -145 -86h-7zM495 1607l-616 -247v90l616 239v-82zM497 1348l-616 -247v90l616 239v-82z" />
    <glyph glyph-name="uniFC60" unicode="&#xfc60;" arabic-form="isolated" 
d="M39 1091q-56 1 -98 25q-32 17 -48 46q-22 35 -22 89q0 39 10.5 77.5t22.5 61.5l35 -16l34 -15q-24 -62 -24 -109q0 -33 9 -48t32.5 -24.5t51.5 -9.5q45 0 66 26l-1 -1q40 47 40 160v16q-1 4 -1 13q38 7 52 11q12 3 14 7q18 -129 53 -180q26 -37 58 -37q45 3 65 30t20 70
q0 48 -20 99q-22 55 -48 86l32 22l31 20q34 -53 52 -94q32 -71 32 -129q0 -13 -2.5 -32t-5.5 -29q-23 -61 -71 -92q-42 -26 -90 -26q-74 0 -127 69q-61 -86 -145 -86h-7zM451 1735l-616 -247v90l616 239v-82z" />
    <glyph glyph-name="uniFC61" unicode="&#xfc61;" arabic-form="isolated" 
d="M41 1093q-56 1 -98 25q-32 17 -48 46q-22 35 -22 89q0 39 10.5 77.5t22.5 61.5l35 -16l34 -15q-24 -62 -24 -109q0 -33 9 -48t32.5 -24.5t51.5 -9.5q45 0 66 26l-1 -1q40 47 40 160v16q-1 4 -1 13q38 7 52 11q12 3 14 7q18 -129 53 -180q26 -37 58 -37q45 3 65 30t20 70
q0 48 -20 99q-22 55 -48 86l32 22l31 20q34 -53 52 -94q32 -71 32 -129q0 -13 -2.5 -32t-5.5 -29q-23 -61 -71 -92q-42 -26 -90 -26q-74 0 -127 69q-61 -86 -145 -86h-7zM79 1945q0 -27 23 -48q12 -11 31 -22l18 -9l17 -9l11 -5l96 -42q23 51 23 105q0 78 -46 127
q-18 19 -46 19q-25 0 -51.5 -14.5t-46.5 -37t-26 -44.5q-3 -10 -3 -20zM378 1771l-26 -68l-3 1l-1 1l-2 1l-3 1q-11 4 -14 5q-24 10 -27 11l-3 -3l-4 -4q-5 -3 -12 -10l-23 -20q-70 -56 -175 -106l-29 -13q-119 -51 -135 -54h-2l-26 71l3 1q167 48 334 161l-2 1l-14 6l-15 5
l-31 13q-39 19 -60 31q-100 59 -100 140q0 39 23 78q31 56 80 84.5t100 28.5q27 0 51 -7.5t48 -32.5q13 -13 31 -42q30 -54 30 -131q0 -72 -28 -134z" />
    <glyph glyph-name="uniFC62" unicode="&#xfc62;" arabic-form="isolated" 
d="M32 1446q-56 1 -98 25q-32 17 -48 46q-22 35 -22 89q0 39 10.5 77.5t22.5 61.5l35 -16l34 -15q-24 -62 -24 -109q0 -33 9 -48t32.5 -24.5t51.5 -9.5q45 0 66 26l-1 -1q40 47 40 160v16q-1 4 -1 13q38 7 52 11q12 3 14 7q18 -129 53 -180q26 -37 58 -37q45 3 65 30t20 70
q0 48 -20 99q-22 55 -48 86l32 22l31 20q34 -53 52 -94q32 -71 32 -129q0 -13 -2.5 -32t-5.5 -29q-23 -61 -71 -92q-42 -26 -90 -26q-74 0 -127 69q-61 -86 -145 -86h-7zM472 1332l-616 -247v90l616 239v-82z" />
    <glyph glyph-name="uniFC63" unicode="&#xfc63;" arabic-form="isolated" 
d="M43 1088q-56 1 -98 25q-32 17 -48 46q-22 35 -22 89q0 39 10.5 77.5t22.5 61.5l35 -16l34 -15q-24 -62 -24 -109q0 -33 9 -48t32.5 -24.5t51.5 -9.5q45 0 66 26l-1 -1q40 47 40 160v16q-1 4 -1 13q38 7 52 11q12 3 14 7q18 -129 53 -180q26 -37 58 -37q45 3 65 30t20 70
q0 48 -20 99q-22 55 -48 86l32 22l31 20q34 -53 52 -94q32 -71 32 -129q0 -13 -2.5 -32t-5.5 -29q-23 -61 -71 -92q-42 -26 -90 -26q-74 0 -127 69q-61 -86 -145 -86h-7zM145 1525q17 82 17 173q0 41 -5 108q-6 58 -14 103q21 7 42 11q26 5 39 10q7 -36 14 -102
q5 -65 5 -112q0 -108 -19 -211z" />
    <glyph glyph-name="uni0672.fina" unicode="&#x672;" horiz-adv-x="569" 
d="M361 44.5q-75 24.5 -126 75.5q-53 53 -71 138q-10 47 -10 122q4 160 4 285q0 175 -2 268q-3 131 -10 283q-8 132 -21 216l156 28q15 -86 23 -231q8 -176 9 -299q2 -196 2 -285l-1 -160q-1 -44 -1 -130q0 -46 7 -74.5t29 -49.5q25 -25 72 -39.5t112 -15.5h9q32 0 55.5 -23
t23.5 -55q0 -33 -23 -55.5t-56 -22.5q-106 0 -181 24.5zM550 1914q-35 35 -79 53q-24 10 -57 10q-50 0 -80 -33q-13 -15 -20.5 -35t-7.5 -41q0 -56 48 -92q22 -17 50 -26t58 -7q37 3 97 12q9 2 19.5 3.5t22.5 4.5l12 -87l-20 -6l-39 -11q-77 -25 -185 -25q-52 0 -117 12
q-14 2 -21 5l-52 14q-17 2 -22 1q-49 -4 -77 -24q-12 -8 -23 -19q-15 -15 -24 -22l-48 65l28 26q34 34 77 54q31 15 58 15q9 0 29 -4q33 -8 99 -30q-32 30 -46 64t-14 77q0 40 15 76.5t42 63.5q27 28 63 43.5t78 15.5q69 0 139 -42q31 -19 53 -42z" />
    <glyph glyph-name="uni0673.fina" unicode="&#x673;" horiz-adv-x="542" 
d="M400 44.5q-75 24.5 -126 75.5q-53 53 -71 138q-10 47 -10 122v18q2 17 3 90q1 48 1 177q0 61 -2 173q0 162 -8 343q-9 198 -23 281l156 28q17 -100 25 -280q7 -194 7 -348q2 -154 2 -217q0 -143 -2 -223v-26v-18q-1 -58 5 -90.5t31 -56.5q25 -25 72 -39.5t112 -15.5h9
q32 0 55.5 -23t23.5 -55q0 -33 -23 -55.5t-56 -22.5q-106 0 -181 24.5zM602 -271q-35 35 -79 53q-24 10 -57 10q-50 0 -80 -33q-13 -15 -20.5 -35t-7.5 -41q0 -56 48 -92q22 -17 50 -26t58 -7q37 3 97 12q9 2 19.5 3.5t22.5 4.5l12 -87l-20 -6l-39 -11q-77 -25 -185 -25
q-52 0 -117 12q-14 2 -21 5l-52 14q-17 2 -22 1q-49 -4 -77 -24q-12 -8 -23 -19q-15 -15 -24 -22l-48 65l28 26q34 34 77 54q31 15 58 15q9 0 29 -4q33 -8 99 -30q-32 30 -46 64t-14 77q0 40 15 76.5t42 63.5q27 28 63 43.5t78 15.5q69 0 139 -42q31 -19 53 -42z" />
    <glyph glyph-name="uni0675.fina" unicode="&#x675;" horiz-adv-x="536" 
d="M361 44.5q-75 24.5 -126 75.5q-53 53 -71 138q-10 47 -10 122q4 160 4 285q0 175 -2 268q-3 131 -10 283q-8 132 -21 216l156 28q15 -86 23 -231q8 -176 9 -299q2 -196 2 -285l-1 -160q-1 -44 -1 -130q0 -46 7 -74.5t29 -49.5q25 -25 72 -39.5t112 -15.5h9q32 0 55.5 -23
t23.5 -55q0 -33 -23 -55.5t-56 -22.5q-106 0 -181 24.5zM767 1635q-10 1 -32 5q-30 6 -63 6q-42 0 -73 -15h1q-39 -15 -63 -49.5t-24 -73.5q0 -25 10 -45q16 -39 59 -68t93 -29q28 0 51 9l-1 -1q38 11 91 42q44 24 58 37l53 -69q-51 -35 -201 -118l-59 -33l-244 -135l-21 39
l-21 38l210 117q-53 23 -92.5 59t-58.5 78q-14 37 -14 79q0 67 39 123q41 58 102 82q52 20 105 20q35 0 68.5 -5.5t52.5 -12.5z" />
    <glyph glyph-name="uni0676.fina" unicode="&#x676;" horiz-adv-x="1051" 
d="M102 -525q147 32 269 90.5t213 134.5q86 73 137.5 155.5t63.5 164.5h-77q-92 0 -157 5q-207 14 -306 135v-1q-61 78 -61 200q0 85 35 187q29 88 82 161q46 57 103 88.5t115 31.5q133 0 246 -122v1q81 -90 131 -232q49 -144 53 -298h94q33 0 56.5 -23t23.5 -56
q0 -32 -23.5 -54.5t-56.5 -22.5h-107q-28 -142 -102.5 -260.5t-185.5 -210.5q-106 -88 -236.5 -146t-272.5 -82zM448 641q-36 -29 -66 -77q-29 -47 -47 -101t-18 -101q0 -32 9.5 -59t25.5 -47v1q30 -38 102 -58q53 -16 107 -18q55 -3 118 -3q55 0 112 5q-6 132 -48 248
q-38 103 -96 168q-30 32 -55 48q-36 23 -73 23q-35 0 -71 -29zM1235 1239q-10 1 -32 5q-30 6 -63 6q-42 0 -73 -15h1q-39 -15 -63 -49.5t-24 -73.5q0 -25 10 -45q16 -39 59 -68t93 -29q28 0 51 9l-1 -1q38 11 91 42q44 24 58 37l53 -69q-51 -35 -201 -118l-59 -33l-244 -135
l-21 39l-21 38l210 117q-53 23 -92.5 59t-58.5 78q-14 37 -14 79q0 67 39 123q41 58 102 82q52 20 105 20q35 0 68.5 -5.5t52.5 -12.5z" />
    <glyph glyph-name="uni0677.fina" unicode="&#x677;" horiz-adv-x="1078" 
d="M102 -525q147 32 269 90.5t213 134.5q86 73 137.5 155.5t63.5 164.5h-77q-92 0 -157 5q-207 14 -306 135v-1q-61 78 -61 200q0 85 35 187q29 88 82 161q46 57 103 88.5t115 31.5q133 0 246 -122v1q81 -90 131 -232q49 -144 53 -298h94q33 0 56.5 -23t23.5 -56
q0 -32 -23.5 -54.5t-56.5 -22.5h-107q-28 -142 -102.5 -260.5t-185.5 -210.5q-106 -88 -236.5 -146t-272.5 -82zM448 641q-36 -29 -66 -77q-29 -47 -47 -101t-18 -101q0 -32 9.5 -59t25.5 -47v1q30 -38 102 -58q53 -16 107 -18q55 -3 118 -3q55 0 112 5q-6 132 -48 248
q-38 103 -96 168q-30 32 -55 48q-36 23 -73 23q-35 0 -71 -29zM22 1151q0 -27 23 -48q12 -11 31 -22l18 -9l17 -9l11 -5l96 -42q23 51 23 105q0 78 -46 127q-18 19 -46 19q-25 0 -51.5 -14.5t-46.5 -37t-26 -44.5q-3 -10 -3 -20zM321 977l-26 -68l-3 1l-1 1l-2 1l-3 1
q-11 4 -14 5q-24 10 -27 11l-3 -3l-4 -4q-5 -3 -12 -10l-23 -20q-70 -56 -175 -106l-29 -13q-119 -51 -135 -54h-2l-26 71l3 1q167 48 334 161l-2 1l-14 6l-15 5l-31 13q-39 19 -60 31q-100 59 -100 140q0 39 23 78q31 56 80 84.5t100 28.5q27 0 51 -7.5t48 -32.5
q13 -13 31 -42q30 -54 30 -131q0 -72 -28 -134zM1257 1234q-10 1 -32 5q-30 6 -63 6q-42 0 -73 -15h1q-39 -15 -63 -49.5t-24 -73.5q0 -25 10 -45q16 -39 59 -68t93 -29q28 0 51 9l-1 -1q38 11 91 42q44 24 58 37l53 -69q-51 -35 -201 -118l-59 -33l-244 -135l-21 39l-21 38
l210 117q-53 23 -92.5 59t-58.5 78q-14 37 -14 79q0 67 39 123q41 58 102 82q52 20 105 20q35 0 68.5 -5.5t52.5 -12.5z" />
    <glyph glyph-name="uni0678.fina" unicode="&#x678;" horiz-adv-x="1707" 
d="M479 -590q-188 54 -268 190q-93 135 -93 351v24q0 15 1 24q14 266 161 627l74 -30l71 -29q-72 -181 -110.5 -340.5t-38.5 -279.5q0 -161 65 -259q53 -76 148 -116q76 -33 179 -42q60 -5 162 -5q35 0 90.5 5.5t114.5 16.5q155 29 251 81q123 67 123 162q0 15 -12 34.5
t-37 40.5q-65 52 -170 90q-69 23 -136 41q-56 15 -98 23h-3l11 158l752 -1q33 0 56 -22.5t23 -55.5t-23 -55.5t-56 -22.5h-295q80 -65 118 -133q27 -48 27 -97q-1 -149 -135 -254q-106 -84 -296 -131q-148 -37 -305 -37q-208 0 -351 42zM902 837q-10 1 -32 5q-30 6 -63 6
q-42 0 -73 -15h1q-39 -15 -63 -49.5t-24 -73.5q0 -25 10 -45q16 -39 59 -68t93 -29q28 0 51 9l-1 -1q38 11 91 42q44 24 58 37l53 -69q-51 -35 -201 -118l-59 -33l-244 -135l-21 39l-21 38l210 117q-53 23 -92.5 59t-58.5 78q-14 37 -14 79q0 67 39 123q41 58 102 82
q52 20 105 20q35 0 68.5 -5.5t52.5 -12.5z" />
    <glyph glyph-name="uni067A.init" unicode="&#x67a;" horiz-adv-x="827" arabic-form="initial" 
d="M-55 153.5q23 22.5 55 22.5h111q75 0 136.5 3.5t117.5 14.5q148 28 185 112v-1q16 32 16 88q0 44 -12.5 100t-37.5 135q-14 42 -42 111q-12 30 -21 50l-17 37l142 71l16 -36q25 -56 47 -114l24 -71q52 -160 52 -281q0 -90 -28 -153q-36 -74 -97 -126t-143 -75
q-39 -12 -151 -18q-58 -3 -144 -3h-154q-32 0 -55 22.5t-23 55.5t23 55.5zM490 1529l-149 -149l-150 150l149 149zM489 1140l-149 -149l-150 150l149 149z" />
    <glyph glyph-name="uni067A.medi" unicode="&#x67a;" horiz-adv-x="861" arabic-form="medial" 
d="M-58.5 153.5q22.5 22.5 55.5 22.5h76q209 0 312 44q128 55 128 190q0 64 -9 115q-7 43 -28 124q21 5 76 22q35 11 73 21q21 -75 31 -148l8 -67q7 -80 21 -155q17 -89 78 -126q35 -20 92 -20q33 0 56.5 -22.5t23.5 -55.5t-23 -55.5t-55 -22.5q-91 0 -161 40
q-67 36 -112 98q-70 -69 -223 -106q-134 -32 -288 -32h-76q-33 0 -55.5 22.5t-22.5 55.5t22.5 55.5zM521 1413l-149 -149l-150 150l149 149zM520 1024l-149 -149l-150 150l149 149z" />
    <glyph glyph-name="uni067A.fina" unicode="&#x67a;" horiz-adv-x="2241" arabic-form="final" 
d="M1938 177q-38 45 -69 133q-281 -293 -841 -293q-305 2 -497.5 71t-278.5 214q-64 105 -64 243q0 73 18 143q28 112 66 191l70 -39q32 -19 69 -39l-18 -40q-26 -53 -42 -127q-9 -37 -9 -77q0 -91 42 -165q65 -104 231 -159q168 -57 413 -57q225 0 384 40.5t263 125.5
l-1 -1q84 67 136 165q42 78 71 180q45 -11 77 -21q35 -11 75 -21q-9 -33 -19 -80q-11 -57 -11 -96q0 -46 14 -104q13 -52 46 -91l-1 1q78 -98 254 -98q33 0 56 -22.5t23 -55.5t-23 -55.5t-56 -22.5h-8q-250 3 -369 156zM1160 1192l-149 -149l-150 150l149 149zM1159 803
l-149 -149l-150 150l149 149z" />
    <glyph glyph-name="uni067B.init" unicode="&#x67b;" horiz-adv-x="684" arabic-form="initial" 
d="M-62 153.5q23 22.5 55 22.5h103h23q7 -1 22 -1q112 0 175 24q79 30 114 107v-1q16 32 16 88q0 92 -44 235q-14 42 -42 111q-12 30 -21 50l-17 37l142 71l16 -36q25 -56 47 -114l24 -71q52 -160 52 -281q0 -90 -28 -153q-36 -74 -97 -126t-143 -75q-46 -13 -91.5 -17
t-104.5 -4h-146q-32 0 -55 22.5t-23 55.5t23 55.5zM453 -343l-149 -149l-150 150l149 149zM462 -742l-149 -149l-150 150l149 149z" />
    <glyph glyph-name="uni067B.medi" unicode="&#x67b;" horiz-adv-x="705" arabic-form="medial" 
d="M-51.5 153q22.5 23 55.5 23h17q177 0 261.5 63t84.5 193q0 53 -10 106q-12 62 -29 126q21 5 76 22q35 11 73 21q46 -170 50 -291q3 -65 10 -106.5t24 -69.5q19 -32 53.5 -48t89.5 -16q32 0 55.5 -23t23.5 -55q0 -33 -23 -55.5t-55 -22.5q-90 0 -160 38q-62 32 -112 96
q-70 -67 -171 -100.5t-241 -33.5h-17q-33 0 -55.5 22.5t-22.5 55.5q0 32 22.5 55zM525 -330l-149 -149l-150 150l149 149zM534 -729l-149 -149l-150 150l149 149z" />
    <glyph glyph-name="uni067B.fina" unicode="&#x67b;" horiz-adv-x="2231" arabic-form="final" 
d="M1938 177q-38 45 -69 133q-281 -293 -841 -293q-305 2 -497.5 71t-278.5 214q-64 105 -64 243q0 73 18 143q28 112 66 191l70 -39q32 -19 69 -39l-18 -40q-26 -53 -42 -127q-9 -37 -9 -77q0 -91 42 -165q65 -104 231 -159q168 -57 413 -57q225 0 384 40.5t263 125.5
l-1 -1q84 67 136 165q42 78 71 180q45 -11 77 -21q35 -11 75 -21q-9 -33 -19 -80q-11 -57 -11 -96q0 -46 14 -104q13 -52 46 -91l-1 1q78 -98 254 -98q33 0 56 -22.5t23 -55.5t-23 -55.5t-56 -22.5h-8q-250 3 -369 156zM1155 -342l-149 -149l-150 150l149 149zM1164 -741
l-149 -149l-150 150l149 149z" />
    <glyph glyph-name="uni067C.init" unicode="&#x67c;" horiz-adv-x="799" 
d="M-62 153.5q23 22.5 55 22.5h103h23q7 -1 22 -1q112 0 175 24q79 30 114 107v-1q16 32 16 88q0 92 -44 235q-14 42 -42 111q-12 30 -21 50l-17 37l142 71l16 -36q25 -56 47 -114l24 -71q52 -160 52 -281q0 -90 -28 -153q-36 -74 -97 -126t-143 -75q-46 -13 -91.5 -17
t-104.5 -4h-146q-32 0 -55 22.5t-23 55.5t23 55.5zM381.5 -213q25.5 13 45.5 35t30.5 50.5t8.5 59.5q-1 26 -10 54.5t-25 50.5q-40 52 -101 52q-29 0 -54.5 -14.5t-44.5 -38.5q-18 -22 -28 -50t-10 -54q0 -27 11.5 -55t30.5 -51t44 -37.5t51 -14.5t51.5 13zM416.5 153
q39.5 -21 70.5 -58q29 -34 45.5 -77t18.5 -86q1 -46 -15.5 -89t-47.5 -78q-31 -36 -72.5 -56t-88.5 -20q-48 0 -88 20t-70 56q-29 35 -44.5 78.5t-15.5 88.5q0 43 15.5 86t44.5 77q31 36 72 57.5t89 21.5q47 0 86.5 -21zM318 1221l-146 -146l-148 147l146 147zM673 1219
l-145 -146l-148 148l146 146z" />
    <glyph glyph-name="uni067C.medi" unicode="&#x67c;" horiz-adv-x="854" 
d="M-58.5 153.5q22.5 22.5 55.5 22.5h76q209 0 312 44q128 55 128 190q0 64 -9 115q-7 43 -28 124q21 5 76 22q35 11 73 21q21 -75 31 -148l8 -67q7 -80 21 -155q17 -89 78 -126q35 -20 92 -20q33 0 56.5 -22.5t23.5 -55.5t-23 -55.5t-55 -22.5q-91 0 -161 40
q-67 36 -112 98q-70 -69 -223 -106q-134 -32 -288 -32h-76q-33 0 -55.5 22.5t-22.5 55.5t22.5 55.5zM308 1061l-146 -146l-148 147l146 147zM663 1059l-145 -146l-148 148l146 146zM413.5 -207q25.5 13 45.5 35t30.5 50.5t8.5 59.5q-1 26 -10 54.5t-25 50.5q-40 52 -101 52
q-29 0 -54.5 -14.5t-44.5 -38.5q-18 -22 -28 -50t-10 -54q0 -27 11.5 -55t30.5 -51t44 -37.5t51 -14.5t51.5 13zM448.5 159q39.5 -21 70.5 -58q29 -34 45.5 -77t18.5 -86q1 -46 -15.5 -89t-47.5 -78q-31 -36 -72.5 -56t-88.5 -20q-48 0 -88 20t-70 56q-29 35 -44.5 78.5
t-15.5 88.5q0 43 15.5 86t44.5 77q31 36 72 57.5t89 21.5q47 0 86.5 -21z" />
    <glyph glyph-name="uni067C.fina" unicode="&#x67c;" horiz-adv-x="2236" 
d="M1938 177q-38 45 -69 133q-281 -293 -841 -293q-305 2 -497.5 71t-278.5 214q-64 105 -64 243q0 73 18 143q28 112 66 191l70 -39q32 -19 69 -39l-18 -40q-26 -53 -42 -127q-9 -37 -9 -77q0 -91 42 -165q65 -104 231 -159q168 -57 413 -57q225 0 384 40.5t263 125.5
l-1 -1q84 67 136 165q42 78 71 180q45 -11 77 -21q35 -11 75 -21q-9 -33 -19 -80q-11 -57 -11 -96q0 -46 14 -104q13 -52 46 -91l-1 1q78 -98 254 -98q33 0 56 -22.5t23 -55.5t-23 -55.5t-56 -22.5h-8q-250 3 -369 156zM986 962l-146 -146l-148 147l146 147zM1341 960
l-145 -146l-148 148l146 146zM1142.5 -237q25.5 13 45.5 35t30.5 50.5t8.5 59.5q-1 26 -10 54.5t-25 50.5q-40 52 -101 52q-29 0 -54.5 -14.5t-44.5 -38.5q-18 -22 -28 -50t-10 -54q0 -27 11.5 -55t30.5 -51t44 -37.5t51 -14.5t51.5 13zM1177.5 129q39.5 -21 70.5 -58
q29 -34 45.5 -77t18.5 -86q1 -46 -15.5 -89t-47.5 -78q-31 -36 -72.5 -56t-88.5 -20q-48 0 -88 20t-70 56q-29 35 -44.5 78.5t-15.5 88.5q0 43 15.5 86t44.5 77q31 36 72 57.5t89 21.5q47 0 86.5 -21z" />
    <glyph glyph-name="uni067D.init" unicode="&#x67d;" horiz-adv-x="827" 
d="M-55 153.5q23 22.5 55 22.5h111q75 0 136.5 3.5t117.5 14.5q148 28 185 112v-1q16 32 16 88q0 44 -12.5 100t-37.5 135q-14 42 -42 111q-12 30 -21 50l-17 37l142 71l16 -36q25 -56 47 -114l24 -71q52 -160 52 -281q0 -90 -28 -153q-36 -74 -97 -126t-143 -75
q-39 -12 -151 -18q-58 -3 -144 -3h-154q-32 0 -55 22.5t-23 55.5t23 55.5zM318 1478l-148 -148l-150 150l148 148zM672 1477l-148 -149l-150 150l148 149zM504 1202l-148 -148l-150 150l148 148z" />
    <glyph glyph-name="uni067D.medi" unicode="&#x67d;" horiz-adv-x="864" 
d="M-58.5 153.5q22.5 22.5 55.5 22.5h76q209 0 312 44q128 55 128 190q0 64 -9 115q-7 43 -28 124q21 5 76 22q35 11 73 21q21 -75 31 -148l8 -67q7 -80 21 -155q17 -89 78 -126q35 -20 92 -20q33 0 56.5 -22.5t23.5 -55.5t-23 -55.5t-55 -22.5q-91 0 -161 40
q-67 36 -112 98q-70 -69 -223 -106q-134 -32 -288 -32h-76q-33 0 -55.5 22.5t-22.5 55.5t22.5 55.5zM313 1404l-148 -148l-150 150l148 148zM667 1403l-148 -149l-150 150l148 149zM499 1128l-148 -148l-150 150l148 148z" />
    <glyph glyph-name="uni067D.fina" unicode="&#x67d;" horiz-adv-x="2229" 
d="M1938 177q-38 45 -69 133q-281 -293 -841 -293q-305 2 -497.5 71t-278.5 214q-64 105 -64 243q0 73 18 143q28 112 66 191l70 -39q32 -19 69 -39l-18 -40q-26 -53 -42 -127q-9 -37 -9 -77q0 -91 42 -165q65 -104 231 -159q168 -57 413 -57q225 0 384 40.5t263 125.5
l-1 -1q84 67 136 165q42 78 71 180q45 -11 77 -21q35 -11 75 -21q-9 -33 -19 -80q-11 -57 -11 -96q0 -46 14 -104q13 -52 46 -91l-1 1q78 -98 254 -98q33 0 56 -22.5t23 -55.5t-23 -55.5t-56 -22.5h-8q-250 3 -369 156zM981 1084l-148 -148l-150 150l148 148zM1335 1083
l-148 -149l-150 150l148 149zM1167 808l-148 -148l-150 150l148 148z" />
    <glyph glyph-name="uni067F.init" unicode="&#x67f;" horiz-adv-x="827" arabic-form="initial" 
d="M-55 153.5q23 22.5 55 22.5h111q75 0 136.5 3.5t117.5 14.5q148 28 185 112v-1q16 32 16 88q0 44 -12.5 100t-37.5 135q-14 42 -42 111q-12 30 -21 50l-17 37l142 71l16 -36q25 -56 47 -114l24 -71q52 -160 52 -281q0 -90 -28 -153q-36 -74 -97 -126t-143 -75
q-39 -12 -151 -18q-58 -3 -144 -3h-154q-32 0 -55 22.5t-23 55.5t23 55.5zM722 1210l-148 -149l-150 150l148 148zM362 1204l-148 -148l-150 149l148 149zM719 1611l-148 -149l-150 150l148 148zM359 1605l-148 -148l-150 149l148 149z" />
    <glyph glyph-name="uni067F.medi" unicode="&#x67f;" horiz-adv-x="854" arabic-form="medial" 
d="M-58.5 153.5q22.5 22.5 55.5 22.5h76q209 0 312 44q128 55 128 190q0 64 -9 115q-7 43 -28 124q21 5 76 22q35 11 73 21q21 -75 31 -148l8 -67q7 -80 21 -155q17 -89 78 -126q35 -20 92 -20q33 0 56.5 -22.5t23.5 -55.5t-23 -55.5t-55 -22.5q-91 0 -161 40
q-67 36 -112 98q-70 -69 -223 -106q-134 -32 -288 -32h-76q-33 0 -55.5 22.5t-22.5 55.5t22.5 55.5zM671 1091l-148 -149l-150 150l148 148zM311 1085l-148 -148l-150 149l148 149zM668 1492l-148 -149l-150 150l148 148zM308 1486l-148 -148l-150 149l148 149z" />
    <glyph glyph-name="uni067F.fina" unicode="&#x67f;" horiz-adv-x="2242" arabic-form="final" 
d="M1938 177q-38 45 -69 133q-281 -293 -841 -293q-305 2 -497.5 71t-278.5 214q-64 105 -64 243q0 73 18 143q28 112 66 191l70 -39q32 -19 69 -39l-18 -40q-26 -53 -42 -127q-9 -37 -9 -77q0 -91 42 -165q65 -104 231 -159q168 -57 413 -57q225 0 384 40.5t263 125.5
l-1 -1q84 67 136 165q42 78 71 180q45 -11 77 -21q35 -11 75 -21q-9 -33 -19 -80q-11 -57 -11 -96q0 -46 14 -104q13 -52 46 -91l-1 1q78 -98 254 -98q33 0 56 -22.5t23 -55.5t-23 -55.5t-56 -22.5h-8q-250 3 -369 156zM1362 874l-148 -149l-150 150l148 148zM1002 868
l-148 -148l-150 149l148 149zM1359 1275l-148 -149l-150 150l148 148zM999 1269l-148 -148l-150 149l148 149z" />
    <glyph glyph-name="uni0680.init" unicode="&#x680;" horiz-adv-x="827" arabic-form="initial" 
d="M-53 153.5q23 22.5 55 22.5h111q75 0 136.5 3.5t117.5 14.5q148 28 185 112v-1q16 32 16 88q0 44 -12.5 100t-37.5 135q-14 42 -42 111q-12 30 -21 50l-17 37l142 71l16 -36q25 -56 47 -114l24 -71q52 -160 52 -281q0 -90 -28 -153q-36 -74 -97 -126t-143 -75
q-39 -12 -151 -18q-58 -3 -144 -3h-154q-32 0 -55 22.5t-23 55.5t23 55.5zM678 -686l-148 -149l-150 150l148 148zM318 -692l-148 -148l-150 149l148 149zM675 -285l-148 -149l-150 150l148 148zM315 -291l-148 -148l-150 149l148 149z" />
    <glyph glyph-name="uni0680.medi" unicode="&#x680;" horiz-adv-x="864" arabic-form="medial" 
d="M-58.5 153.5q22.5 22.5 55.5 22.5h76q209 0 312 44q128 55 128 190q0 64 -9 115q-7 43 -28 124q21 5 76 22q35 11 73 21q21 -75 31 -148l8 -67q7 -80 21 -155q17 -89 78 -126q35 -20 92 -20q33 0 56.5 -22.5t23.5 -55.5t-23 -55.5t-55 -22.5q-91 0 -161 40
q-67 36 -112 98q-70 -69 -223 -106q-134 -32 -288 -32h-76q-33 0 -55.5 22.5t-22.5 55.5t22.5 55.5zM685 -730l-148 -149l-150 150l148 148zM325 -736l-148 -148l-150 149l148 149zM682 -329l-148 -149l-150 150l148 148zM322 -335l-148 -148l-150 149l148 149z" />
    <glyph glyph-name="uni0680.fina" unicode="&#x680;" horiz-adv-x="2238" arabic-form="final" 
d="M1938 177q-38 45 -69 133q-281 -293 -841 -293q-305 2 -497.5 71t-278.5 214q-64 105 -64 243q0 73 18 143q28 112 66 191l70 -39q32 -19 69 -39l-18 -40q-26 -53 -42 -127q-9 -37 -9 -77q0 -91 42 -165q65 -104 231 -159q168 -57 413 -57q225 0 384 40.5t263 125.5
l-1 -1q84 67 136 165q42 78 71 180q45 -11 77 -21q35 -11 75 -21q-9 -33 -19 -80q-11 -57 -11 -96q0 -46 14 -104q13 -52 46 -91l-1 1q78 -98 254 -98q33 0 56 -22.5t23 -55.5t-23 -55.5t-56 -22.5h-8q-250 3 -369 156zM1344 -724l-148 -149l-150 150l148 148zM984 -730
l-148 -148l-150 149l148 149zM1341 -323l-148 -149l-150 150l148 148zM981 -329l-148 -148l-150 149l148 149z" />
    <glyph glyph-name="uni0681.init" unicode="&#x681;" horiz-adv-x="1548" 
d="M-57.5 153.5q23.5 22.5 56.5 22.5h198q245 0 547 100q235 78 521 223l-298 124l-48 22q-90 43 -132 59q-91 35 -153 35q-69 0 -135 -49q-50 -36 -100 -103q-22 -30 -56 -88l-134 80q33 67 90 136q74 90 159 135.5t176 45.5q82 0 194 -40q59 -21 176 -76l30 -14
q52 -24 106 -51q95 -48 189 -91q61 -28 111 -46q5 -26 16 -79l4 -21l12 -57q-70 -30 -97 -42l-42 -21l-58 -30q-271 -133 -500 -207q-311 -101 -578 -101h-198q-33 0 -56.5 23t-23.5 55q0 33 23.5 55.5zM653 1483q-10 1 -32 5q-30 6 -63 6q-42 0 -73 -15h1
q-39 -15 -63 -49.5t-24 -73.5q0 -25 10 -45q16 -39 59 -68t93 -29q28 0 51 9l-1 -1q38 11 91 42q44 24 58 37l53 -69q-51 -35 -201 -118l-59 -33l-244 -135l-21 39l-21 38l210 117q-53 23 -92.5 59t-58.5 78q-14 37 -14 79q0 67 39 123q41 58 102 82q52 20 105 20
q35 0 68.5 -5.5t52.5 -12.5z" />
    <glyph glyph-name="uni0681.medi" unicode="&#x681;" horiz-adv-x="1669" 
d="M-56 152.5q23 23.5 56 23.5h183q245 0 505 91q106 37 211.5 85t237.5 114l60 30q-40 13 -86.5 34.5t-115.5 55.5q-49 23 -112 54q-119 57 -222 84q-54 14 -100 14q-97 0 -189 -96q-33 -35 -59.5 -73.5t-42.5 -69.5l-130 88q73 135 167 213q117 97 254 97q117 0 277 -67
q61 -25 139 -65q174 -91 275 -133q72 -30 135 -43l9 -42l8 -37q6 -35 16 -77l-27 -12q-18 -8 -49 -23l-55 -27q23 -82 101 -130q62 -40 146 -54q59 -11 117 -11h6h8q33 0 56 -23.5t23 -55.5q0 -33 -23 -55t-56 -22h-14q-189 0 -323 74q-132 73 -185 206q-250 -127 -450 -193
q-266 -88 -512 -88l-183 1q-33 0 -56 22t-23 55q0 32 23 55.5zM620 1485q-10 1 -32 5q-30 6 -63 6q-42 0 -73 -15h1q-39 -15 -63 -49.5t-24 -73.5q0 -25 10 -45q16 -39 59 -68t93 -29q28 0 51 9l-1 -1q38 11 91 42q44 24 58 37l53 -69q-51 -35 -201 -118l-59 -33l-244 -135
l-21 39l-21 38l210 117q-53 23 -92.5 59t-58.5 78q-14 37 -14 79q0 67 39 123q41 58 102 82q52 20 105 20q35 0 68.5 -5.5t52.5 -12.5z" />
    <glyph glyph-name="uni0681.fina" unicode="&#x681;" horiz-adv-x="1598" 
d="M1120.5 -568q125.5 40 247.5 124l90 -129q-296 -199 -643 -199q-151 0 -282.5 40.5t-229.5 118.5q-102 80 -157.5 193.5t-55.5 254.5v21q0 14 1 22q6 101 46 194.5t110 175.5q70 81 168.5 146t218.5 111q235 88 529 88h35q-46 24 -142 98l-24 18q-121 91 -197 133
q-114 63 -214 63q-95 0 -190 -78q-62 -50 -135 -151l-21 14q-15 9 -31 20l-18 12q-3 2 -28 19l-31 19q80 128 181 206q126 97 257 97q150 0 301 -78q61 -32 118 -72.5t140 -104.5l23 -18q76 -60 127 -97.5t105 -68.5l-51 -159l-154 -10q-1 -5 -1 -15v-14q0 -38 9 -73
q12 -45 37 -77q26 -31 58 -50.5t74 -30.5q39 -11 89.5 -15t121.5 -4q32 0 55.5 -23.5t23.5 -56.5q0 -32 -23 -54t-56 -22q-171 0 -286 40.5t-182 120.5q-33 46 -53.5 104t-23.5 120l-1 13q0 7 2 25q-165 -16 -310 -66t-255 -128q-111 -80 -176 -179t-74 -209
q-1 -154 88 -264q79 -100 225 -154q136 -51 297 -51q142 0 267.5 40zM630 1630q-10 1 -32 5q-30 6 -63 6q-42 0 -73 -15h1q-39 -15 -63 -49.5t-24 -73.5q0 -25 10 -45q16 -39 59 -68t93 -29q28 0 51 9l-1 -1q38 11 91 42q44 24 58 37l53 -69q-51 -35 -201 -118l-59 -33
l-244 -135l-21 39l-21 38l210 117q-53 23 -92.5 59t-58.5 78q-14 37 -14 79q0 67 39 123q41 58 102 82q52 20 105 20q35 0 68.5 -5.5t52.5 -12.5z" />
    <glyph glyph-name="uni0682.init" unicode="&#x682;" horiz-adv-x="1587" 
d="M-57.5 153.5q23.5 22.5 56.5 22.5h198q245 0 547 100q235 78 521 223l-298 124l-48 22q-90 43 -132 59q-91 35 -153 35q-69 0 -135 -49q-50 -36 -100 -103q-22 -30 -56 -88l-134 80q33 67 90 136q74 90 159 135.5t176 45.5q82 0 194 -40q59 -21 176 -76l30 -14
q52 -24 106 -51q95 -48 189 -91q61 -28 111 -46q5 -26 16 -79l4 -21l12 -57q-70 -30 -97 -42l-42 -21l-58 -30q-271 -133 -500 -207q-311 -101 -578 -101h-198q-33 0 -56.5 23t-23.5 55q0 33 23.5 55.5zM677 1592l-149 -149l-150 150l149 149zM676 1203l-149 -149l-150 150
l149 149z" />
    <glyph glyph-name="uni0682.medi" unicode="&#x682;" horiz-adv-x="1658" 
d="M-56 152.5q23 23.5 56 23.5h183q245 0 505 91q106 37 211.5 85t237.5 114l60 30q-40 13 -86.5 34.5t-115.5 55.5q-49 23 -112 54q-119 57 -222 84q-54 14 -100 14q-97 0 -189 -96q-33 -35 -59.5 -73.5t-42.5 -69.5l-130 88q73 135 167 213q117 97 254 97q117 0 277 -67
q61 -25 139 -65q174 -91 275 -133q72 -30 135 -43l9 -42l8 -37q6 -35 16 -77l-27 -12q-18 -8 -49 -23l-55 -27q23 -82 101 -130q62 -40 146 -54q59 -11 117 -11h6h8q33 0 56 -23.5t23 -55.5q0 -33 -23 -55t-56 -22h-14q-189 0 -323 74q-132 73 -185 206q-250 -127 -450 -193
q-266 -88 -512 -88l-183 1q-33 0 -56 22t-23 55q0 32 23 55.5zM624 1595l-149 -149l-150 150l149 149zM623 1206l-149 -149l-150 150l149 149z" />
    <glyph glyph-name="uni0682.fina" unicode="&#x682;" horiz-adv-x="1603" 
d="M1120.5 -568q125.5 40 247.5 124l90 -129q-296 -199 -643 -199q-151 0 -282.5 40.5t-229.5 118.5q-102 80 -157.5 193.5t-55.5 254.5v21q0 14 1 22q6 101 46 194.5t110 175.5q70 81 168.5 146t218.5 111q235 88 529 88h35q-46 24 -142 98l-24 18q-121 91 -197 133
q-114 63 -214 63q-95 0 -190 -78q-62 -50 -135 -151l-21 14q-15 9 -31 20l-18 12q-3 2 -28 19l-31 19q80 128 181 206q126 97 257 97q150 0 301 -78q61 -32 118 -72.5t140 -104.5l23 -18q76 -60 127 -97.5t105 -68.5l-51 -159l-154 -10q-1 -5 -1 -15v-14q0 -38 9 -73
q12 -45 37 -77q26 -31 58 -50.5t74 -30.5q39 -11 89.5 -15t121.5 -4q32 0 55.5 -23.5t23.5 -56.5q0 -32 -23 -54t-56 -22q-171 0 -286 40.5t-182 120.5q-33 46 -53.5 104t-23.5 120l-1 13q0 7 2 25q-165 -16 -310 -66t-255 -128q-111 -80 -176 -179t-74 -209
q-1 -154 88 -264q79 -100 225 -154q136 -51 297 -51q142 0 267.5 40zM745 1753l-149 -149l-150 150l149 149zM744 1364l-149 -149l-150 150l149 149z" />
    <glyph glyph-name="uni0683.init" unicode="&#x683;" horiz-adv-x="1581" arabic-form="initial" 
d="M-57.5 153.5q23.5 22.5 56.5 22.5h198q245 0 547 100q235 78 521 223l-298 124l-48 22q-90 43 -132 59q-91 35 -153 35q-69 0 -135 -49q-50 -36 -100 -103q-22 -30 -56 -88l-134 80q33 67 90 136q74 90 159 135.5t176 45.5q82 0 194 -40q59 -21 176 -76l30 -14
q52 -24 106 -51q95 -48 189 -91q61 -28 111 -46q5 -26 16 -79l4 -21l12 -57q-70 -30 -97 -42l-42 -21l-58 -30q-271 -133 -500 -207q-311 -101 -578 -101h-198q-33 0 -56.5 23t-23.5 55q0 33 23.5 55.5zM603 -369l-148 -148l-150 149l148 149zM997 -370l-148 -149l-150 150
l148 148z" />
    <glyph glyph-name="uni0683.medi" unicode="&#x683;" horiz-adv-x="1665" arabic-form="medial" 
d="M-56 152.5q23 23.5 56 23.5h183q245 0 505 91q106 37 211.5 85t237.5 114l60 30q-40 13 -86.5 34.5t-115.5 55.5q-49 23 -112 54q-119 57 -222 84q-54 14 -100 14q-97 0 -189 -96q-33 -35 -59.5 -73.5t-42.5 -69.5l-130 88q73 135 167 213q117 97 254 97q117 0 277 -67
q61 -25 139 -65q174 -91 275 -133q72 -30 135 -43l9 -42l8 -37q6 -35 16 -77l-27 -12q-18 -8 -49 -23l-55 -27q23 -82 101 -130q62 -40 146 -54q59 -11 117 -11h6h8q33 0 56 -23.5t23 -55.5q0 -33 -23 -55t-56 -22h-14q-189 0 -323 74q-132 73 -185 206q-250 -127 -450 -193
q-266 -88 -512 -88l-183 1q-33 0 -56 22t-23 55q0 32 23 55.5zM715 -353l-148 -148l-150 149l148 149zM1109 -354l-148 -149l-150 150l148 148z" />
    <glyph glyph-name="uni0683.fina" unicode="&#x683;" horiz-adv-x="1603" arabic-form="final" 
d="M1120.5 -568q125.5 40 247.5 124l90 -129q-296 -199 -643 -199q-151 0 -282.5 40.5t-229.5 118.5q-102 80 -157.5 193.5t-55.5 254.5v21q0 14 1 22q6 101 46 194.5t110 175.5q70 81 168.5 146t218.5 111q235 88 529 88h35q-46 24 -142 98l-24 18q-121 91 -197 133
q-114 63 -214 63q-95 0 -190 -78q-62 -50 -135 -151l-21 14q-15 9 -31 20l-18 12q-3 2 -28 19l-31 19q80 128 181 206q126 97 257 97q150 0 301 -78q61 -32 118 -72.5t140 -104.5l23 -18q76 -60 127 -97.5t105 -68.5l-51 -159l-154 -10q-1 -5 -1 -15v-14q0 -38 9 -73
q12 -45 37 -77q26 -31 58 -50.5t74 -30.5q39 -11 89.5 -15t121.5 -4q32 0 55.5 -23.5t23.5 -56.5q0 -32 -23 -54t-56 -22q-171 0 -286 40.5t-182 120.5q-33 46 -53.5 104t-23.5 120l-1 13q0 7 2 25q-165 -16 -310 -66t-255 -128q-111 -80 -176 -179t-74 -209
q-1 -154 88 -264q79 -100 225 -154q136 -51 297 -51q142 0 267.5 40zM795 -137l-148 -148l-150 149l148 149zM1189 -138l-148 -149l-150 150l148 148z" />
    <glyph glyph-name="uni0684.init" unicode="&#x684;" horiz-adv-x="1581" arabic-form="initial" 
d="M-57.5 153.5q23.5 22.5 56.5 22.5h198q245 0 547 100q235 78 521 223l-298 124l-48 22q-90 43 -132 59q-91 35 -153 35q-69 0 -135 -49q-50 -36 -100 -103q-22 -30 -56 -88l-134 80q33 67 90 136q74 90 159 135.5t176 45.5q82 0 194 -40q59 -21 176 -76l30 -14
q52 -24 106 -51q95 -48 189 -91q61 -28 111 -46q5 -26 16 -79l4 -21l12 -57q-70 -30 -97 -42l-42 -21l-58 -30q-271 -133 -500 -207q-311 -101 -578 -101h-198q-33 0 -56.5 23t-23.5 55q0 33 23.5 55.5zM787 -295l-149 -149l-150 150l149 149zM796 -694l-149 -149l-150 150
l149 149z" />
    <glyph glyph-name="uni0684.medi" unicode="&#x684;" horiz-adv-x="1663" arabic-form="medial" 
d="M-56 152.5q23 23.5 56 23.5h183q245 0 505 91q106 37 211.5 85t237.5 114l60 30q-40 13 -86.5 34.5t-115.5 55.5q-49 23 -112 54q-119 57 -222 84q-54 14 -100 14q-97 0 -189 -96q-33 -35 -59.5 -73.5t-42.5 -69.5l-130 88q73 135 167 213q117 97 254 97q117 0 277 -67
q61 -25 139 -65q174 -91 275 -133q72 -30 135 -43l9 -42l8 -37q6 -35 16 -77l-27 -12q-18 -8 -49 -23l-55 -27q23 -82 101 -130q62 -40 146 -54q59 -11 117 -11h6h8q33 0 56 -23.5t23 -55.5q0 -33 -23 -55t-56 -22h-14q-189 0 -323 74q-132 73 -185 206q-250 -127 -450 -193
q-266 -88 -512 -88l-183 1q-33 0 -56 22t-23 55q0 32 23 55.5zM857 -295l-149 -149l-150 150l149 149zM866 -694l-149 -149l-150 150l149 149z" />
    <glyph glyph-name="uni0684.fina" unicode="&#x684;" horiz-adv-x="1723" arabic-form="final" 
d="M1232.5 -568q125.5 40 247.5 124l90 -129q-296 -199 -643 -199q-151 0 -282.5 40.5t-229.5 118.5q-102 80 -157.5 193.5t-55.5 254.5v21q0 14 1 22q6 101 46 194.5t111 175.5q71 81 168.5 146.5t217.5 110.5q235 88 529 88h35q-46 24 -142 98l-24 18q-121 91 -197 133
q-114 63 -214 63q-95 0 -190 -78q-62 -50 -135 -151l-21 14q-15 8 -31 20l-18 12q-3 2 -28 19l-31 19q80 128 181 206q126 97 257 97q150 0 301 -78q61 -32 118 -72.5t140 -104.5l23 -18q76 -60 127 -97.5t105 -68.5l-51 -159l-154 -10q-1 -5 -1 -15v-14q0 -38 9 -73
q12 -45 37 -77q26 -31 58 -50.5t74 -30.5q39 -11 89.5 -15t121.5 -4q32 0 55.5 -23.5t23.5 -56.5q0 -32 -23 -54t-56 -22q-171 0 -286 40.5t-182 120.5q-33 46 -53.5 104t-23.5 120l-1 13q0 7 2 25q-165 -16 -310 -66t-255 -128q-111 -80 -176 -179t-74 -209
q-1 -154 88 -264q79 -100 225 -154q137 -51 297 -51q142 0 267.5 40zM1100 81l-149 -149l-150 150l149 149zM1109 -318l-149 -149l-150 150l149 149z" />
    <glyph glyph-name="uni0685.init" unicode="&#x685;" horiz-adv-x="1548" 
d="M-57.5 153.5q23.5 22.5 56.5 22.5h198q245 0 547 100q235 78 521 223l-298 124l-48 22q-90 43 -132 59q-91 35 -153 35q-69 0 -135 -49q-50 -36 -100 -103q-22 -30 -56 -88l-134 80q33 67 90 136q74 90 159 135.5t176 45.5q82 0 194 -40q59 -21 176 -76l30 -14
q52 -24 106 -51q95 -48 189 -91q61 -28 111 -46q5 -26 16 -79l4 -21l12 -57q-70 -30 -97 -42l-42 -21l-58 -30q-271 -133 -500 -207q-311 -101 -578 -101h-198q-33 0 -56.5 23t-23.5 55q0 33 23.5 55.5zM576 1200l146 146l148 -148l-146 -146zM170 1201l146 147l148 -148
l-146 -147zM393 1491l132 132l133 -133l-132 -132z" />
    <glyph glyph-name="uni0685.medi" unicode="&#x685;" horiz-adv-x="1663" 
d="M-56 152.5q23 23.5 56 23.5h183q245 0 505 91q106 37 211.5 85t237.5 114l60 30q-40 13 -86.5 34.5t-115.5 55.5q-49 23 -112 54q-119 57 -222 84q-54 14 -100 14q-97 0 -189 -96q-33 -35 -59.5 -73.5t-42.5 -69.5l-130 88q73 135 167 213q117 97 254 97q117 0 277 -67
q61 -25 139 -65q174 -91 275 -133q72 -30 135 -43l9 -42l8 -37q6 -35 16 -77l-27 -12q-18 -8 -49 -23l-55 -27q23 -82 101 -130q62 -40 146 -54q59 -11 117 -11h6h8q33 0 56 -23.5t23 -55.5q0 -33 -23 -55t-56 -22h-14q-189 0 -323 74q-132 73 -185 206q-250 -127 -450 -193
q-266 -88 -512 -88l-183 1q-33 0 -56 22t-23 55q0 32 23 55.5zM576 1196l146 146l148 -148l-146 -146zM170 1197l146 147l148 -148l-146 -147zM393 1487l132 132l133 -133l-132 -132z" />
    <glyph glyph-name="uni0685.fina" unicode="&#x685;" horiz-adv-x="1598" 
d="M1120.5 -568q125.5 40 247.5 124l90 -129q-296 -199 -643 -199q-151 0 -282.5 40.5t-229.5 118.5q-102 80 -157.5 193.5t-55.5 254.5v21q0 14 1 22q6 101 46 194.5t110 175.5q70 81 168.5 146t218.5 111q235 88 529 88h35q-46 24 -142 98l-24 18q-121 91 -197 133
q-114 63 -214 63q-95 0 -190 -78q-62 -50 -135 -151l-21 14q-15 9 -31 20l-18 12q-3 2 -28 19l-31 19q80 128 181 206q126 97 257 97q150 0 301 -78q61 -32 118 -72.5t140 -104.5l23 -18q76 -60 127 -97.5t105 -68.5l-51 -159l-154 -10q-1 -5 -1 -15v-14q0 -38 9 -73
q12 -45 37 -77q26 -31 58 -50.5t74 -30.5q39 -11 89.5 -15t121.5 -4q32 0 55.5 -23.5t23.5 -56.5q0 -32 -23 -54t-56 -22q-171 0 -286 40.5t-182 120.5q-33 46 -53.5 104t-23.5 120l-1 13q0 7 2 25q-165 -16 -310 -66t-255 -128q-111 -80 -176 -179t-74 -209
q-1 -154 88 -264q79 -100 225 -154q136 -51 297 -51q142 0 267.5 40zM661 1352l146 146l148 -148l-146 -146zM255 1353l146 147l148 -148l-146 -147zM478 1643l132 132l133 -133l-132 -132z" />
    <glyph glyph-name="uni0687.init" unicode="&#x687;" horiz-adv-x="1565" arabic-form="initial" 
d="M-57.5 153.5q23.5 22.5 56.5 22.5h198q245 0 547 100q235 78 521 223l-298 124l-48 22q-90 43 -132 59q-91 35 -153 35q-69 0 -135 -49q-50 -36 -100 -103q-22 -30 -56 -88l-134 80q33 67 90 136q74 90 159 135.5t176 45.5q82 0 194 -40q59 -21 176 -76l30 -14
q52 -24 106 -51q95 -48 189 -91q61 -28 111 -46q5 -26 16 -79l4 -21l12 -57q-70 -30 -97 -42l-42 -21l-58 -30q-271 -133 -500 -207q-311 -101 -578 -101h-198q-33 0 -56.5 23t-23.5 55q0 33 23.5 55.5zM957 -674l-148 -149l-150 150l148 148zM597 -680l-148 -148l-150 149
l148 149zM954 -273l-148 -149l-150 150l148 148zM594 -279l-148 -148l-150 149l148 149z" />
    <glyph glyph-name="uni0687.medi" unicode="&#x687;" horiz-adv-x="1658" arabic-form="medial" 
d="M-56 152.5q23 23.5 56 23.5h183q245 0 505 91q106 37 211.5 85t237.5 114l60 30q-40 13 -86.5 34.5t-115.5 55.5q-49 23 -112 54q-119 57 -222 84q-54 14 -100 14q-97 0 -189 -96q-33 -35 -59.5 -73.5t-42.5 -69.5l-130 88q73 135 167 213q117 97 254 97q117 0 277 -67
q61 -25 139 -65q174 -91 275 -133q72 -30 135 -43l9 -42l8 -37q6 -35 16 -77l-27 -12q-18 -8 -49 -23l-55 -27q23 -82 101 -130q62 -40 146 -54q59 -11 117 -11h6h8q33 0 56 -23.5t23 -55.5q0 -33 -23 -55t-56 -22h-14q-189 0 -323 74q-132 73 -185 206q-250 -127 -450 -193
q-266 -88 -512 -88l-183 1q-33 0 -56 22t-23 55q0 32 23 55.5zM942 -649l-148 -149l-150 150l148 148zM582 -655l-148 -148l-150 149l148 149zM939 -248l-148 -149l-150 150l148 148zM579 -254l-148 -148l-150 149l148 149z" />
    <glyph glyph-name="uni0687.fina" unicode="&#x687;" horiz-adv-x="1722" arabic-form="final" 
d="M1232.5 -568q125.5 40 247.5 124l90 -129q-296 -199 -643 -199q-151 0 -282.5 40.5t-229.5 118.5q-102 80 -157.5 193.5t-55.5 254.5v21q0 14 1 22q6 101 46 194.5t111 175.5q71 81 168.5 146.5t217.5 110.5q235 88 529 88h35q-46 24 -142 98l-24 18q-121 91 -197 133
q-114 63 -214 63q-95 0 -190 -78q-62 -50 -135 -151l-21 14q-15 8 -31 20l-18 12q-3 2 -28 19l-31 19q80 128 181 206q126 97 257 97q150 0 301 -78q61 -32 118 -72.5t140 -104.5l23 -18q76 -60 127 -97.5t105 -68.5l-51 -159l-154 -10q-1 -5 -1 -15v-14q0 -38 9 -73
q12 -45 37 -77q26 -31 58 -50.5t74 -30.5q39 -11 89.5 -15t121.5 -4q32 0 55.5 -23.5t23.5 -56.5q0 -32 -23 -54t-56 -22q-171 0 -286 40.5t-182 120.5q-33 46 -53.5 104t-23.5 120l-1 13q0 7 2 25q-165 -16 -310 -66t-255 -128q-111 -80 -176 -179t-74 -209
q-1 -154 88 -264q79 -100 225 -154q137 -51 297 -51q142 0 267.5 40zM1241 -312l-148 -149l-150 150l148 148zM881 -318l-148 -148l-150 149l148 149zM1238 89l-148 -149l-150 150l148 148zM878 83l-148 -148l-150 149l148 149z" />
    <glyph glyph-name="uni0689.fina" unicode="&#x689;" horiz-adv-x="1242" 
d="M279 65q-102 42 -183 123l46 64q33 45 45 62q76 -66 162.5 -100t165.5 -34q40 0 84.5 7.5t78.5 21.5q36 13 103 49q49 26 72 49l-313 754l74 31l70 30q70 -174 174 -419l141 -340q24 -59 38 -87t38 -49q27 -26 68.5 -38.5t105.5 -12.5q33 0 56 -22.5t23 -55.5t-23 -55.5
t-56 -22.5q-116 0 -198 42q-74 37 -120 99q-39 -28 -90 -52q-66 -31 -105 -47h1q-55 -21 -114.5 -31.5t-132.5 -10.5q-107 0 -211 45zM689.5 -227q25.5 13 45.5 35t30.5 50.5t8.5 59.5q-1 26 -10 54.5t-25 50.5q-40 52 -101 52q-29 0 -54.5 -14.5t-44.5 -38.5
q-18 -22 -28 -50t-10 -54q0 -27 11.5 -55t30.5 -51t44 -37.5t51 -14.5t51.5 13zM724.5 139q39.5 -21 70.5 -58q29 -34 45.5 -77t18.5 -86q1 -46 -15.5 -89t-47.5 -78q-31 -36 -72.5 -56t-88.5 -20q-48 0 -88 20t-70 56q-29 35 -44.5 78.5t-15.5 88.5q0 43 15.5 86t44.5 77
q31 36 72 57.5t89 21.5q47 0 86.5 -21z" />
    <glyph glyph-name="uni068A.fina" unicode="&#x68a;" horiz-adv-x="1253" 
d="M279 65q-102 42 -183 123l46 64q33 45 45 62q76 -66 162.5 -100t165.5 -34q40 0 84.5 7.5t78.5 21.5q36 13 103 49q49 26 72 49l-313 754l74 31l70 30q70 -174 174 -419l141 -340q24 -59 38 -87t38 -49q27 -26 68.5 -38.5t105.5 -12.5q33 0 56 -22.5t23 -55.5t-23 -55.5
t-56 -22.5q-116 0 -198 42q-74 37 -120 99q-39 -28 -90 -52q-66 -31 -105 -47h1q-55 -21 -114.5 -31.5t-132.5 -10.5q-107 0 -211 45zM751 -360l-147 -147l-148 148l147 147z" />
    <glyph glyph-name="uni068B.fina" unicode="&#x68b;" horiz-adv-x="1258" 
d="M279 65q-102 42 -183 123l46 64q33 45 45 62q76 -66 162.5 -100t165.5 -34q40 0 84.5 7.5t78.5 21.5q36 13 103 49q49 26 72 49l-313 754l74 31l70 30q70 -174 174 -419l141 -340q24 -59 38 -87t38 -49q27 -26 68.5 -38.5t105.5 -12.5q33 0 56 -22.5t23 -55.5t-23 -55.5
t-56 -22.5q-116 0 -198 42q-74 37 -120 99q-39 -28 -90 -52q-66 -31 -105 -47h1q-55 -21 -114.5 -31.5t-132.5 -10.5q-107 0 -211 45zM690 -360l-147 -147l-148 148l147 147zM708 1439.5q-56 -30.5 -121 -40.5q-45 -5 -85 -5q-39 0 -92 5q91 125 168 180q38 27 68 41t59 14
q39 0 63.5 -24t24.5 -59q0 -17 -8 -36l-1.5 -3t-0.5 0l2 3v0q-21 -45 -77 -75.5zM843 1644.5q-24 30.5 -62.5 47t-81.5 16.5q-54 0 -109.5 -31t-117.5 -89q0 71 -8 181l-5 52l-6 53q-9 81 -11 106l-80 -10q14 -78 24 -173l5 -54l4 -54q2 -40 2 -57q0 -19 -2 -51l-4 -42
l-1 -13l-2 -14q-2 -17 -8 -25l-32 -43l-6 -10l-7 -10q-8 -10 -18 -9q-49 13 -100 33l-15 -36l-15 -35q159 -61 306 -61q57 0 111 9q112 20 193 88q35 29 55.5 74.5t16.5 87.5v4l1 -6l-1 2q-2 39 -26 69.5z" />
    <glyph glyph-name="uni068C.fina" unicode="&#x68c;" horiz-adv-x="1253" arabic-form="final" 
d="M279 65q-102 42 -183 123l46 64q33 45 45 62q76 -66 162.5 -100t165.5 -34q40 0 84.5 7.5t78.5 21.5q36 13 103 49q49 26 72 49l-313 754l74 31l70 30q70 -174 174 -419l141 -340q24 -59 38 -87t38 -49q27 -26 68.5 -38.5t105.5 -12.5q33 0 56 -22.5t23 -55.5t-23 -55.5
t-56 -22.5q-116 0 -198 42q-74 37 -120 99q-39 -28 -90 -52q-66 -31 -105 -47h1q-55 -21 -114.5 -31.5t-132.5 -10.5q-107 0 -211 45zM610 1425l-146 -146l-148 147l146 147zM965 1423l-145 -146l-148 148l146 146z" />
    <glyph glyph-name="uni068D.fina" unicode="&#x68d;" horiz-adv-x="1247" arabic-form="final" 
d="M279 65q-102 42 -183 123l46 64q33 45 45 62q76 -66 162.5 -100t165.5 -34q40 0 84.5 7.5t78.5 21.5q36 13 103 49q49 26 72 49l-313 754l74 31l70 30q70 -174 174 -419l141 -340q24 -59 38 -87t38 -49q27 -26 68.5 -38.5t105.5 -12.5q33 0 56 -22.5t23 -55.5t-23 -55.5
t-56 -22.5q-116 0 -198 42q-74 37 -120 99q-39 -28 -90 -52q-66 -31 -105 -47h1q-55 -21 -114.5 -31.5t-132.5 -10.5q-107 0 -211 45zM582 -367l-148 -148l-150 149l148 149zM976 -368l-148 -149l-150 150l148 148z" />
    <glyph glyph-name="uni068E.fina" unicode="&#x68e;" horiz-adv-x="1258" arabic-form="final" 
d="M279 65q-102 42 -183 123l46 64q33 45 45 62q76 -66 162.5 -100t165.5 -34q40 0 84.5 7.5t78.5 21.5q36 13 103 49q49 26 72 49l-313 754l74 31l70 30q70 -174 174 -419l141 -340q24 -59 38 -87t38 -49q27 -26 68.5 -38.5t105.5 -12.5q33 0 56 -22.5t23 -55.5t-23 -55.5
t-56 -22.5q-116 0 -198 42q-74 37 -120 99q-39 -28 -90 -52q-66 -31 -105 -47h1q-55 -21 -114.5 -31.5t-132.5 -10.5q-107 0 -211 45zM731 1425l146 146l148 -148l-146 -146zM325 1426l146 147l148 -148l-146 -147zM548 1716l132 132l133 -133l-132 -132z" />
    <glyph glyph-name="uni068F.fina" unicode="&#x68f;" horiz-adv-x="1264" 
d="M279 65q-102 42 -183 123l46 64q33 45 45 62q76 -66 162.5 -100t165.5 -34q40 0 84.5 7.5t78.5 21.5q36 13 103 49q49 26 72 49l-313 754l74 31l70 30q70 -174 174 -419l141 -340q24 -59 38 -87t38 -49q27 -26 68.5 -38.5t105.5 -12.5q33 0 56 -22.5t23 -55.5t-23 -55.5
t-56 -22.5q-116 0 -198 42q-74 37 -120 99q-39 -28 -90 -52q-66 -31 -105 -47h1q-55 -21 -114.5 -31.5t-132.5 -10.5q-107 0 -211 45zM542 1680l-148 -148l-150 150l148 148zM896 1679l-148 -149l-150 150l148 149zM728 1404l-148 -148l-150 150l148 148z" />
    <glyph glyph-name="uni0690.fina" unicode="&#x690;" horiz-adv-x="1253" 
d="M279 65q-102 42 -183 123l46 64q33 45 45 62q76 -66 162.5 -100t165.5 -34q40 0 84.5 7.5t78.5 21.5q36 13 103 49q49 26 72 49l-313 754l74 31l70 30q70 -174 174 -419l141 -340q24 -59 38 -87t38 -49q27 -26 68.5 -38.5t105.5 -12.5q33 0 56 -22.5t23 -55.5t-23 -55.5
t-56 -22.5q-116 0 -198 42q-74 37 -120 99q-39 -28 -90 -52q-66 -31 -105 -47h1q-55 -21 -114.5 -31.5t-132.5 -10.5q-107 0 -211 45zM965 1404l-148 -149l-150 150l148 148zM605 1398l-148 -148l-150 149l148 149zM962 1805l-148 -149l-150 150l148 148zM602 1799
l-148 -148l-150 149l148 149z" />
    <glyph glyph-name="uni0692.fina" unicode="&#x692;" horiz-adv-x="821" 
d="M605 69q0 -160 -92 -312q-82 -136 -233 -265q-133 -113 -306 -202q-25 52 -35 71q-22 43 -35 69q146 76 264 171q130 104 201 216q79 125 79 253q0 14 -2 40q-11 87 -50 236l-9 31q-8 34 -23 84l-29 94l150 46q78 -229 154 -324q40 -52 84.5 -76.5t96.5 -24.5h5
q33 0 56 -23.5t23 -55.5q0 -33 -23 -55t-56 -22q-47 0 -86 13q-69 21 -134 89v-53zM364 766q-43 128 -85 214q-55 109 -102 147l52 76q60 -49 109 -135q35 -65 73 -161q17 44 30 90q35 112 73 180q20 39 58 80l63 -68q-30 -31 -53.5 -81.5t-47.5 -120.5q-21 -60 -39 -120
q-21 -66 -40 -107z" />
    <glyph glyph-name="uni0693.fina" unicode="&#x693;" horiz-adv-x="818" 
d="M605 69q0 -160 -92 -312q-82 -136 -233 -265q-133 -113 -306 -202q-25 52 -35 71q-22 43 -35 69q146 76 264 171q130 104 201 216q79 125 79 253q0 14 -2 40q-11 87 -50 236l-9 31q-8 34 -23 84l-29 94l150 46q78 -229 154 -324q40 -52 84.5 -76.5t96.5 -24.5h5
q33 0 56 -23.5t23 -55.5q0 -33 -23 -55t-56 -22q-47 0 -86 13q-69 21 -134 89v-53zM469.5 -630q25.5 13 45.5 35t30.5 50.5t8.5 59.5q-1 26 -10 54.5t-25 50.5q-40 52 -101 52q-29 0 -54.5 -14.5t-44.5 -38.5q-18 -22 -28 -50t-10 -54q0 -27 11.5 -55t30.5 -51t44 -37.5
t51 -14.5t51.5 13zM504.5 -264q39.5 -21 70.5 -58q29 -34 45.5 -77t18.5 -86q1 -46 -15.5 -89t-47.5 -78q-31 -36 -72.5 -56t-88.5 -20q-48 0 -88 20t-70 56q-29 35 -44.5 78.5t-15.5 88.5q0 43 15.5 86t44.5 77q31 36 72 57.5t89 21.5q47 0 86.5 -21z" />
    <glyph glyph-name="uni0694.fina" unicode="&#x694;" horiz-adv-x="818" 
d="M605 69q0 -160 -92 -312q-82 -136 -233 -265q-133 -113 -306 -202q-25 52 -35 71q-22 43 -35 69q146 76 264 171q130 104 201 216q79 125 79 253q0 14 -2 40q-11 87 -50 236l-9 31q-8 34 -23 84l-29 94l150 46q78 -229 154 -324q40 -52 84.5 -76.5t96.5 -24.5h5
q33 0 56 -23.5t23 -55.5q0 -33 -23 -55t-56 -22q-47 0 -86 13q-69 21 -134 89v-53zM825 -628l-147 -147l-148 148l147 147z" />
    <glyph glyph-name="uni0695.fina" unicode="&#x695;" horiz-adv-x="819" 
d="M605 69q0 -160 -92 -312q-82 -136 -233 -265q-133 -113 -306 -202q-25 52 -35 71q-22 43 -35 69q146 76 264 171q130 104 201 216q79 125 79 253q0 14 -2 40q-11 87 -50 236l-9 31q-8 34 -23 84l-29 94l150 46q78 -229 154 -324q40 -52 84.5 -76.5t96.5 -24.5h5
q33 0 56 -23.5t23 -55.5q0 -33 -23 -55t-56 -22q-47 0 -86 13q-69 21 -134 89v-53zM489 -1088q-43 128 -85 214q-55 109 -102 147l52 76q60 -49 109 -135q35 -65 73 -161q17 44 30 90q35 112 73 180q20 39 58 80l63 -68q-30 -31 -53.5 -81.5t-47.5 -120.5q-21 -60 -39 -120
q-21 -66 -40 -107z" />
    <glyph glyph-name="uni0696.fina" unicode="&#x696;" horiz-adv-x="822" 
d="M605 69q0 -160 -92 -312q-82 -136 -233 -265q-133 -113 -306 -202q-25 52 -35 71q-22 43 -35 69q146 76 264 171q130 104 201 216q79 125 79 253q0 14 -2 40q-11 87 -50 236l-9 31q-8 34 -23 84l-29 94l150 46q78 -229 154 -324q40 -52 84.5 -76.5t96.5 -24.5h5
q33 0 56 -23.5t23 -55.5q0 -33 -23 -55t-56 -22q-47 0 -86 13q-69 21 -134 89v-53zM809 -532l-147 -147l-148 148l147 147zM324 182l-147 -147l-148 148l147 147z" />
    <glyph glyph-name="uni0697.fina" unicode="&#x697;" horiz-adv-x="815" 
d="M605 69q0 -160 -92 -312q-82 -136 -233 -265q-133 -113 -306 -202q-25 52 -35 71q-22 43 -35 69q146 76 264 171q130 104 201 216q79 125 79 253q0 14 -2 40q-11 87 -50 236l-9 31q-8 34 -23 84l-29 94l150 46q78 -229 154 -324q40 -52 84.5 -76.5t96.5 -24.5h5
q33 0 56 -23.5t23 -55.5q0 -33 -23 -55t-56 -22q-47 0 -86 13q-69 21 -134 89v-53zM328 924l-146 -146l-148 147l146 147zM683 922l-145 -146l-148 148l146 146z" />
    <glyph glyph-name="uni0699.fina" unicode="&#x699;" horiz-adv-x="821" 
d="M605 69q0 -160 -92 -312q-82 -136 -233 -265q-133 -113 -306 -202q-25 52 -35 71q-22 43 -35 69q146 76 264 171q130 104 201 216q79 125 79 253q0 14 -2 40q-11 87 -50 236l-9 31q-8 34 -23 84l-29 94l150 46q78 -229 154 -324q40 -52 84.5 -76.5t96.5 -24.5h5
q33 0 56 -23.5t23 -55.5q0 -33 -23 -55t-56 -22q-47 0 -86 13q-69 21 -134 89v-53zM676 910l-148 -149l-150 150l148 148zM316 904l-148 -148l-150 149l148 149zM673 1311l-148 -149l-150 150l148 148zM313 1305l-148 -148l-150 149l148 149z" />
    <glyph glyph-name="uni069A.init" unicode="&#x69a;" horiz-adv-x="1614" 
d="M-51 150q21 23 51 26q112 4 195 86q69 69 118 190q42 102 63 212l157 -31l-19 -64q-26 -83 -38 -161q-7 -39 -7 -79q0 -72 26 -111q32 -51 102 -51q99 0 171 97q58 77 100 215q30 98 48 215l78 -15l45 -9q8 -1 29 -5v-1q-14 -81 -22 -131q-15 -99 -15 -155q0 -97 33 -148
q41 -66 134 -66q85 0 129 57q40 52 40 139q0 100 -47 243q-38 114 -83 205l139 74q3 -7 31.5 -66t57.5 -143q61 -183 61 -310q0 -166 -90 -259q-94 -96 -271 -96q-72 0 -149 48q-73 46 -120 117q-68 -78 -144.5 -121.5t-154.5 -43.5q-74 0 -145 42q-78 47 -112 124
q-71 -76 -145 -112q-86 -42 -194 -43q-31 2 -52 24t-21 54q0 30 21 53zM1085 -369l-147 -147l-148 148l147 147zM1149 1136l-147 -147l-148 148l147 147z" />
    <glyph glyph-name="uni069A.medi" unicode="&#x69a;" horiz-adv-x="1876" 
d="M-57 151q24 23 56 25h8q81 0 163 84q54 55 116 169q41 77 69 157q20 59 35 108v2q69 -18 152 -42l-2 -6l1 1q-22 -87 -33 -167q-8 -70 -8 -113q0 -98 33 -153v1q20 -35 59 -39q12 -4 27 -4q42 0 82 30q48 35 92.5 111.5t79.5 184.5v-1q29 85 53 207l155 -29
q-16 -87 -21 -182q-1 -7 -1 -23v-23q0 -78 14 -136t40 -90q15 -20 38.5 -32t62.5 -12q62 0 99 43v-1q36 39 58 114.5t28 177.5q2 54 2 77q0 18 -2 56l-4 56l159 14q4 -70 15 -136.5t36 -145.5q84 -258 240 -258h8q33 0 55.5 -22.5t22.5 -55.5q0 -32 -22.5 -55t-55.5 -23h-8
q-75 0 -142.5 32t-120.5 93q-31 34 -73 104q-42 -93 -78 -132q-85 -97 -217 -97q-69 0 -126 26t-97 77q-28 33 -60 111q-74 -112 -138 -158q-88 -59 -177 -59q-101 0 -163 59q-55 51 -100 161q-51 -69 -87 -102q-118 -115 -259 -115h-9q-32 0 -55.5 23t-23.5 55q0 30 24 53z
M1081 677v1v-1zM1183 1137l-147 -147l-148 148l147 147zM1126 -371l-147 -147l-148 148l147 147z" />
    <glyph glyph-name="uni069A.fina" unicode="&#x69a;" horiz-adv-x="2883" 
d="M2891 176q32 0 55.5 -23t23.5 -56q0 -32 -23.5 -54.5t-55.5 -22.5h-9h-11q-157 0 -264 125q-26 26 -72 107q-39 -90 -78 -136q-91 -97 -216 -97q-55 0 -117 38q-67 41 -113 108q-116 -134 -299 -146q-76 -4 -156 29q-32 13 -63 32l2 -52q1 -15 1 -43q0 -179 -92 -322
q-48 -75 -118.5 -134t-157.5 -98q-162 -75 -352 -75l-34 1q-124 0 -231.5 37.5t-189.5 107.5q-72 67 -120 159q-51 95 -64 196q-9 60 -9 117q0 152 50 312q24 82 54.5 149t59.5 112l65 -48l19 -15q28 -22 43 -32q-19 -30 -42 -81.5t-42 -113.5q-48 -156 -48 -290
q0 -44 5 -79t16 -74q24 -85 86 -157q73 -86 210 -122q70 -19 169 -19q218 10 352.5 88.5t182.5 223.5q37 114 37 255q0 113 -25.5 225t-81.5 239q18 12 39 22.5t28 14.5l32 16q11 5 33 19q2 -2 8 -17q0 -1 16 -39l30 -76q27 -76 48.5 -125.5t49.5 -87.5q71 -96 184 -96
q100 0 153 68q43 56 61 163q8 46 10.5 101.5t3.5 66.5q0 23 1 35v15l164 -11l-7 -152q0 -119 27 -192q36 -99 126 -99q31 0 51 11.5t43 37.5v-1q37 40 62 116.5t30 176.5l1 34q0 29 -3 59l-8 96l164 11q5 -62 13 -122q10 -74 27 -152q42 -129 105 -196.5t141 -67.5h20z
M2171 -385l-147 -147l-148 148l147 147zM2166 1036l-147 -147l-148 148l147 147z" />
    <glyph glyph-name="uni069B.init" unicode="&#x69b;" horiz-adv-x="1626" 
d="M-51 150q21 23 51 26q112 4 195 86q69 69 118 190q42 102 63 212l157 -31l-19 -64q-26 -83 -38 -161q-7 -39 -7 -79q0 -72 26 -111q32 -51 102 -51q99 0 171 97q58 77 100 215q30 98 48 215l78 -15l45 -9q8 -1 29 -5v-1q-14 -81 -22 -131q-15 -99 -15 -155q0 -97 33 -148
q41 -66 134 -66q85 0 129 57q40 52 40 139q0 100 -47 243q-38 114 -83 205l139 74q3 -7 31.5 -66t57.5 -143q61 -183 61 -310q0 -166 -90 -259q-94 -96 -271 -96q-72 0 -149 48q-73 46 -120 117q-68 -78 -144.5 -121.5t-154.5 -43.5q-74 0 -145 42q-78 47 -112 124
q-71 -76 -145 -112q-86 -42 -194 -43q-31 2 -52 24t-21 54q0 30 21 53zM1119 -179l146 -146l-148 -148l-146 146zM713 -180l146 -147l-148 -148l-146 147zM921 -485l132 -132l-133 -133l-132 132z" />
    <glyph glyph-name="uni069B.medi" unicode="&#x69b;" horiz-adv-x="1873" 
d="M-57 151q24 23 56 25h8q81 0 163 84q54 55 116 169q41 77 69 157q20 59 35 108v2q69 -18 152 -42l-2 -6l1 1q-22 -87 -33 -167q-8 -70 -8 -113q0 -98 33 -153v1q20 -35 59 -39q12 -4 27 -4q42 0 82 30q48 35 92.5 111.5t79.5 184.5v-1q29 85 53 207l155 -29
q-16 -87 -21 -182q-1 -7 -1 -23v-23q0 -78 14 -136t40 -90q15 -20 38.5 -32t62.5 -12q62 0 99 43v-1q36 39 58 114.5t28 177.5q2 54 2 77q0 18 -2 56l-4 56l159 14q4 -70 15 -136.5t36 -145.5q84 -258 240 -258h8q33 0 55.5 -22.5t22.5 -55.5q0 -32 -22.5 -55t-55.5 -23h-8
q-75 0 -142.5 32t-120.5 93q-31 34 -73 104q-42 -93 -78 -132q-85 -97 -217 -97q-69 0 -126 26t-97 77q-28 33 -60 111q-74 -112 -138 -158q-88 -59 -177 -59q-101 0 -163 59q-55 51 -100 161q-51 -69 -87 -102q-118 -115 -259 -115h-9q-32 0 -55.5 23t-23.5 55q0 30 24 53z
M1081 677v1v-1zM1191 -203l146 -146l-148 -148l-146 146zM785 -204l146 -147l-148 -148l-146 147zM993 -509l132 -132l-133 -133l-132 132z" />
    <glyph glyph-name="uni069B.fina" unicode="&#x69b;" horiz-adv-x="2872" 
d="M2891 176q32 0 55.5 -23t23.5 -56q0 -32 -23.5 -54.5t-55.5 -22.5h-9h-11q-157 0 -264 125q-26 26 -72 107q-39 -90 -78 -136q-91 -97 -216 -97q-55 0 -117 38q-67 41 -113 108q-116 -134 -299 -146q-76 -4 -156 29q-32 13 -63 32l2 -52q1 -15 1 -43q0 -179 -92 -322
q-48 -75 -118.5 -134t-157.5 -98q-162 -75 -352 -75l-34 1q-124 0 -231.5 37.5t-189.5 107.5q-72 67 -120 159q-51 95 -64 196q-9 60 -9 117q0 152 50 312q24 82 54.5 149t59.5 112l65 -48l19 -15q28 -22 43 -32q-19 -30 -42 -81.5t-42 -113.5q-48 -156 -48 -290
q0 -44 5 -79t16 -74q24 -85 86 -157q73 -86 210 -122q70 -19 169 -19q218 10 352.5 88.5t182.5 223.5q37 114 37 255q0 113 -25.5 225t-81.5 239q18 12 39 22.5t28 14.5l32 16q11 5 33 19q2 -2 8 -17q0 -1 16 -39l30 -76q27 -76 48.5 -125.5t49.5 -87.5q71 -96 184 -96
q100 0 153 68q43 56 61 163q8 46 10.5 101.5t3.5 66.5q0 23 1 35v15l164 -11l-7 -152q0 -119 27 -192q36 -99 126 -99q31 0 51 11.5t43 37.5v-1q37 40 62 116.5t30 176.5l1 34q0 29 -3 59l-8 96l164 11q5 -62 13 -122q10 -74 27 -152q42 -129 105 -196.5t141 -67.5h20z
M2137 -174l146 -146l-148 -148l-146 146zM1731 -175l146 -147l-148 -148l-146 147zM1939 -480l132 -132l-133 -133l-132 132z" />
    <glyph glyph-name="uni069C.init" unicode="&#x69c;" horiz-adv-x="1620" 
d="M-51 150q21 23 51 26q112 4 195 86q69 69 118 190q42 102 63 212l157 -31l-19 -64q-26 -83 -38 -161q-7 -39 -7 -79q0 -72 26 -111q32 -51 102 -51q99 0 171 97q58 77 100 215q30 98 48 215l78 -15l45 -9q8 -1 29 -5v-1q-14 -81 -22 -131q-15 -99 -15 -155q0 -97 33 -148
q41 -66 134 -66q85 0 129 57q40 52 40 139q0 100 -47 243q-38 114 -83 205l139 74q3 -7 31.5 -66t57.5 -143q61 -183 61 -310q0 -166 -90 -259q-94 -96 -271 -96q-72 0 -149 48q-73 46 -120 117q-68 -78 -144.5 -121.5t-154.5 -43.5q-74 0 -145 42q-78 47 -112 124
q-71 -76 -145 -112q-86 -42 -194 -43q-31 2 -52 24t-21 54q0 30 21 53zM1023 1165l146 146l148 -148l-146 -146zM617 1166l146 147l148 -148l-146 -147zM840 1456l132 132l133 -133l-132 -132zM1185 -195l146 -146l-148 -148l-146 146zM779 -196l146 -147l-148 -148
l-146 147zM987 -501l132 -132l-133 -133l-132 132z" />
    <glyph glyph-name="uni069C.medi" unicode="&#x69c;" horiz-adv-x="1859" 
d="M-57 151q24 23 56 25h8q81 0 163 84q54 55 116 169q41 77 69 157q20 59 35 108v2q69 -18 152 -42l-2 -6l1 1q-22 -87 -33 -167q-8 -70 -8 -113q0 -98 33 -153v1q20 -35 59 -39q12 -4 27 -4q42 0 82 30q48 35 92.5 111.5t79.5 184.5v-1q29 85 53 207l155 -29
q-16 -87 -21 -182q-1 -7 -1 -23v-23q0 -78 14 -136t40 -90q15 -20 38.5 -32t62.5 -12q62 0 99 43v-1q36 39 58 114.5t28 177.5q2 54 2 77q0 18 -2 56l-4 56l159 14q4 -70 15 -136.5t36 -145.5q84 -258 240 -258h8q33 0 55.5 -22.5t22.5 -55.5q0 -32 -22.5 -55t-55.5 -23h-8
q-75 0 -142.5 32t-120.5 93q-31 34 -73 104q-42 -93 -78 -132q-85 -97 -217 -97q-69 0 -126 26t-97 77q-28 33 -60 111q-74 -112 -138 -158q-88 -59 -177 -59q-101 0 -163 59q-55 51 -100 161q-51 -69 -87 -102q-118 -115 -259 -115h-9q-32 0 -55.5 23t-23.5 55q0 30 24 53z
M1081 677v1v-1zM1200 -239l146 -146l-148 -148l-146 146zM794 -240l146 -147l-148 -148l-146 147zM1002 -545l132 -132l-133 -133l-132 132zM1054 1125l146 146l148 -148l-146 -146zM648 1126l146 147l148 -148l-146 -147zM871 1416l132 132l133 -133l-132 -132z" />
    <glyph glyph-name="uni069C.fina" unicode="&#x69c;" horiz-adv-x="2894" 
d="M2891 176q32 0 55.5 -23t23.5 -56q0 -32 -23.5 -54.5t-55.5 -22.5h-9h-11q-157 0 -264 125q-26 26 -72 107q-39 -90 -78 -136q-91 -97 -216 -97q-55 0 -117 38q-67 41 -113 108q-116 -134 -299 -146q-76 -4 -156 29q-32 13 -63 32l2 -52q1 -15 1 -43q0 -179 -92 -322
q-48 -75 -118.5 -134t-157.5 -98q-162 -75 -352 -75l-34 1q-124 0 -231.5 37.5t-189.5 107.5q-72 67 -120 159q-51 95 -64 196q-9 60 -9 117q0 152 50 312q24 82 54.5 149t59.5 112l65 -48l19 -15q28 -22 43 -32q-19 -30 -42 -81.5t-42 -113.5q-48 -156 -48 -290
q0 -44 5 -79t16 -74q24 -85 86 -157q73 -86 210 -122q70 -19 169 -19q218 10 352.5 88.5t182.5 223.5q37 114 37 255q0 113 -25.5 225t-81.5 239q18 12 39 22.5t28 14.5l32 16q11 5 33 19q2 -2 8 -17q0 -1 16 -39l30 -76q27 -76 48.5 -125.5t49.5 -87.5q71 -96 184 -96
q100 0 153 68q43 56 61 163q8 46 10.5 101.5t3.5 66.5q0 23 1 35v15l164 -11l-7 -152q0 -119 27 -192q36 -99 126 -99q31 0 51 11.5t43 37.5v-1q37 40 62 116.5t30 176.5l1 34q0 29 -3 59l-8 96l164 11q5 -62 13 -122q10 -74 27 -152q42 -129 105 -196.5t141 -67.5h20z
M2051 1046l146 146l148 -148l-146 -146zM1645 1047l146 147l148 -148l-146 -147zM1868 1337l132 132l133 -133l-132 -132zM2168 -191l146 -146l-148 -148l-146 146zM1762 -192l146 -147l-148 -148l-146 147zM1970 -497l132 -132l-133 -133l-132 132z" />
    <glyph glyph-name="uni069D.init" unicode="&#x69d;" horiz-adv-x="1887" 
d="M946 151q44 0 89 3q168 10 297 46q143 38 206 96q46 41 69.5 89t23.5 97q0 80 -56 141q-90 75 -192 77q-88 0 -192 -56q-77 -41 -178 -130v1q-85 -80 -170 -191q-76 -98 -104 -155q95 -18 207 -18zM-56 153.5q23 22.5 56 22.5q115 0 185 36q48 23 81 67q33 46 51 104.5
t38 157.5q4 14 7 35q13 63 25 106l151 -45q-4 -11 -7 -29q-12 -56 -18 -111q-4 -25 -2 -42q0 -133 82 -238q31 69 112 183q88 123 199 228q117 111 248 171q122 57 244 57q24 0 36 -1q148 -13 257 -123q45 -58 69.5 -125.5t24.5 -136.5q0 -83 -36.5 -160t-108.5 -136
q-122 -100 -315 -147q-162 -39 -341 -39q-124 0 -197 5.5t-134 24.5q-68 21 -126.5 65t-120.5 121q-68 -93 -165 -138t-230 -46h-9q-33 0 -56 22.5t-23 55.5t23 55.5zM1043 -367l-148 -148l-150 149l148 149zM1437 -368l-148 -149l-150 150l148 148z" />
    <glyph glyph-name="uni069D.medi" unicode="&#x69d;" horiz-adv-x="1937" 
d="M-56 153q23 23 55 23h9q121 3 170 26q47 23 88 76q33 45 55 108.5t45 165.5l15 66q11 48 16 64l149 -46q-18 -65 -25.5 -102t-7.5 -87q0 -73 13 -119q20 -76 76 -114q37 79 112 184q89 127 193 228q88 82 192 139q108 59 211 79h-1q57 11 107 11q56 0 114 -14
q109 -28 184 -109q95 -95 88 -262q-6 -76 -44 -152t-104 -142h279q33 0 56.5 -23t23.5 -56t-23.5 -55t-56.5 -22l-252 -1q-112 0 -176.5 7t-104.5 25q-227 -62 -414 -62q-79 0 -177 13q-140 18 -233 61q-124 56 -161 149q-79 -106 -173 -147q-93 -45 -243 -45
q-33 0 -55.5 22t-22.5 55t23 56zM882 157q43 -4 95 -4q172 0 313 32q166 38 259 112h-1q98 78 98 199q0 42 -12.5 76t-30.5 51q-58 56 -128 69q-23 4 -52 4q-33 0 -84 -7q-81 -12 -165 -59.5t-158 -118.5v1q-88 -83 -163 -188q-67 -92 -97 -154q45 -6 126 -13zM1074 -367
l-148 -148l-150 149l148 149zM1468 -368l-148 -149l-150 150l148 148z" />
    <glyph glyph-name="uni069D.fina" unicode="&#x69d;" horiz-adv-x="2872" 
d="M2073 142q105 0 207 24q111 26 184 71q44 23 75.5 68.5t43.5 99.5q6 29 6 58q0 83 -49 136q-56 57 -127 73q-29 7 -65 7q-31 0 -75 -7q-77 -12 -161 -64q-70 -43 -148 -116q-74 -70 -141 -155q-61 -79 -93 -137q157 -58 343 -58zM2697 51q-77 27 -119 69
q-111 -70 -251 -105q-110 -27 -219 -29q-8 -1 -23 -1h-24q-101 0 -197 16t-174 45q-99 36 -216 120q3 -51 4 -66l2 -36q1 -12 1 -29v-27q0 -9 -2 -27q-10 -135 -60 -248q-63 -131 -157 -213q-89 -73 -206.5 -111.5t-254.5 -38.5q-54 0 -98 4q-201 20 -320 94
q-117 69 -176 184.5t-59 268.5q0 126 37 272q22 90 61 188q32 81 56 121l135 -87q-46 -95 -78 -195q-54 -166 -54 -296q0 -113 40 -194q44 -89 134.5 -137.5t235.5 -61.5q40 -3 81 -3q228 0 364 112q80 69 123 176q31 79 38 177q2 34 2 53q0 138 -51 327q-28 99 -70 211
l147 58q63 -145 149 -271q37 -54 97 -98q35 67 107 162q71 94 155 172q89 87 187.5 144t200.5 77h-1q46 10 99 10q65 0 123 -16q114 -32 185 -113q47 -56 72 -121.5t25 -135.5q0 -112 -62 -217q13 -19 70 -38q56 -21 104 -21h8q33 0 56 -23t23 -56q0 -32 -23 -54.5
t-56 -22.5q-83 0 -171 31zM1952 -369l-148 -148l-150 149l148 149zM2346 -370l-148 -149l-150 150l148 148z" />
    <glyph glyph-name="uni069E.init" unicode="&#x69e;" horiz-adv-x="1894" 
d="M946 151q44 0 89 3q168 10 297 46q143 38 206 96q46 41 69.5 89t23.5 97q0 80 -56 141q-90 75 -192 77q-88 0 -192 -56q-77 -41 -178 -130v1q-85 -80 -170 -191q-76 -98 -104 -155q95 -18 207 -18zM-56 153.5q23 22.5 56 22.5q115 0 185 36q48 23 81 67q33 46 51 104.5
t38 157.5q4 14 7 35q13 63 25 106l151 -45q-4 -11 -7 -29q-12 -56 -18 -111q-4 -25 -2 -42q0 -133 82 -238q31 69 112 183q88 123 199 228q117 111 248 171q122 57 244 57q24 0 36 -1q148 -13 257 -123q45 -58 69.5 -125.5t24.5 -136.5q0 -83 -36.5 -160t-108.5 -136
q-122 -100 -315 -147q-162 -39 -341 -39q-124 0 -197 5.5t-134 24.5q-68 21 -126.5 65t-120.5 121q-68 -93 -165 -138t-230 -46h-9q-33 0 -56 22.5t-23 55.5t23 55.5zM1349 1203l146 146l148 -148l-146 -146zM943 1204l146 147l148 -148l-146 -147zM1166 1494l132 132
l133 -133l-132 -132z" />
    <glyph glyph-name="uni069E.medi" unicode="&#x69e;" horiz-adv-x="1926" 
d="M-56 153q23 23 55 23h9q121 3 170 26q47 23 88 76q33 45 55 108.5t45 165.5l15 66q11 48 16 64l149 -46q-18 -65 -25.5 -102t-7.5 -87q0 -73 13 -119q20 -76 76 -114q37 79 112 184q89 127 193 228q88 82 192 139q108 59 211 79h-1q57 11 107 11q56 0 114 -14
q109 -28 184 -109q95 -95 88 -262q-6 -76 -44 -152t-104 -142h279q33 0 56.5 -23t23.5 -56t-23.5 -55t-56.5 -22l-252 -1q-112 0 -176.5 7t-104.5 25q-227 -62 -414 -62q-79 0 -177 13q-140 18 -233 61q-124 56 -161 149q-79 -106 -173 -147q-93 -45 -243 -45
q-33 0 -55.5 22t-22.5 55t23 56zM882 157q43 -4 95 -4q172 0 313 32q166 38 259 112h-1q98 78 98 199q0 42 -12.5 76t-30.5 51q-58 56 -128 69q-23 4 -52 4q-33 0 -84 -7q-81 -12 -165 -59.5t-158 -118.5v1q-88 -83 -163 -188q-67 -92 -97 -154q45 -6 126 -13zM1332 1224
l146 146l148 -148l-146 -146zM926 1225l146 147l148 -148l-146 -147zM1149 1515l132 132l133 -133l-132 -132z" />
    <glyph glyph-name="uni069E.fina" unicode="&#x69e;" horiz-adv-x="2867" 
d="M2073 142q105 0 207 24q111 26 184 71q44 23 75.5 68.5t43.5 99.5q6 29 6 58q0 83 -49 136q-56 57 -127 73q-29 7 -65 7q-31 0 -75 -7q-77 -12 -161 -64q-70 -43 -148 -116q-74 -70 -141 -155q-61 -79 -93 -137q157 -58 343 -58zM2697 51q-77 27 -119 69
q-111 -70 -251 -105q-110 -27 -219 -29q-8 -1 -23 -1h-24q-101 0 -197 16t-174 45q-99 36 -216 120q3 -51 4 -66l2 -36q1 -12 1 -29v-27q0 -9 -2 -27q-10 -135 -60 -248q-63 -131 -157 -213q-89 -73 -206.5 -111.5t-254.5 -38.5q-54 0 -98 4q-201 20 -320 94
q-117 69 -176 184.5t-59 268.5q0 126 37 272q22 90 61 188q32 81 56 121l135 -87q-46 -95 -78 -195q-54 -166 -54 -296q0 -113 40 -194q44 -89 134.5 -137.5t235.5 -61.5q40 -3 81 -3q228 0 364 112q80 69 123 176q31 79 38 177q2 34 2 53q0 138 -51 327q-28 99 -70 211
l147 58q63 -145 149 -271q37 -54 97 -98q35 67 107 162q71 94 155 172q89 87 187.5 144t200.5 77h-1q46 10 99 10q65 0 123 -16q114 -32 185 -113q47 -56 72 -121.5t25 -135.5q0 -112 -62 -217q13 -19 70 -38q56 -21 104 -21h8q33 0 56 -23t23 -56q0 -32 -23 -54.5
t-56 -22.5q-83 0 -171 31zM2224 1162l146 146l148 -148l-146 -146zM1818 1163l146 147l148 -148l-146 -147zM2041 1453l132 132l133 -133l-132 -132z" />
    <glyph glyph-name="uni069F.init" unicode="&#x69f;" horiz-adv-x="1591" 
d="M402 176h129q92 0 165.5 5t146.5 22q188 43 335 164q58 51 86 104q25 52 25 99q0 17 -3 33q-8 43 -36.5 75t-70.5 51q-53 23 -119 23q-30 0 -53 -4q-219 -48 -489 -343v1q-17 -19 -48 -58q-18 -22 -49 -64l-81 -107q11 -1 62 -1zM-58.5 153q23.5 23 55.5 23h9h153l11 18
q11 18 13 22l-1 -1q29 51 57.5 95t75.5 102q24 140 24 410q0 227 -23 459l-21 215l163 29q44 -347 44 -714v-44q-1 -17 -1 -54q-1 -19 -1 -54q-1 -17 -1 -45q267 248 484 290q48 8 88 8q48 0 98 -11q93 -22 165 -89q95 -102 95 -229q0 -88 -41 -178q-40 -88 -101 -153
q-156 -139 -358 -193q-144 -40 -331 -40l-592 1h-9q-33 0 -56 22.5t-23 55.5q0 32 23.5 55zM1076 1203l146 146l148 -148l-146 -146zM670 1204l146 147l148 -148l-146 -147zM893 1494l132 132l133 -133l-132 -132z" />
    <glyph glyph-name="uni069F.medi" unicode="&#x69f;" horiz-adv-x="1587" 
d="M484 175h45q15 -1 45 -1q96 0 171 6.5t145 25.5q79 21 152 59.5t144 101.5q41 41 68 106q28 66 26 127q-15 85 -100 125q-53 25 -125 25q-13 0 -37 -2q-57 -10 -134 -46.5t-160 -100.5q-211 -161 -376 -425zM-63.5 153.5q22.5 22.5 55.5 22.5h8h156q35 56 85 125
q43 58 76 97l4 7q13 17 21 87q6 66 6 167q0 127 -8 293q-8 159 -20 304q-13 158 -24 233l155 28q58 -389 58 -797v-108q276 258 484 289q37 5 66 5q59 0 116.5 -15t105.5 -43q66 -38 107.5 -99.5t49.5 -141.5q1 -8 1 -25q0 -87 -40 -175q-39 -84 -98 -149l-22 -21l-28 -28
l-35 -33h373q33 0 55.5 -22t22.5 -55q0 -32 -22.5 -55t-55.5 -23h-40q-56 -2 -114 -2h-94q-111 0 -187 7q-111 10 -195 37q-90 -26 -173.5 -34.5t-180.5 -8.5h-613q-33 0 -55.5 22.5t-22.5 55.5t22.5 55.5zM1067 1197l146 146l148 -148l-146 -146zM661 1198l146 147
l148 -148l-146 -147zM884 1488l132 132l133 -133l-132 -132z" />
    <glyph glyph-name="uni069F.fina" unicode="&#x69f;" horiz-adv-x="1868" 
d="M948 20q-14 -1 -41 -1h-40q-59 0 -126 4h-4q-304 17 -608 132l19 48l10 27q12 35 27 72q108 -42 256 -79q67 98 134 181l25 36q12 85 12 159q0 44 -1 66q-2 42 -2 68q0 106 -14 294q-11 142 -29 316q-9 81 -22 175l155 35q4 -27 14 -120l10 -91l20 -196l3 -35l5 -52
l4 -47q1 -16 2 -27t2 -19q3 -32 5 -77q0 -28 1 -43q0 -34 1 -59l4 -167q267 255 483 287q40 7 68 7q66 0 131 -21t118 -60q58 -44 92 -105.5t34 -134.5q0 -50 -15 -107t-44 -112q-33 -63 -79 -115t-101 -81l403 -2h8q33 0 55.5 -22.5t22.5 -55.5q0 -32 -22.5 -55t-55.5 -23
h-920zM930 178q147 7 258 45q148 50 264 156q43 48 66 103q23 54 23 105q0 86 -79 132q-30 17 -66 26t-73 9q-25 0 -46 -3q-105 -17 -229 -103t-261 -238l-175 -222zM1313 1247l146 146l148 -148l-146 -146zM907 1248l146 147l148 -148l-146 -147zM1130 1538l132 132
l133 -133l-132 -132z" />
    <glyph glyph-name="uni06A0.init" unicode="&#x6a0;" horiz-adv-x="1089" 
d="M875 634q-75 62 -184 105q-54 20 -108 20q-119 0 -190 -78q-32 -35 -48.5 -81.5t-16.5 -96.5q0 -65 29 -121t80 -95q45 -36 101.5 -55t119.5 -19q19 0 29 1q82 5 175 20q47 7 109 19l19 -152q-143 -36 -290 -54q-207 -25 -482 -25l-218 -2q-33 0 -56.5 22.5t-23.5 55.5
t23.5 55.5t56.5 22.5l335 4q-87 79 -125 157.5t-38 165.5q0 83 30.5 157.5t86.5 132.5t131.5 90t162.5 32q131 0 256 -67q76 -41 133 -95zM548 1206l146 146l148 -148l-146 -146zM142 1207l146 147l148 -148l-146 -147zM365 1497l132 132l133 -133l-132 -132z" />
    <glyph glyph-name="uni06A0.medi" unicode="&#x6a0;" horiz-adv-x="1149" 
d="M1201.5 152.5q23.5 -23.5 23.5 -56.5q0 -32 -23.5 -54.5t-55.5 -22.5q-327 0 -543 126q-129 -61 -293 -94q-160 -32 -309 -32q-32 0 -55.5 22.5t-23.5 54.5q0 33 23.5 56.5t55.5 23.5q103 0 234 21q131 20 218 55q-67 62 -124.5 125.5t-138.5 160.5l-79 93l10 123
q85 74 206 118q85 30 190 43q52 5 89 5q74 0 145 -13.5t132 -38.5q86 -39 126 -98q16 -23 23 -46.5t7 -41.5q1 -5 1 -15q0 -42 -23 -95.5t-63 -111.5q-43 -61 -97.5 -118.5t-109.5 -99.5q85 -32 188.5 -49t210.5 -17q32 0 55.5 -23.5zM729 433q60 66 106 140t46 111
q-60 39 -133 59t-152 20q-77 0 -158 -22t-157 -66q118 -141 167 -194q82 -90 157 -150q55 28 124 102zM644 1249l146 146l148 -148l-146 -146zM238 1250l146 147l148 -148l-146 -147zM461 1540l132 132l133 -133l-132 -132z" />
    <glyph glyph-name="uni06A0.fina" unicode="&#x6a0;" horiz-adv-x="1362" 
d="M801 -615q85 0 164 13q158 25 284 105l42 -69q27 -48 39 -67q-88 -54 -189.5 -89t-208.5 -47q-55 -7 -117 -7q-164 0 -307 53q-103 38 -188 103t-146 156q-29 49 -44 113t-15 133q0 73 15.5 141t44.5 120h-1q58 104 177 194q108 81 245 138q-74 67 -132 126t-132 139
l-17 18q-3 26 -10 109q53 78 167 135q80 40 172 61l-1 -1q108 24 209 24q112 0 195 -28q96 -29 147.5 -86.5t51.5 -134.5q0 -81 -39 -154.5t-109 -132.5q-75 -60 -195 -115q124 -76 235.5 -117.5t216.5 -41.5q32 -1 54.5 -24t22.5 -55q0 -33 -22 -55t-55 -23q-151 0 -314 68
q-136 56 -309 176q-94 -38 -172 -79t-139 -93q-150 -130 -150 -297q0 -100 70 -193q61 -82 157 -141q89 -54 168 -67q70 -8 135 -8zM610 579q80 -80 146 -134q170 70 245 130q42 34 63.5 72t23.5 84q0 26 -28 49q-21 16 -58 29q-60 20 -149 20q-95 0 -201 -30
q-108 -32 -179 -80q71 -76 137 -140zM817 1287l146 146l148 -148l-146 -146zM411 1288l146 147l148 -148l-146 -147zM634 1578l132 132l133 -133l-132 -132z" />
    <glyph glyph-name="uni06A1.fina" unicode="&#x6a1;" horiz-adv-x="2106" 
d="M1920 373q-21 -58 -74 -134l-6 -7q-3 -4 -24 -25q170 -31 292 -31q33 0 56 -22.5t23 -55.5q0 -32 -23.5 -55t-55.5 -23q-257 0 -470 73l-67 -22q-92 -35 -265 -54q-156 -19 -345 -19q-302 1 -498.5 74.5t-283.5 220.5q-64 107 -64 244q0 98 28 189q16 55 44 114l70 -38
l69 -38q-20 -41 -34 -92q-20 -65 -20 -136q0 -88 43 -164q67 -106 204 -157q141 -55 386 -61q78 -2 107 -2q125 0 235 13q80 8 180 28q-73 59 -120 152q-39 78 -39 156q0 72 27 146.5t74 134.5q50 63 115 99.5t139 36.5q64 0 120 -23.5t98 -69.5q44 -44 71 -105
q35 -84 35 -184q0 -87 -27 -163zM1817 528q0 95 -42 154q-32 43 -85 64q-34 13 -67 13t-69.5 -16.5t-65.5 -48.5q-33 -35 -52.5 -85t-19.5 -113q0 -27 15 -61t42 -66q29 -36 68.5 -64t87.5 -42q188 107 188 265z" />
    <glyph glyph-name="uni06A2.init" unicode="&#x6a2;" horiz-adv-x="957" 
d="M384 933q-26 -14 -51 -40q-29 -30 -50 -72t-30 -94v1q-4 -26 -4 -41q0 -18 2 -27q5 -41 24 -61h-1q22 -28 78 -47q52 -19 114 -24q34 -2 50 -2h46q65 0 109 4q-7 106 -44 205q-36 94 -91 153v-1q-22 24 -46 40q-30 20 -62 20q-18 0 -44 -14zM-57.5 153.5
q23.5 22.5 56.5 22.5q143 0 249 10t184 32q79 22 134 59t94 91h-154q-103 0 -191 34q-91 35 -139 93q-34 28 -49 110q-8 43 -8 83q0 29 5 61q25 143 103 245q42 55 93.5 83t107.5 28q123 0 225 -111q78 -85 123 -215q44 -132 44 -268q0 -189 -113 -305q-102 -103 -292 -148
q-164 -40 -401 -38h-17q-32 0 -55 23t-23 55q0 33 23.5 55.5zM546 -299l-147 -147l-148 148l147 147z" />
    <glyph glyph-name="uni06A2.medi" unicode="&#x6a2;" horiz-adv-x="1014" 
d="M440 744q-37 -17 -68 -49q-35 -36 -55.5 -86.5t-20.5 -113.5q0 -27 15.5 -59.5t43.5 -65.5q64 -74 164 -119q81 36 131 112q45 69 45 143q0 47 -16.5 93t-44.5 83q-27 37 -60.5 58t-65.5 21q-31 0 -68 -17zM-55.5 154q22.5 22 55.5 22q75 0 156 6q83 5 153 15
q-73 64 -116 147q-39 77 -39 148q0 75 26.5 150t73.5 136q49 63 114.5 100t140.5 40q77 -5 139.5 -38.5t106.5 -88.5q42 -54 64 -121.5t22 -139.5q0 -83 -34 -166.5t-101 -156.5q75 -15 157.5 -23t154.5 -8q34 0 56.5 -22t22.5 -56q0 -33 -22.5 -55.5t-56.5 -22.5h-9
q-74 0 -130 5q-88 6 -128 13q-127 20 -228 54q-93 -35 -229 -54q-132 -18 -286 -18h-8q-33 0 -55.5 22.5t-22.5 55.5q0 34 22.5 56zM637 -331l-147 -147l-148 148l147 147z" />
    <glyph glyph-name="uni06A2.fina" unicode="&#x6a2;" horiz-adv-x="2101" 
d="M1920 373q-21 -58 -74 -134l-6 -7q-3 -4 -24 -25q170 -31 292 -31q33 0 56 -22.5t23 -55.5q0 -32 -23.5 -55t-55.5 -23q-257 0 -470 73l-67 -22q-92 -35 -265 -54q-156 -19 -345 -19q-302 1 -498.5 74.5t-283.5 220.5q-64 107 -64 244q0 98 28 189q16 55 44 114l70 -38
l69 -38q-20 -41 -34 -92q-20 -65 -20 -136q0 -88 43 -164q67 -106 204 -157q141 -55 386 -61q78 -2 107 -2q125 0 235 13q80 8 180 28q-73 59 -120 152q-39 78 -39 156q0 72 27 146.5t74 134.5q50 63 115 99.5t139 36.5q64 0 120 -23.5t98 -69.5q44 -44 71 -105
q35 -84 35 -184q0 -87 -27 -163zM1817 528q0 95 -42 154q-32 43 -85 64q-34 13 -67 13t-69.5 -16.5t-65.5 -48.5q-33 -35 -52.5 -85t-19.5 -113q0 -27 15 -61t42 -66q29 -36 68.5 -64t87.5 -42q188 107 188 265zM1731 -371l-147 -147l-148 148l147 147z" />
    <glyph glyph-name="uni06A3.init" unicode="&#x6a3;" horiz-adv-x="941" 
d="M384 933q-26 -14 -51 -40q-29 -30 -50 -72t-30 -94v1q-4 -26 -4 -41q0 -18 2 -27q5 -41 24 -61h-1q22 -28 78 -47q52 -19 114 -24q34 -2 50 -2h46q65 0 109 4q-7 106 -44 205q-36 94 -91 153v-1q-22 24 -46 40q-30 20 -62 20q-18 0 -44 -14zM-57.5 153.5
q23.5 22.5 56.5 22.5q143 0 249 10t184 32q79 22 134 59t94 91h-154q-103 0 -191 34q-91 35 -139 93q-34 28 -49 110q-8 43 -8 83q0 29 5 61q25 143 103 245q42 55 93.5 83t107.5 28q123 0 225 -111q78 -85 123 -215q44 -132 44 -268q0 -189 -113 -305q-102 -103 -292 -148
q-164 -40 -401 -38h-17q-32 0 -55 23t-23 55q0 33 23.5 55.5zM509 1502l-147 -147l-148 148l147 147zM508 -329l-147 -147l-148 148l147 147z" />
    <glyph glyph-name="uni06A3.medi" unicode="&#x6a3;" horiz-adv-x="1009" 
d="M440 744q-37 -17 -68 -49q-35 -36 -55.5 -86.5t-20.5 -113.5q0 -27 15.5 -59.5t43.5 -65.5q64 -74 164 -119q81 36 131 112q45 69 45 143q0 47 -16.5 93t-44.5 83q-27 37 -60.5 58t-65.5 21q-31 0 -68 -17zM-55.5 154q22.5 22 55.5 22q75 0 156 6q83 5 153 15
q-73 64 -116 147q-39 77 -39 148q0 75 26.5 150t73.5 136q49 63 114.5 100t140.5 40q77 -5 139.5 -38.5t106.5 -88.5q42 -54 64 -121.5t22 -139.5q0 -83 -34 -166.5t-101 -156.5q75 -15 157.5 -23t154.5 -8q34 0 56.5 -22t22.5 -56q0 -33 -22.5 -55.5t-56.5 -22.5h-9
q-74 0 -130 5q-88 6 -128 13q-127 20 -228 54q-93 -35 -229 -54q-132 -18 -286 -18h-8q-33 0 -55.5 22.5t-22.5 55.5q0 34 22.5 56zM614 1342l-147 -147l-148 148l147 147zM613 -369l-147 -147l-148 148l147 147z" />
    <glyph glyph-name="uni06A3.fina" unicode="&#x6a3;" horiz-adv-x="2112" 
d="M1920 373q-21 -58 -74 -134l-6 -7q-3 -4 -24 -25q170 -31 292 -31q33 0 56 -22.5t23 -55.5q0 -32 -23.5 -55t-55.5 -23q-257 0 -470 73l-67 -22q-92 -35 -265 -54q-156 -19 -345 -19q-302 1 -498.5 74.5t-283.5 220.5q-64 107 -64 244q0 98 28 189q16 55 44 114l70 -38
l69 -38q-20 -41 -34 -92q-20 -65 -20 -136q0 -88 43 -164q67 -106 204 -157q141 -55 386 -61q78 -2 107 -2q125 0 235 13q80 8 180 28q-73 59 -120 152q-39 78 -39 156q0 72 27 146.5t74 134.5q50 63 115 99.5t139 36.5q64 0 120 -23.5t98 -69.5q44 -44 71 -105
q35 -84 35 -184q0 -87 -27 -163zM1817 528q0 95 -42 154q-32 43 -85 64q-34 13 -67 13t-69.5 -16.5t-65.5 -48.5q-33 -35 -52.5 -85t-19.5 -113q0 -27 15 -61t42 -66q29 -36 68.5 -64t87.5 -42q188 107 188 265zM1709 -334l-147 -147l-148 148l147 147zM1716 1302l-147 -147
l-148 148l147 147z" />
    <glyph glyph-name="uni06A5.init" unicode="&#x6a5;" horiz-adv-x="903" 
d="M384 933q-26 -14 -51 -40q-29 -30 -50 -72t-30 -94v1q-4 -26 -4 -41q0 -18 2 -27q5 -41 24 -61h-1q22 -28 78 -47q52 -19 114 -24q34 -2 50 -2h46q65 0 109 4q-7 106 -44 205q-36 94 -91 153v-1q-22 24 -46 40q-30 20 -62 20q-18 0 -44 -14zM-57.5 153.5
q23.5 22.5 56.5 22.5q143 0 249 10t184 32q79 22 134 59t94 91h-154q-103 0 -191 34q-91 35 -139 93q-34 28 -49 110q-8 43 -8 83q0 29 5 61q25 143 103 245q42 55 93.5 83t107.5 28q123 0 225 -111q78 -85 123 -215q44 -132 44 -268q0 -189 -113 -305q-102 -103 -292 -148
q-164 -40 -401 -38h-17q-32 0 -55 23t-23 55q0 33 23.5 55.5zM591 -150l146 -146l-148 -148l-146 146zM185 -151l146 -147l-148 -148l-146 147zM393 -456l132 -132l-133 -133l-132 132z" />
    <glyph glyph-name="uni06A5.medi" unicode="&#x6a5;" horiz-adv-x="1042" 
d="M440 744q-37 -17 -68 -49q-35 -36 -55.5 -86.5t-20.5 -113.5q0 -27 15.5 -59.5t43.5 -65.5q64 -74 164 -119q81 36 131 112q45 69 45 143q0 47 -16.5 93t-44.5 83q-27 37 -60.5 58t-65.5 21q-31 0 -68 -17zM-55.5 154q22.5 22 55.5 22q75 0 156 6q83 5 153 15
q-73 64 -116 147q-39 77 -39 148q0 75 26.5 150t73.5 136q49 63 114.5 100t140.5 40q77 -5 139.5 -38.5t106.5 -88.5q42 -54 64 -121.5t22 -139.5q0 -83 -34 -166.5t-101 -156.5q75 -15 157.5 -23t154.5 -8q34 0 56.5 -22t22.5 -56q0 -33 -22.5 -55.5t-56.5 -22.5h-9
q-74 0 -130 5q-88 6 -128 13q-127 20 -228 54q-93 -35 -229 -54q-132 -18 -286 -18h-8q-33 0 -55.5 22.5t-22.5 55.5q0 34 22.5 56zM713 -146l146 -146l-148 -148l-146 146zM307 -147l146 -147l-148 -148l-146 147zM515 -452l132 -132l-133 -133l-132 132z" />
    <glyph glyph-name="uni06A5.fina" unicode="&#x6a5;" horiz-adv-x="2112" 
d="M1920 373q-21 -58 -74 -134l-6 -7q-3 -4 -24 -25q170 -31 292 -31q33 0 56 -22.5t23 -55.5q0 -32 -23.5 -55t-55.5 -23q-257 0 -470 73l-67 -22q-92 -35 -265 -54q-156 -19 -345 -19q-302 1 -498.5 74.5t-283.5 220.5q-64 107 -64 244q0 98 28 189q16 55 44 114l70 -38
l69 -38q-20 -41 -34 -92q-20 -65 -20 -136q0 -88 43 -164q67 -106 204 -157q141 -55 386 -61q78 -2 107 -2q125 0 235 13q80 8 180 28q-73 59 -120 152q-39 78 -39 156q0 72 27 146.5t74 134.5q50 63 115 99.5t139 36.5q64 0 120 -23.5t98 -69.5q44 -44 71 -105
q35 -84 35 -184q0 -87 -27 -163zM1817 528q0 95 -42 154q-32 43 -85 64q-34 13 -67 13t-69.5 -16.5t-65.5 -48.5q-33 -35 -52.5 -85t-19.5 -113q0 -27 15 -61t42 -66q29 -36 68.5 -64t87.5 -42q188 107 188 265zM1763 -150l146 -146l-148 -148l-146 146zM1357 -151l146 -147
l-148 -148l-146 147zM1565 -456l132 -132l-133 -133l-132 132z" />
    <glyph glyph-name="uni06A6.init" unicode="&#x6a6;" horiz-adv-x="874" arabic-form="initial" 
d="M384 933q-26 -14 -51 -40q-29 -30 -50 -72t-30 -94v1q-4 -26 -4 -41q0 -18 2 -27q5 -41 24 -61h-1q22 -28 78 -47q52 -19 114 -24q34 -2 50 -2h46q65 0 109 4q-7 106 -44 205q-36 94 -91 153v-1q-22 24 -46 40q-30 20 -62 20q-18 0 -44 -14zM-57.5 153.5
q23.5 22.5 56.5 22.5q143 0 249 10t184 32q79 22 134 59t94 91h-154q-103 0 -191 34q-91 35 -139 93q-34 28 -49 110q-8 43 -8 83q0 29 5 61q25 143 103 245q42 55 93.5 83t107.5 28q123 0 225 -111q78 -85 123 -215q44 -132 44 -268q0 -189 -113 -305q-102 -103 -292 -148
q-164 -40 -401 -38h-17q-32 0 -55 23t-23 55q0 33 23.5 55.5zM696 1457l-148 -149l-150 150l148 148zM336 1451l-148 -148l-150 149l148 149zM693 1858l-148 -149l-150 150l148 148zM333 1852l-148 -148l-150 149l148 149z" />
    <glyph glyph-name="uni06A6.medi" unicode="&#x6a6;" horiz-adv-x="1042" arabic-form="medial" 
d="M440 744q-37 -17 -68 -49q-35 -36 -55.5 -86.5t-20.5 -113.5q0 -27 15.5 -59.5t43.5 -65.5q64 -74 164 -119q81 36 131 112q45 69 45 143q0 47 -16.5 93t-44.5 83q-27 37 -60.5 58t-65.5 21q-31 0 -68 -17zM-55.5 154q22.5 22 55.5 22q75 0 156 6q83 5 153 15
q-73 64 -116 147q-39 77 -39 148q0 75 26.5 150t73.5 136q49 63 114.5 100t140.5 40q77 -5 139.5 -38.5t106.5 -88.5q42 -54 64 -121.5t22 -139.5q0 -83 -34 -166.5t-101 -156.5q75 -15 157.5 -23t154.5 -8q34 0 56.5 -22t22.5 -56q0 -33 -22.5 -55.5t-56.5 -22.5h-9
q-74 0 -130 5q-88 6 -128 13q-127 20 -228 54q-93 -35 -229 -54q-132 -18 -286 -18h-8q-33 0 -55.5 22.5t-22.5 55.5q0 34 22.5 56zM836 1202l-148 -149l-150 150l148 148zM476 1196l-148 -148l-150 149l148 149zM833 1603l-148 -149l-150 150l148 148zM473 1597l-148 -148
l-150 149l148 149z" />
    <glyph glyph-name="uni06A6.fina" unicode="&#x6a6;" horiz-adv-x="2117" arabic-form="final" 
d="M1920 373q-21 -58 -74 -134l-6 -7q-3 -4 -24 -25q170 -31 292 -31q33 0 56 -22.5t23 -55.5q0 -32 -23.5 -55t-55.5 -23q-257 0 -470 73l-67 -22q-92 -35 -265 -54q-156 -19 -345 -19q-302 1 -498.5 74.5t-283.5 220.5q-64 107 -64 244q0 98 28 189q16 55 44 114l70 -38
l69 -38q-20 -41 -34 -92q-20 -65 -20 -136q0 -88 43 -164q67 -106 204 -157q141 -55 386 -61q78 -2 107 -2q125 0 235 13q80 8 180 28q-73 59 -120 152q-39 78 -39 156q0 72 27 146.5t74 134.5q50 63 115 99.5t139 36.5q64 0 120 -23.5t98 -69.5q44 -44 71 -105
q35 -84 35 -184q0 -87 -27 -163zM1817 528q0 95 -42 154q-32 43 -85 64q-34 13 -67 13t-69.5 -16.5t-65.5 -48.5q-33 -35 -52.5 -85t-19.5 -113q0 -27 15 -61t42 -66q29 -36 68.5 -64t87.5 -42q188 107 188 265zM1920 1213l-148 -149l-150 150l148 148zM1560 1207l-148 -148
l-150 149l148 149zM1917 1614l-148 -149l-150 150l148 148zM1557 1608l-148 -148l-150 149l148 149z" />
    <glyph glyph-name="uni06A7.fina" unicode="&#x6a7;" horiz-adv-x="1576" 
d="M928 607l1 1q-32 -40 -56.5 -92.5t-35.5 -110.5q-4 -25 -4 -52q0 -64 29 -99q29 -36 99 -56q34 -10 102 -18q85 -4 169 -4h62q-6 135 -48 252q-38 104 -96 170q-29 31 -54 47q-36 23 -74 23q-45 0 -94 -61zM1232 17q-76 0 -178 6q-101 8 -179.5 43t-126.5 92
q-30 41 -47 91.5t-17 104.5q0 31 8 81q13 80 41.5 148.5t70.5 120.5q96 122 218 122q134 0 245 -122q83 -90 131 -230q47 -136 53 -296q54 -2 120 -2q33 0 56 -22.5t23 -55.5q0 -32 -23.5 -55t-55.5 -23h-9h-122q-1 -7 -9 -47.5t-21 -83.5q-27 -88 -59 -151
q-78 -151 -208 -244h1q-162 -111 -387 -111q-192 0 -339 75q-149 75 -233 213q-86 146 -86 332q0 20 2 58q10 106 46.5 226t95.5 236l140 -74q-126 -244 -126 -447q0 -140 62.5 -245t174.5 -160q110 -55 263 -55q152 0 266 68t185 195q47 88 73 212h-49zM1173 1221
l-147 -147l-148 148l147 147z" />
    <glyph glyph-name="uni06A4.init" unicode="&#x6a8;" horiz-adv-x="914" 
d="M384 933q-26 -14 -51 -40q-29 -30 -50 -72t-30 -94v1q-4 -26 -4 -41q0 -18 2 -27q5 -41 24 -61h-1q22 -28 78 -47q52 -19 114 -24q34 -2 50 -2h46q65 0 109 4q-7 106 -44 205q-36 94 -91 153v-1q-22 24 -46 40q-30 20 -62 20q-18 0 -44 -14zM-57.5 153.5
q23.5 22.5 56.5 22.5q143 0 249 10t184 32q79 22 134 59t94 91h-154q-103 0 -191 34q-91 35 -139 93q-34 28 -49 110q-8 43 -8 83q0 29 5 61q25 143 103 245q42 55 93.5 83t107.5 28q123 0 225 -111q78 -85 123 -215q44 -132 44 -268q0 -189 -113 -305q-102 -103 -292 -148
q-164 -40 -401 -38h-17q-32 0 -55 23t-23 55q0 33 23.5 55.5zM403 1411l146 146l148 -148l-146 -146zM-3 1412l146 147l148 -148l-146 -147zM220 1702l132 132l133 -133l-132 -132z" />
    <glyph glyph-name="uni06A4.medi" unicode="&#x6a8;" horiz-adv-x="1033" 
d="M440 744q-37 -17 -68 -49q-35 -36 -55.5 -86.5t-20.5 -113.5q0 -27 15.5 -59.5t43.5 -65.5q64 -74 164 -119q81 36 131 112q45 69 45 143q0 47 -16.5 93t-44.5 83q-27 37 -60.5 58t-65.5 21q-31 0 -68 -17zM-55.5 154q22.5 22 55.5 22q75 0 156 6q83 5 153 15
q-73 64 -116 147q-39 77 -39 148q0 75 26.5 150t73.5 136q49 63 114.5 100t140.5 40q77 -5 139.5 -38.5t106.5 -88.5q42 -54 64 -121.5t22 -139.5q0 -83 -34 -166.5t-101 -156.5q75 -15 157.5 -23t154.5 -8q34 0 56.5 -22t22.5 -56q0 -33 -22.5 -55.5t-56.5 -22.5h-9
q-74 0 -130 5q-88 6 -128 13q-127 20 -228 54q-93 -35 -229 -54q-132 -18 -286 -18h-8q-33 0 -55.5 22.5t-22.5 55.5q0 34 22.5 56zM537 1236l146 146l148 -148l-146 -146zM131 1237l146 147l148 -148l-146 -147zM354 1527l132 132l133 -133l-132 -132z" />
    <glyph glyph-name="uni06A8.fina" unicode="&#x6a8;" horiz-adv-x="1565" 
d="M928 607l1 1q-32 -40 -56.5 -92.5t-35.5 -110.5q-4 -25 -4 -52q0 -64 29 -99q29 -36 99 -56q34 -10 102 -18q85 -4 169 -4h62q-6 135 -48 252q-38 104 -96 170q-29 31 -54 47q-36 23 -74 23q-45 0 -94 -61zM1232 17q-76 0 -178 6q-101 8 -179.5 43t-126.5 92
q-30 41 -47 91.5t-17 104.5q0 31 8 81q13 80 41.5 148.5t70.5 120.5q96 122 218 122q134 0 245 -122q83 -90 131 -230q47 -136 53 -296q54 -2 120 -2q33 0 56 -22.5t23 -55.5q0 -32 -23.5 -55t-55.5 -23h-9h-122q-1 -7 -9 -47.5t-21 -83.5q-27 -88 -59 -151
q-78 -151 -208 -244h1q-162 -111 -387 -111q-192 0 -339 75q-149 75 -233 213q-86 146 -86 332q0 20 2 58q10 106 46.5 226t95.5 236l140 -74q-126 -244 -126 -447q0 -140 62.5 -245t174.5 -160q110 -55 263 -55q152 0 266 68t185 195q47 88 73 212h-49zM1068 1158l146 146
l148 -148l-146 -146zM662 1159l146 147l148 -148l-146 -147zM885 1449l132 132l133 -133l-132 -132z" />
    <glyph glyph-name="uni06AA.init" unicode="&#x6aa;" horiz-adv-x="2138" 
d="M-61 153q23 23 55 23h7q2 -1 6 -1h191q121 0 449 4h38q326 4 537 12q295 12 483 29q104 9 188 21l-3 10l-3 8l-3 9q-55 99 -139 148l-15 9q-29 14 -100 24q-43 5 -97 5q-49 0 -101 -4l-114 -10l-42 -4l-57 -7q4 1 -36 -5q-1 -1 -3 -1h-1l-5 -1h-7q-9 0 -13 -1
q-14 -2 -50 -4t-59 -3l-23 -1q-91 -6 -213 -6h-54q-179 3 -300 29v-1q-70 16 -119 46q-39 24 -56.5 54t-20.5 58q-1 6 -1 16v13q0 140 136 267q52 49 121.5 92.5t166.5 90.5l408 153l48 -138l-22 -7q-12 -4 -49 -16t-76 -26q-127 -44 -239 -98q-159 -82 -255 -162
q-108 -90 -112 -163q11 -6 40 -15q68 -21 207 -32q70 -7 177 -7q117 0 229 7q39 1 78 5q37 3 71 8q80 10 140 16q80 8 154 10q19 1 54 1q116 0 196 -20q51 -14 89 -36q122 -75 197 -204q26 -46 44.5 -85t21.5 -46l-1 1l2 -5l-70 -117h-7l-89 -11l-21 -3q-195 -27 -452 -45
q-127 -9 -295 -11l-1153 -6h-3q-32 0 -55 23t-23 55t23 55z" />
    <glyph glyph-name="uni06AA.medi" unicode="&#x6aa;" horiz-adv-x="2675" 
d="M-69 153q23 23 55 23h3l244 -1q38 -1 115 -1h116q133 0 201 1q139 0 214 1q154 0 238 1q330 2 446 7q135 6 316 23l130 12l135 13l-16 32l-1 3q-36 58 -71 99.5t-64 58.5l-10 4q-3 1 -29 7q-61 9 -138 9q-70 0 -136 -5h1q-78 -6 -113 -10l-45 -4q-63 -7 -95 -13h-7
l-34 -2q-67 -7 -197 -11q-66 -3 -137 -3h-48q-180 3 -301 29v-1q-70 16 -119 46q-38 24 -55.5 54t-21.5 59q-1 5 -1 15v13q0 141 136 267q103 97 293 192q114 54 245 101q85 31 157 52l41 -149q-63 -19 -149 -49q-124 -44 -229 -95q-159 -79 -247 -162q-88 -85 -94 -164
q9 -5 37 -15q59 -21 189 -32q66 -7 172 -7q119 0 229 7q40 1 79 5q36 3 50 5l21 3q76 9 141 16q92 9 171 11q23 1 67 1q105 0 175 -14q47 -9 82 -28q48 -28 97.5 -84t95.5 -134l27 -51l3 -4q83 -107 377 -108h3q32 0 55 -23t23 -55t-23 -55t-55 -23q-79 2 -163.5 14
t-152.5 30q-42 12 -80 25q2 -3 -45 -8q-81 -9 -324 -22q-236 -13 -495 -23q-239 -11 -500 -16q-114 -3 -200 -3q-101 0 -193 0.5t-179 1.5q-116 0 -173 1h-184q-32 0 -55 23t-23 55t23 55z" />
    <glyph glyph-name="uni06AA.fina" unicode="&#x6aa;" horiz-adv-x="2720" 
d="M2350 284q43 -53 131.5 -80t239.5 -28q32 0 55 -23t23 -55t-23 -55t-55 -23q-154 4 -308 44l-9 3q-5 3 -22 6q-10 0 -24 6q-2 0 -29 11l-33 -3q-34 -5 -91 -9l-139 -12q-114 -9 -386 -28q-299 -20 -590 -28q-190 -5 -325 -5q-444 0 -717 42l19 112l7 40q264 -39 693 -39
q292 0 678 19q161 9 432 27l63 5l118 9l141 12l-16 32l-1 3q-36 58 -71 99.5t-64 58.5l-10 4q-3 1 -29 7q-61 9 -138 9q-70 0 -136 -5h1q-78 -6 -113 -10l-45 -4q-63 -7 -95 -13h-7l-34 -2q-67 -7 -197 -11q-66 -3 -137 -3h-48q-180 3 -301 29v-1q-70 16 -119 46
q-38 24 -55.5 54t-21.5 59q-1 5 -1 15v13q0 141 136 267q103 97 293 192q114 54 245 101q85 31 157 52q2 -6 7 -26l10 -35q8 -33 18 -68l6 -20q-63 -19 -149 -49q-124 -44 -229 -95q-169 -84 -260 -162q-102 -88 -108 -164q10 -6 41 -15q70 -21 208 -32q69 -7 176 -7
q119 0 229 7q40 1 79 5q36 3 50 5l21 3q76 9 141 16q92 9 171 11q23 1 67 1q105 0 175 -14q47 -9 82 -28q48 -28 97.5 -84t95.5 -134l27 -51z" />
    <glyph glyph-name="uni06AB.init" unicode="&#x6ab;" horiz-adv-x="925" 
d="M-63.5 153.5q24.5 22.5 63.5 22.5h56h49q85 0 144.5 2.5t113.5 12.5q140 26 193 105q43 64 43 149q0 95 -44 171q-45 76 -132 177q-84 97 -194 198q-53 49 -109 94q4 38 11 92l10 90l396 170l396 169l11 -26l21 -47q11 -24 31 -72l-728 -306q78 -66 135.5 -118
t108.5 -110q128 -142 186 -273q52 -118 52 -225q0 -110 -57 -215h1q-85 -150 -288 -188q-38 -7 -83 -7l-323 1q-38 0 -63 22t-25 55q0 34 24.5 56.5zM681.5 1057q25.5 13 45.5 35t30.5 50.5t8.5 59.5q-1 26 -10 54.5t-25 50.5q-40 52 -101 52q-29 0 -54.5 -14.5t-44.5 -38.5
q-18 -22 -28 -50t-10 -54q0 -27 11.5 -55t30.5 -51t44 -37.5t51 -14.5t51.5 13zM716.5 1423q39.5 -21 70.5 -58q29 -34 45.5 -77t18.5 -86q1 -46 -15.5 -89t-47.5 -78q-31 -36 -72.5 -56t-88.5 -20q-48 0 -88 20t-70 56q-29 35 -44.5 78.5t-15.5 88.5q0 43 15.5 86t44.5 77
q31 36 72 57.5t89 21.5q47 0 86.5 -21z" />
    <glyph glyph-name="uni06AB.medi" unicode="&#x6ab;" horiz-adv-x="1193" 
d="M-65.5 153q23.5 23 55.5 23h9h330q42 0 84.5 17.5t79.5 48.5q36 30 59.5 67.5t28.5 75.5q6 108 -72 250q-67 119 -182 250q-96 106 -203 190q4 50 12 100l12 99l854 368l11 -26l21 -47q11 -24 31 -72l-807 -339q168 -139 280 -293q44 -62 78 -121t86 -157
q66 -126 105 -190q64 -107 140 -159q83 -58 197 -62h43q33 0 55.5 -23t22.5 -55q0 -33 -22.5 -55.5t-55.5 -22.5h-8q-68 0 -121.5 8t-105.5 26h1q-64 23 -127 76.5t-119 125.5q-49 -90 -97 -134h1q-58 -52 -132.5 -75t-163.5 -27h-325q-33 0 -56 22.5t-23 55.5q0 32 23.5 55
zM699.5 1059q25.5 13 45.5 35t30.5 50.5t8.5 59.5q-1 26 -10 54.5t-25 50.5q-40 52 -101 52q-29 0 -54.5 -14.5t-44.5 -38.5q-18 -22 -28 -50t-10 -54q0 -27 11.5 -55t30.5 -51t44 -37.5t51 -14.5t51.5 13zM734.5 1425q39.5 -21 70.5 -58q29 -34 45.5 -77t18.5 -86
q1 -46 -15.5 -89t-47.5 -78q-31 -36 -72.5 -56t-88.5 -20q-48 0 -88 20t-70 56q-29 35 -44.5 78.5t-15.5 88.5q0 43 15.5 86t44.5 77q31 36 72 57.5t89 21.5q47 0 86.5 -21z" />
    <glyph glyph-name="uni06AB.fina" unicode="&#x6ab;" horiz-adv-x="2316" 
d="M2320 176q33 0 55.5 -22.5t22.5 -55.5q0 -32 -22.5 -55t-55.5 -23q-163 0 -299.5 68t-229.5 198q-36 -62 -86.5 -102.5t-115.5 -71.5h1q-200 -92 -541 -92h-92q-96 0 -175 7t-166 20q-160 23 -274 75q-65 29 -121 74q-56 44 -103 128l2 -2q-41 85 -41 180q0 92 37 176
q26 60 50 102t27 47l127 -94q-24 -40 -45 -85q-9 -19 -12 -30v1q-25 -66 -25 -128q0 -53 22 -98q42 -81 162 -133t311 -72q78 -6 125 -7q80 -2 107 -2q62 -2 86 -2q148 0 279 23q89 16 170 46q101 38 146.5 93.5t45.5 126.5q0 99 -92 229q-67 94 -204 221q-84 77 -199 166
l10 93l10 91l868 373l59 -145l-806 -341q182 -127 313 -276q136 -155 185 -303q25 -69 43 -112.5t45 -85.5q68 -107 181 -160q81 -38 207 -40h8zM1842.5 1083q25.5 13 45.5 35t30.5 50.5t8.5 59.5q-1 26 -10 54.5t-25 50.5q-40 52 -101 52q-29 0 -54.5 -14.5t-44.5 -38.5
q-18 -22 -28 -50t-10 -54q0 -27 11.5 -55t30.5 -51t44 -37.5t51 -14.5t51.5 13zM1877.5 1449q39.5 -21 70.5 -58q29 -34 45.5 -77t18.5 -86q1 -46 -15.5 -89t-47.5 -78q-31 -36 -72.5 -56t-88.5 -20q-48 0 -88 20t-70 56q-29 35 -44.5 78.5t-15.5 88.5q0 43 15.5 86t44.5 77
q31 36 72 57.5t89 21.5q47 0 86.5 -21z" />
    <glyph glyph-name="uni06AC.init" unicode="&#x6ac;" horiz-adv-x="925" 
d="M-63.5 153.5q24.5 22.5 63.5 22.5h56h49q85 0 144.5 2.5t113.5 12.5q140 26 193 105q43 64 43 149q0 95 -44 171q-45 76 -132 177q-84 97 -194 198q-53 49 -109 94q4 38 11 92l10 90l396 170l396 169l11 -26l21 -47q11 -24 31 -72l-728 -306q78 -66 135.5 -118
t108.5 -110q128 -142 186 -273q52 -118 52 -225q0 -110 -57 -215h1q-85 -150 -288 -188q-38 -7 -83 -7l-323 1q-38 0 -63 22t-25 55q0 34 24.5 56.5zM430 1638l-147 -147l-148 148l147 147z" />
    <glyph glyph-name="uni06AC.medi" unicode="&#x6ac;" horiz-adv-x="1198" 
d="M-65.5 153q23.5 23 55.5 23h9h330q42 0 84.5 17.5t79.5 48.5q36 30 59.5 67.5t28.5 75.5q6 108 -72 250q-67 119 -182 250q-96 106 -203 190q4 50 12 100l12 99l854 368l11 -26l21 -47q11 -24 31 -72l-807 -339q168 -139 280 -293q44 -62 78 -121t86 -157
q66 -126 105 -190q64 -107 140 -159q83 -58 197 -62h43q33 0 55.5 -23t22.5 -55q0 -33 -22.5 -55.5t-55.5 -22.5h-8q-68 0 -121.5 8t-105.5 26h1q-64 23 -127 76.5t-119 125.5q-49 -90 -97 -134h1q-58 -52 -132.5 -75t-163.5 -27h-325q-33 0 -56 22.5t-23 55.5q0 32 23.5 55
zM420 1643l-147 -147l-148 148l147 147z" />
    <glyph glyph-name="uni06AC.fina" unicode="&#x6ac;" horiz-adv-x="2060" 
d="M1948 205q42 -28 112 -29q32 0 55 -23t23 -55t-23 -55t-55 -23q-100 3 -177 45v-1q-83 47 -141 162q-96 -96 -223 -148q-112 -41 -255.5 -63.5t-310.5 -22.5q-173 2 -317.5 23.5t-250.5 59.5q-203 80 -269 219q-40 76 -40 169q0 88 38 189q31 78 75 148l126 -94
q-21 -37 -33 -60t-23 -54q-25 -66 -25 -128q0 -51 22 -98q56 -101 238 -156q190 -59 459 -59q325 0 507 72q60 25 92.5 43t55.5 45q26 30 40.5 76t20.5 118q3 47 3 104q0 122 -15 323q-5 136 -17 327q-9 135 -16 198l156 16l6 -60q6 -58 20 -276l3 -66q3 -48 7 -134
q6 -103 10 -149l5 -69l3 -82l3 -81q5 -101 18 -169t36 -112q21 -46 57 -70zM1125 901q-10 1 -32 5q-30 6 -63 6q-42 0 -73 -15h1q-39 -15 -63 -49.5t-24 -73.5q0 -25 10 -45q16 -39 59 -68t93 -29q29 0 51 9l-1 -1q38 11 91 42q44 24 58 37l53 -69q-51 -35 -201 -118
l-59 -33l-244 -135l-21 39l-21 38l210 117q-53 23 -92.5 59t-58.5 78q-14 37 -14 79q0 67 39 123q41 58 102 82q52 20 105 20q35 0 68.5 -5.5t52.5 -12.5zM1097 1233l-147 -147l-148 148l147 147z" />
    <glyph glyph-name="uni06AD.init" unicode="&#x6ad;" horiz-adv-x="930" arabic-form="initial" 
d="M-63.5 153.5q24.5 22.5 63.5 22.5h56h49q85 0 144.5 2.5t113.5 12.5q140 26 193 105q43 64 43 149q0 95 -44 171q-45 76 -132 177q-84 97 -194 198q-53 49 -109 94q4 38 11 92l10 90l396 170l396 169l11 -26l21 -47q11 -24 31 -72l-728 -306q78 -66 135.5 -118
t108.5 -110q128 -142 186 -273q52 -118 52 -225q0 -110 -57 -215h1q-85 -150 -288 -188q-38 -7 -83 -7l-323 1q-38 0 -63 22t-25 55q0 34 24.5 56.5zM276 1581l116 116l117 -117l-116 -116zM-24 1582l116 116l117 -117l-116 -116zM123 1778l116 116l117 -117l-116 -116z" />
    <glyph glyph-name="uni06AD.medi" unicode="&#x6ad;" horiz-adv-x="1193" arabic-form="medial" 
d="M-65.5 153q23.5 23 55.5 23h9h330q42 0 84.5 17.5t79.5 48.5q36 30 59.5 67.5t28.5 75.5q6 108 -72 250q-67 119 -182 250q-96 106 -203 190q4 50 12 100l12 99l854 368l11 -26l21 -47q11 -24 31 -72l-807 -339q168 -139 280 -293q44 -62 78 -121t86 -157
q66 -126 105 -190q64 -107 140 -159q83 -58 197 -62h43q33 0 55.5 -23t22.5 -55q0 -33 -22.5 -55.5t-55.5 -22.5h-8q-68 0 -121.5 8t-105.5 26h1q-64 23 -127 76.5t-119 125.5q-49 -90 -97 -134h1q-58 -52 -132.5 -75t-163.5 -27h-325q-33 0 -56 22.5t-23 55.5q0 32 23.5 55
zM276 1592l116 116l117 -117l-116 -116zM-24 1593l116 116l117 -117l-116 -116zM123 1789l116 116l117 -117l-116 -116z" />
    <glyph glyph-name="uni06AD.fina" unicode="&#x6ad;" horiz-adv-x="2071" arabic-form="final" 
d="M1948 205q42 -28 112 -29q32 0 55 -23t23 -55t-23 -55t-55 -23q-100 3 -177 45v-1q-83 47 -141 162q-96 -96 -223 -148q-112 -41 -255.5 -63.5t-310.5 -22.5q-173 2 -317.5 23.5t-250.5 59.5q-203 80 -269 219q-40 76 -40 169q0 88 38 189q31 78 75 148l126 -94
q-21 -37 -33 -60t-23 -54q-25 -66 -25 -128q0 -51 22 -98q56 -101 238 -156q190 -59 459 -59q325 0 507 72q60 25 92.5 43t55.5 45q26 30 40.5 76t20.5 118q3 47 3 104q0 122 -15 323q-5 136 -17 327q-9 135 -16 198l156 16l6 -60q6 -58 20 -276l3 -66q3 -48 7 -134
q6 -103 10 -149l5 -69l3 -82l3 -81q5 -101 18 -169t36 -112q21 -46 57 -70zM1125 901q-10 1 -32 5q-30 6 -63 6q-42 0 -73 -15h1q-39 -15 -63 -49.5t-24 -73.5q0 -25 10 -45q16 -39 59 -68t93 -29q29 0 51 9l-1 -1q38 11 91 42q44 24 58 37l53 -69q-51 -35 -201 -118
l-59 -33l-244 -135l-21 39l-21 38l210 117q-53 23 -92.5 59t-58.5 78q-14 37 -14 79q0 67 39 123q41 58 102 82q52 20 105 20q35 0 68.5 -5.5t52.5 -12.5zM1006 1215l146 146l148 -148l-146 -146zM600 1216l146 147l148 -148l-146 -147zM823 1506l132 132l133 -133
l-132 -132z" />
    <glyph glyph-name="uni06AE.init" unicode="&#x6ae;" horiz-adv-x="930" 
d="M-63.5 153.5q24.5 22.5 63.5 22.5h56h49q85 0 144.5 2.5t113.5 12.5q140 26 193 105q43 64 43 149q0 95 -44 171q-45 76 -132 177q-84 97 -194 198q-53 49 -109 94q4 38 11 92l10 90l396 170l396 169l11 -26l21 -47q11 -24 31 -72l-728 -306q78 -66 135.5 -118
t108.5 -110q128 -142 186 -273q52 -118 52 -225q0 -110 -57 -215h1q-85 -150 -288 -188q-38 -7 -83 -7l-323 1q-38 0 -63 22t-25 55q0 34 24.5 56.5zM632 -143l146 -146l-148 -148l-146 146zM226 -144l146 -147l-148 -148l-146 147zM434 -449l132 -132l-133 -133l-132 132z
" />
    <glyph glyph-name="uni06AE.medi" unicode="&#x6ae;" horiz-adv-x="1193" 
d="M-65.5 153q23.5 23 55.5 23h9h330q42 0 84.5 17.5t79.5 48.5q36 30 59.5 67.5t28.5 75.5q6 108 -72 250q-67 119 -182 250q-96 106 -203 190q4 50 12 100l12 99l854 368l11 -26l21 -47q11 -24 31 -72l-807 -339q168 -139 280 -293q44 -62 78 -121t86 -157
q66 -126 105 -190q64 -107 140 -159q83 -58 197 -62h43q33 0 55.5 -23t22.5 -55q0 -33 -22.5 -55.5t-55.5 -22.5h-8q-68 0 -121.5 8t-105.5 26h1q-64 23 -127 76.5t-119 125.5q-49 -90 -97 -134h1q-58 -52 -132.5 -75t-163.5 -27h-325q-33 0 -56 22.5t-23 55.5q0 32 23.5 55
zM838 -152l146 -146l-148 -148l-146 146zM432 -153l146 -147l-148 -148l-146 147zM640 -458l132 -132l-133 -133l-132 132z" />
    <glyph glyph-name="uni06AE.fina" unicode="&#x6ae;" horiz-adv-x="2065" 
d="M1948 205q42 -28 112 -29q32 0 55 -23t23 -55t-23 -55t-55 -23q-100 3 -177 45v-1q-83 47 -141 162q-96 -96 -223 -148q-112 -41 -255.5 -63.5t-310.5 -22.5q-173 2 -317.5 23.5t-250.5 59.5q-203 80 -269 219q-40 76 -40 169q0 88 38 189q31 78 75 148l126 -94
q-21 -37 -33 -60t-23 -54q-25 -66 -25 -128q0 -51 22 -98q56 -101 238 -156q190 -59 459 -59q325 0 507 72q60 25 92.5 43t55.5 45q26 30 40.5 76t20.5 118q3 47 3 104q0 122 -15 323q-5 136 -17 327q-9 135 -16 198l156 16l6 -60q6 -58 20 -276l3 -66q3 -48 7 -134
q6 -103 10 -149l5 -69l3 -82l3 -81q5 -101 18 -169t36 -112q21 -46 57 -70zM1125 901q-10 1 -32 5q-30 6 -63 6q-42 0 -73 -15h1q-39 -15 -63 -49.5t-24 -73.5q0 -25 10 -45q16 -39 59 -68t93 -29q29 0 51 9l-1 -1q38 11 91 42q44 24 58 37l53 -69q-51 -35 -201 -118
l-59 -33l-244 -135l-21 39l-21 38l210 117q-53 23 -92.5 59t-58.5 78q-14 37 -14 79q0 67 39 123q41 58 102 82q52 20 105 20q35 0 68.5 -5.5t52.5 -12.5zM1151 -146l146 -146l-148 -148l-146 146zM745 -147l146 -147l-148 -148l-146 147zM953 -452l132 -132l-133 -133
l-132 132z" />
    </font>
</defs>
</svg>
